<svg xmlns="http://www.w3.org/2000/svg" width="250" height="160" fill="none"><path fill="#A7A7A7" d="M20 57h45v45H20z"/><path fill="#646464" d="M73 50h64v12H73zM142 60v2h-1v-2h1Zm5 0v2h-3v-2h3Zm4 0v2h-2v-2h2Zm5 0v2h-2v-2h2Zm4 0v2h-2v-2h2Zm5 0v2h-2v-2h2Zm5 0v2h-3v-2h3Zm4 0v2h-2v-2h2Zm5 0v2h-3v-2h3Zm4 0v2h-2v-2h2Zm5 0v2h-3v-2h3Zm4 0v2h-2v-2h2Zm5 0v2h-2v-2h2Zm4 0v2h-2v-2h2Zm5 0v2h-2v-2h2Zm5 0v2h-3v-2h3Zm3 0v2h-1v-2h1ZM218 50h12v12h-12z"/><path fill="#A7A7A7" d="M73 70h108v1H73zM73 76h108v3H73zM73 84h157v5H73zM73 94h157v5H73zM73 104h105v5H73z"/></svg>