<svg width="250" height="160" viewBox="0 0 250 160" fill="none" xmlns="http://www.w3.org/2000/svg">
<g clip-path="url(#clip0_2772_585)">
<path d="M25.334 14.8335H121.167V76.1668C121.167 78.9896 118.879 81.2779 116.056 81.2779H30.4451C27.6223 81.2779 25.334 78.9896 25.334 76.1668V14.8335Z" fill="#D5D5D5"/>
<path d="M128.834 14.8335H224.667V76.1668C224.667 78.9896 222.379 81.2779 219.556 81.2779H133.945C131.122 81.2779 128.834 78.9896 128.834 76.1668V14.8335Z" fill="#D5D5D5"/>
<path fill-rule="evenodd" clip-rule="evenodd" d="M126.661 123.189C127.542 123.189 128.387 123.539 129.01 124.162C129.633 124.785 129.983 125.63 129.983 126.511C129.983 127.392 129.633 128.237 129.01 128.86C128.387 129.484 127.542 129.834 126.661 129.834C125.78 129.834 124.935 129.484 124.312 128.86C123.689 128.237 123.339 127.392 123.339 126.511C123.339 125.63 123.689 124.785 124.312 124.162C124.935 123.539 125.78 123.189 126.661 123.189ZM116.264 118.206C117.365 118.206 118.422 118.643 119.2 119.422C119.979 120.201 120.417 121.257 120.417 122.359C120.417 123.46 119.979 124.516 119.2 125.295C118.422 126.074 117.365 126.511 116.264 126.511C115.163 126.511 114.106 126.074 113.328 125.295C112.549 124.516 112.111 123.46 112.111 122.359C112.111 121.257 112.549 120.201 113.328 119.422C114.106 118.643 115.163 118.206 116.264 118.206ZM135.496 119.036C136.377 119.036 137.222 119.386 137.846 120.009C138.469 120.632 138.819 121.477 138.819 122.359C138.819 123.24 138.469 124.085 137.846 124.708C137.222 125.331 136.377 125.681 135.496 125.681C134.615 125.681 133.77 125.331 133.147 124.708C132.524 124.085 132.174 123.24 132.174 122.359C132.174 121.477 132.524 120.632 133.147 120.009C133.77 119.386 134.615 119.036 135.496 119.036ZM139.119 112.091C139.78 112.091 140.414 112.354 140.881 112.821C141.348 113.288 141.611 113.922 141.611 114.583C141.611 115.244 141.348 115.877 140.881 116.345C140.414 116.812 139.78 117.075 139.119 117.075C138.458 117.075 137.825 116.812 137.357 116.345C136.89 115.877 136.628 115.244 136.628 114.583C136.628 113.922 136.89 113.288 137.357 112.821C137.825 112.354 138.458 112.091 139.119 112.091ZM112.541 106.578C113.643 106.578 114.699 107.016 115.478 107.794C116.257 108.573 116.694 109.629 116.694 110.731C116.694 111.832 116.257 112.888 115.478 113.667C114.699 114.446 113.643 114.884 112.541 114.884C111.44 114.884 110.384 114.446 109.605 113.667C108.826 112.888 108.389 111.832 108.389 110.731C108.389 109.629 108.826 108.573 109.605 107.794C110.384 107.016 111.44 106.578 112.541 106.578ZM137.933 105.261C138.374 105.261 138.796 105.436 139.108 105.747C139.419 106.059 139.594 106.481 139.594 106.922C139.594 107.362 139.419 107.785 139.108 108.096C138.796 108.408 138.374 108.583 137.933 108.583C137.493 108.583 137.07 108.408 136.759 108.096C136.447 107.785 136.272 107.362 136.272 106.922C136.272 106.481 136.447 106.059 136.759 105.747C137.07 105.436 137.493 105.261 137.933 105.261ZM121.678 96.6113C122.999 96.6113 124.267 97.1364 125.201 98.0709C126.136 99.0055 126.661 100.273 126.661 101.595C126.661 102.916 126.136 104.184 125.201 105.118C124.267 106.053 122.999 106.578 121.678 106.578C120.356 106.578 119.088 106.053 118.154 105.118C117.219 104.184 116.694 102.916 116.694 101.595C116.694 100.273 117.219 99.0055 118.154 98.0709C119.088 97.1364 120.356 96.6113 121.678 96.6113ZM134.136 101.595C134.356 101.595 134.567 101.682 134.723 101.838C134.879 101.994 134.966 102.205 134.966 102.425C134.966 102.645 134.879 102.857 134.723 103.013C134.567 103.168 134.356 103.256 134.136 103.256C133.916 103.256 133.704 103.168 133.549 103.013C133.393 102.857 133.305 102.645 133.305 102.425C133.305 102.205 133.393 101.994 133.549 101.838C133.704 101.682 133.916 101.595 134.136 101.595Z" fill="#989898"/>
</g>
<rect x="11.2778" y="16.1113" width="227.444" height="127.778" rx="3.83333" stroke="#D5D5D5" stroke-width="2.55556"/>
<defs>
<clipPath id="clip0_2772_585">
<rect x="10" y="14.8335" width="230" height="130.333" rx="5.11111" fill="white"/>
</clipPath>
</defs>
</svg>
