<svg width="250" height="160" viewBox="0 0 250 160" fill="none" xmlns="http://www.w3.org/2000/svg">
<g clip-path="url(#clip0_2823_511)">
<path d="M25.334 14.8335H121.167V76.1668C121.167 78.9896 118.879 81.2779 116.056 81.2779H30.4451C27.6223 81.2779 25.334 78.9896 25.334 76.1668V14.8335Z" fill="#D5D5D5"/>
<path d="M128.834 14.8335H224.667V76.1668C224.667 78.9896 222.379 81.2779 219.556 81.2779H133.945C131.122 81.2779 128.834 78.9896 128.834 76.1668V14.8335Z" fill="#D5D5D5"/>
<rect x="25.9729" y="97.2502" width="31.9444" height="31.9444" rx="4.47222" fill="#F0F0F0"/>
<rect x="25.9729" y="97.2502" width="31.9444" height="31.9444" rx="4.47222" stroke="#D5D5D5" stroke-width="1.27778"/>
<g clip-path="url(#clip1_2823_511)">
<path fill-rule="evenodd" clip-rule="evenodd" d="M38.0535 112.207C37.7843 112.476 37.6331 112.842 37.6331 113.222C37.6331 113.603 37.7843 113.969 38.0535 114.238L43.4738 119.661C43.7435 119.93 44.1092 120.081 44.4905 120.081C44.8717 120.081 45.2374 119.93 45.5069 119.66C45.7764 119.39 45.9278 119.025 45.9277 118.643C45.9276 118.262 45.7761 117.897 45.5064 117.627L41.1019 113.222L45.5064 108.818C45.7684 108.547 45.9135 108.184 45.9104 107.807C45.9073 107.43 45.7563 107.07 45.4899 106.803C45.2235 106.536 44.863 106.385 44.4861 106.381C44.1092 106.378 43.746 106.523 43.4748 106.784L38.0525 112.206L38.0535 112.207Z" fill="#D5D5D5"/>
</g>
<rect x="66.8615" y="97.2502" width="31.9444" height="31.9444" rx="4.47222" fill="#F0F0F0"/>
<rect x="66.8615" y="97.2502" width="31.9444" height="31.9444" rx="4.47222" stroke="#D5D5D5" stroke-width="1.27778"/>
<path d="M84.8451 108.127V119.278H82.825V110.092H82.7596L80.1515 111.759V109.907L82.923 108.127H84.8451Z" fill="#D5D5D5"/>
<rect x="107.111" y="96.6113" width="33.2222" height="33.2222" rx="5.11111" fill="#989898"/>
<path d="M119.841 119.278V117.819L123.712 114.024C124.082 113.65 124.391 113.318 124.638 113.027C124.885 112.737 125.07 112.456 125.193 112.183C125.317 111.911 125.378 111.621 125.378 111.312C125.378 110.96 125.298 110.659 125.139 110.408C124.979 110.154 124.759 109.958 124.48 109.82C124.2 109.682 123.883 109.613 123.527 109.613C123.16 109.613 122.839 109.69 122.563 109.842C122.287 109.991 122.073 110.203 121.921 110.479C121.772 110.755 121.697 111.083 121.697 111.465H119.775C119.775 110.757 119.937 110.141 120.26 109.619C120.583 109.096 121.028 108.691 121.594 108.405C122.164 108.118 122.817 107.974 123.554 107.974C124.302 107.974 124.959 108.114 125.525 108.394C126.092 108.673 126.531 109.056 126.843 109.543C127.159 110.029 127.317 110.584 127.317 111.209C127.317 111.626 127.237 112.036 127.077 112.439C126.917 112.842 126.636 113.289 126.233 113.779C125.834 114.269 125.273 114.862 124.551 115.559L122.628 117.514V117.59H127.485V119.278H119.841Z" fill="#F0F0F0"/>
<rect x="148.639" y="97.2502" width="31.9444" height="31.9444" rx="4.47222" fill="#F0F0F0"/>
<rect x="148.639" y="97.2502" width="31.9444" height="31.9444" rx="4.47222" stroke="#D5D5D5" stroke-width="1.27778"/>
<path d="M164.499 119.431C163.715 119.431 163.018 119.296 162.408 119.028C161.802 118.759 161.323 118.385 160.971 117.906C160.619 117.427 160.432 116.873 160.41 116.245H162.457C162.476 116.547 162.575 116.81 162.757 117.035C162.938 117.256 163.18 117.429 163.481 117.552C163.782 117.676 164.12 117.737 164.494 117.737C164.893 117.737 165.247 117.668 165.556 117.53C165.864 117.389 166.106 117.193 166.28 116.942C166.454 116.692 166.539 116.403 166.536 116.077C166.539 115.739 166.452 115.441 166.274 115.184C166.097 114.926 165.839 114.724 165.501 114.579C165.167 114.434 164.764 114.361 164.292 114.361H163.307V112.804H164.292C164.681 112.804 165.02 112.737 165.311 112.603C165.605 112.468 165.835 112.28 166.002 112.036C166.169 111.79 166.251 111.505 166.247 111.181C166.251 110.866 166.18 110.592 166.035 110.359C165.893 110.123 165.692 109.94 165.43 109.809C165.173 109.679 164.87 109.613 164.521 109.613C164.18 109.613 163.864 109.675 163.574 109.798C163.283 109.922 163.049 110.098 162.871 110.327C162.693 110.552 162.599 110.82 162.588 111.132H160.644C160.659 110.508 160.838 109.96 161.183 109.488C161.532 109.013 161.996 108.642 162.577 108.377C163.158 108.109 163.81 107.974 164.532 107.974C165.276 107.974 165.922 108.114 166.47 108.394C167.022 108.669 167.449 109.042 167.75 109.51C168.051 109.978 168.202 110.495 168.202 111.062C168.206 111.69 168.02 112.216 167.647 112.641C167.276 113.065 166.79 113.343 166.187 113.474V113.561C166.971 113.67 167.572 113.96 167.99 114.432C168.411 114.9 168.619 115.483 168.616 116.18C168.616 116.804 168.438 117.363 168.082 117.857C167.73 118.347 167.244 118.732 166.623 119.012C166.006 119.291 165.298 119.431 164.499 119.431Z" fill="#D5D5D5"/>
<rect x="189.53" y="97.2502" width="31.9444" height="31.9444" rx="4.47222" fill="#F0F0F0"/>
<rect x="189.53" y="97.2502" width="31.9444" height="31.9444" rx="4.47222" stroke="#D5D5D5" stroke-width="1.27778"/>
<g clip-path="url(#clip2_2823_511)">
<path fill-rule="evenodd" clip-rule="evenodd" d="M209.392 112.207C209.661 112.476 209.812 112.842 209.812 113.222C209.812 113.603 209.661 113.969 209.392 114.238L203.972 119.661C203.702 119.93 203.336 120.081 202.955 120.081C202.574 120.081 202.208 119.93 201.938 119.66C201.669 119.39 201.517 119.025 201.518 118.643C201.518 118.262 201.669 117.897 201.939 117.627L206.343 113.222L201.939 108.818C201.677 108.547 201.532 108.184 201.535 107.807C201.538 107.43 201.689 107.07 201.955 106.803C202.222 106.536 202.582 106.385 202.959 106.381C203.336 106.378 203.699 106.523 203.971 106.784L209.393 112.206L209.392 112.207Z" fill="#D5D5D5"/>
</g>
</g>
<rect x="11.2778" y="16.1113" width="227.444" height="127.778" rx="3.83333" stroke="#D5D5D5" stroke-width="2.55556"/>
<defs>
<clipPath id="clip0_2823_511">
<rect x="10" y="14.8335" width="230" height="130.333" rx="5.11111" fill="white"/>
</clipPath>
<clipPath id="clip1_2823_511">
<rect width="23" height="23" fill="white" transform="matrix(-1 0 0 1 53.4453 101.723)"/>
</clipPath>
<clipPath id="clip2_2823_511">
<rect width="23" height="23" fill="white" transform="translate(194.004 101.723)"/>
</clipPath>
</defs>
</svg>
