<svg width="250" height="160" viewBox="0 0 250 160" fill="none" xmlns="http://www.w3.org/2000/svg">
<rect x="223.286" y="55.9286" width="21.7143" height="24" fill="#E8E8E8"/>
<path d="M5 59.3571C5 57.4636 6.53502 55.9286 8.42857 55.9286H223.286L234.714 68.7993L245 80.5V101.643C245 103.536 243.465 105.071 241.571 105.071H8.42858C6.53503 105.071 5 103.536 5 101.643V59.3571Z" fill="#646464"/>
<path d="M99.1366 88.9286V72.3052H105.695C106.956 72.3052 108.03 72.546 108.917 73.0276C109.805 73.5038 110.481 74.1667 110.947 75.0162C111.417 75.8604 111.653 76.8344 111.653 77.9383C111.653 79.0422 111.415 80.0162 110.939 80.8604C110.462 81.7045 109.772 82.362 108.869 82.8328C107.971 83.3036 106.883 83.5389 105.606 83.5389H101.426V80.7224H105.038C105.714 80.7224 106.271 80.606 106.71 80.3734C107.153 80.1353 107.483 79.8079 107.7 79.3912C107.922 78.9691 108.033 78.4848 108.033 77.9383C108.033 77.3864 107.922 76.9047 107.7 76.4935C107.483 76.0768 107.153 75.7549 106.71 75.5276C106.266 75.2949 105.703 75.1786 105.021 75.1786H102.651V88.9286H99.1366ZM113.936 88.9286V72.3052H125.137V75.2029H117.45V79.1639H124.561V82.0617H117.45V86.0308H125.17V88.9286H113.936ZM127.931 88.9286V72.3052H139.133V75.2029H131.446V79.1639H138.556V82.0617H131.446V86.0308H139.165V88.9286H127.931ZM141.927 88.9286V72.3052H145.441V86.0308H152.568V88.9286H141.927Z" fill="#E8E8E8"/>
<path d="M223.286 55.9286L233.41 67.0059L245 79.9286H223.286V55.9286Z" fill="#A7A7A7"/>
</svg>
