<svg width="250" height="160" viewBox="0 0 250 160" fill="none" xmlns="http://www.w3.org/2000/svg">
<path d="M5 54.9286H241.571C243.465 54.9286 245 56.4636 245 58.3571V100.643C245 102.536 243.465 104.071 241.571 104.071H5V54.9286Z" fill="#A7A7A7"/>
<path d="M5 58.3571C5 56.4636 6.53502 54.9286 8.42857 54.9286H206.143V104.071H8.42857C6.53502 104.071 5 102.536 5 100.643V58.3571Z" fill="#646464"/>
<path d="M38.7754 76.086C38.7105 75.4313 38.4318 74.9226 37.9394 74.5601C37.447 74.1975 36.7787 74.0162 35.9345 74.0162C35.3609 74.0162 34.8766 74.0974 34.4816 74.2597C34.0866 74.4167 33.7836 74.6358 33.5725 74.9172C33.3669 75.1986 33.2641 75.5178 33.2641 75.875C33.2533 76.1726 33.3155 76.4323 33.4508 76.6542C33.5915 76.8761 33.7836 77.0682 34.0271 77.2305C34.2706 77.3874 34.552 77.5254 34.8712 77.6445C35.1905 77.7581 35.5314 77.8555 35.894 77.9367L37.3875 78.2938C38.1126 78.4562 38.7781 78.6726 39.3842 78.9432C39.9903 79.2137 40.5152 79.5465 40.9589 79.9415C41.4026 80.3366 41.7462 80.8019 41.9897 81.3376C42.2386 81.8734 42.3658 82.4875 42.3712 83.1802C42.3658 84.1975 42.1061 85.0795 41.592 85.8263C41.0833 86.5676 40.3474 87.1439 39.3842 87.5552C38.4264 87.961 37.2711 88.1639 35.9183 88.1639C34.5763 88.1639 33.4075 87.9583 32.4118 87.5471C31.4215 87.1358 30.6477 86.527 30.0904 85.7208C29.5384 84.9091 29.2489 83.9053 29.2219 82.7094H32.6228C32.6607 83.2668 32.8204 83.7321 33.1017 84.1055C33.3885 84.4735 33.77 84.7522 34.2462 84.9415C34.7278 85.1255 35.2717 85.2175 35.8777 85.2175C36.473 85.2175 36.9897 85.1309 37.428 84.9578C37.8718 84.7846 38.2154 84.5438 38.4589 84.2354C38.7024 83.9269 38.8241 83.5725 38.8241 83.1721C38.8241 82.7987 38.7132 82.4848 38.4914 82.2305C38.2749 81.9762 37.9556 81.7597 37.5336 81.5812C37.1169 81.4026 36.6055 81.2402 35.9995 81.0941L34.1894 80.6396C32.7879 80.2987 31.6813 79.7657 30.8696 79.0406C30.0579 78.3155 29.6548 77.3387 29.6602 76.1104C29.6548 75.1039 29.9226 74.2246 30.4638 73.4724C31.0103 72.7202 31.7598 72.1331 32.7121 71.711C33.6645 71.2889 34.7468 71.0779 35.9589 71.0779C37.1927 71.0779 38.2695 71.2889 39.1894 71.711C40.1147 72.1331 40.8344 72.7202 41.3485 73.4724C41.8626 74.2246 42.1277 75.0958 42.144 76.086H38.7754ZM44.7353 87.9286V71.3052H48.2499V85.0308H55.3765V87.9286H44.7353ZM61.2186 71.3052V87.9286H57.704V71.3052H61.2186ZM70.0031 87.9286H64.1103V71.3052H70.0518C71.7239 71.3052 73.1633 71.638 74.37 72.3036C75.5767 72.9637 76.5047 73.9134 77.1541 75.1526C77.8089 76.3918 78.1362 77.8744 78.1362 79.6006C78.1362 81.3322 77.8089 82.8203 77.1541 84.0649C76.5047 85.3095 75.5713 86.2646 74.3538 86.9302C73.1416 87.5958 71.6914 87.9286 70.0031 87.9286ZM67.6249 84.9172H69.857C70.896 84.9172 71.7699 84.7332 72.4788 84.3652C73.1931 83.9919 73.7288 83.4156 74.0859 82.6364C74.4485 81.8517 74.6297 80.8398 74.6297 79.6006C74.6297 78.3723 74.4485 77.3685 74.0859 76.5893C73.7288 75.8101 73.1958 75.2365 72.4869 74.8685C71.778 74.5005 70.9041 74.3165 69.8651 74.3165H67.6249V84.9172ZM80.7397 87.9286V71.3052H91.941V74.2029H84.2543V78.1639H91.3647V81.0617H84.2543V85.0308H91.9735V87.9286H80.7397ZM115.301 79.6169C115.301 81.4296 114.958 82.9718 114.271 84.2435C113.589 85.5151 112.658 86.4865 111.478 87.1575C110.304 87.823 108.984 88.1558 107.517 88.1558C106.04 88.1558 104.714 87.8203 103.54 87.1493C102.366 86.4783 101.438 85.507 100.756 84.2354C100.074 82.9637 99.7332 81.4242 99.7332 79.6169C99.7332 77.8041 100.074 76.2619 100.756 74.9902C101.438 73.7186 102.366 72.75 103.54 72.0844C104.714 71.4134 106.04 71.0779 107.517 71.0779C108.984 71.0779 110.304 71.4134 111.478 72.0844C112.658 72.75 113.589 73.7186 114.271 74.9902C114.958 76.2619 115.301 77.8041 115.301 79.6169ZM111.738 79.6169C111.738 78.4426 111.562 77.4524 111.211 76.6461C110.864 75.8398 110.374 75.2283 109.741 74.8117C109.108 74.395 108.367 74.1867 107.517 74.1867C106.668 74.1867 105.926 74.395 105.293 74.8117C104.66 75.2283 104.168 75.8398 103.816 76.6461C103.47 77.4524 103.297 78.4426 103.297 79.6169C103.297 80.7911 103.47 81.7814 103.816 82.5876C104.168 83.3939 104.66 84.0054 105.293 84.4221C105.926 84.8387 106.668 85.0471 107.517 85.0471C108.367 85.0471 109.108 84.8387 109.741 84.4221C110.374 84.0054 110.864 83.3939 111.211 82.5876C111.562 81.7814 111.738 80.7911 111.738 79.6169ZM128.173 71.3052H131.687V82.1006C131.687 83.3128 131.398 84.3734 130.819 85.2825C130.245 86.1915 129.442 86.9004 128.408 87.4091C127.375 87.9123 126.171 88.1639 124.796 88.1639C123.416 88.1639 122.21 87.9123 121.176 87.4091C120.142 86.9004 119.339 86.1915 118.765 85.2825C118.192 84.3734 117.905 83.3128 117.905 82.1006V71.3052H121.42V81.8003C121.42 82.4334 121.558 82.9962 121.833 83.4886C122.115 83.981 122.51 84.368 123.019 84.6493C123.527 84.9307 124.12 85.0714 124.796 85.0714C125.478 85.0714 126.07 84.9307 126.574 84.6493C127.082 84.368 127.475 83.981 127.751 83.4886C128.032 82.9962 128.173 82.4334 128.173 81.8003V71.3052ZM133.946 74.2029V71.3052H147.598V74.2029H142.509V87.9286H139.035V74.2029H133.946Z" fill="#E8E8E8"/>
<path d="M187.575 91.5V83.5H227.857V75.5H187.575V67.5L170.715 79.5L187.575 91.5Z" fill="#E8E8E8"/>
</svg>
