<svg width="250" height="160" viewBox="0 0 250 160" fill="none" xmlns="http://www.w3.org/2000/svg">
<path d="M5 58.3571C5 56.4636 6.53502 54.9286 8.42857 54.9286H241.571C243.465 54.9286 245 56.4636 245 58.3571V65.5242C245 66.5897 244.505 67.5946 243.66 68.2436L229 79.5L243.66 90.7564C244.505 91.4053 245 92.4103 245 93.4758V100.643C245 102.536 243.465 104.071 241.571 104.071H8.42858C6.53503 104.071 5 102.536 5 100.643V93.4758C5 92.4103 5.49538 91.4053 6.34048 90.7564L21 79.5L6.34048 68.2436C5.49538 67.5946 5 66.5897 5 65.5242V58.3571Z" fill="#646464"/>
<path d="M72.6052 76.086C72.5403 75.4313 72.2616 74.9226 71.7692 74.5601C71.2768 74.1975 70.6085 74.0162 69.7643 74.0162C69.1907 74.0162 68.7064 74.0974 68.3114 74.2597C67.9164 74.4167 67.6134 74.6358 67.4023 74.9172C67.1967 75.1986 67.0939 75.5178 67.0939 75.875C67.0831 76.1726 67.1453 76.4323 67.2806 76.6542C67.4213 76.8761 67.6134 77.0682 67.8569 77.2305C68.1004 77.3874 68.3818 77.5254 68.701 77.6445C69.0203 77.7581 69.3612 77.8555 69.7237 77.9367L71.2173 78.2938C71.9424 78.4562 72.6079 78.6726 73.214 78.9432C73.8201 79.2137 74.345 79.5465 74.7887 79.9415C75.2324 80.3366 75.576 80.8019 75.8195 81.3376C76.0684 81.8734 76.1956 82.4875 76.201 83.1802C76.1956 84.1975 75.9359 85.0795 75.4218 85.8263C74.9131 86.5676 74.1772 87.1439 73.214 87.5552C72.2562 87.961 71.1009 88.1639 69.7481 88.1639C68.4061 88.1639 67.2373 87.9583 66.2416 87.5471C65.2513 87.1358 64.4775 86.527 63.9202 85.7208C63.3682 84.9091 63.0787 83.9053 63.0517 82.7094H66.4526C66.4905 83.2668 66.6502 83.7321 66.9315 84.1055C67.2183 84.4735 67.5998 84.7522 68.076 84.9415C68.5576 85.1255 69.1015 85.2175 69.7075 85.2175C70.3028 85.2175 70.8195 85.1309 71.2578 84.9578C71.7016 84.7846 72.0452 84.5438 72.2887 84.2354C72.5322 83.9269 72.6539 83.5725 72.6539 83.1721C72.6539 82.7987 72.543 82.4848 72.3211 82.2305C72.1047 81.9762 71.7854 81.7597 71.3634 81.5812C70.9467 81.4026 70.4353 81.2402 69.8293 81.0941L68.0192 80.6396C66.6177 80.2987 65.5111 79.7657 64.6994 79.0406C63.8877 78.3155 63.4846 77.3387 63.49 76.1104C63.4846 75.1039 63.7524 74.2246 64.2936 73.4724C64.8401 72.7202 65.5895 72.1331 66.5419 71.711C67.4943 71.2889 68.5766 71.0779 69.7887 71.0779C71.0224 71.0779 72.0993 71.2889 73.0192 71.711C73.9445 72.1331 74.6642 72.7202 75.1783 73.4724C75.6924 74.2246 75.9575 75.0958 75.9737 76.086H72.6052ZM77.9319 74.2029V71.3052H91.5845V74.2029H86.4953V87.9286H83.0212V74.2029H77.9319ZM94.6669 87.9286H90.9007L96.6393 71.3052H101.169L106.899 87.9286H103.133L98.9689 75.1039H98.839L94.6669 87.9286ZM94.4315 81.3945H103.328V84.138H94.4315V81.3945ZM122.804 71.3052V87.9286H119.768L112.536 77.4659H112.414V87.9286H108.9V71.3052H111.984L119.16 81.7597H119.306V71.3052H122.804ZM131.601 87.9286H125.708V71.3052H131.649C133.322 71.3052 134.761 71.638 135.968 72.3036C137.174 72.9637 138.102 73.9134 138.752 75.1526C139.407 76.3918 139.734 77.8744 139.734 79.6006C139.734 81.3322 139.407 82.8203 138.752 84.0649C138.102 85.3095 137.169 86.2646 135.951 86.9302C134.739 87.5958 133.289 87.9286 131.601 87.9286ZM129.223 84.9172H131.455C132.494 84.9172 133.368 84.7332 134.076 84.3652C134.791 83.9919 135.326 83.4156 135.684 82.6364C136.046 81.8517 136.227 80.8398 136.227 79.6006C136.227 78.3723 136.046 77.3685 135.684 76.5893C135.326 75.8101 134.793 75.2365 134.085 74.8685C133.376 74.5005 132.502 74.3165 131.463 74.3165H129.223V84.9172ZM144.265 87.9286H140.499L146.238 71.3052H150.767L156.497 87.9286H152.731L148.567 75.1039H148.437L144.265 87.9286ZM144.03 81.3945H152.926V84.138H144.03V81.3945ZM158.498 87.9286V71.3052H165.057C166.312 71.3052 167.383 71.5297 168.271 71.9789C169.164 72.4226 169.843 73.053 170.308 73.8701C170.779 74.6818 171.014 75.6369 171.014 76.7354C171.014 77.8393 170.776 78.7889 170.3 79.5844C169.824 80.3744 169.134 80.9805 168.23 81.4026C167.332 81.8247 166.244 82.0357 164.967 82.0357H160.576V79.211H164.399C165.07 79.211 165.627 79.119 166.071 78.9351C166.515 78.7511 166.845 78.4751 167.061 78.1071C167.283 77.7392 167.394 77.2819 167.394 76.7354C167.394 76.1834 167.283 75.7181 167.061 75.3393C166.845 74.9605 166.512 74.6737 166.063 74.4789C165.619 74.2787 165.059 74.1786 164.383 74.1786H162.013V87.9286H158.498ZM167.475 80.3636L171.607 87.9286H167.727L163.685 80.3636H167.475ZM179.391 87.9286H173.498V71.3052H179.44C181.112 71.3052 182.551 71.638 183.758 72.3036C184.965 72.9637 185.893 73.9134 186.542 75.1526C187.197 76.3918 187.524 77.8744 187.524 79.6006C187.524 81.3322 187.197 82.8203 186.542 84.0649C185.893 85.3095 184.959 86.2646 183.742 86.9302C182.529 87.5958 181.079 87.9286 179.391 87.9286ZM177.013 84.9172H179.245C180.284 84.9172 181.158 84.7332 181.867 84.3652C182.581 83.9919 183.117 83.4156 183.474 82.6364C183.836 81.8517 184.018 80.8398 184.018 79.6006C184.018 78.3723 183.836 77.3685 183.474 76.5893C183.117 75.8101 182.584 75.2365 181.875 74.8685C181.166 74.5005 180.292 74.3165 179.253 74.3165H177.013V84.9172Z" fill="#E8E8E8"/>
</svg>
