<svg width="250" height="160" viewBox="0 0 250 160" fill="none" xmlns="http://www.w3.org/2000/svg">
<path d="M5 58.3571C5 56.4636 6.53502 54.9286 8.42857 54.9286H241.571C243.465 54.9286 245 56.4636 245 58.3571V65.5242C245 66.5897 244.505 67.5947 243.66 68.2436L229 79.5L243.66 90.7564C244.505 91.4053 245 92.4103 245 93.4758V100.643C245 102.536 243.465 104.071 241.571 104.071H8.42858C6.53503 104.071 5 102.536 5 100.643V93.4758C5 92.4103 5.49538 91.4053 6.34048 90.7564L21 79.5L6.34048 68.2436C5.49538 67.5947 5 66.5897 5 65.5242V58.3571Z" fill="#646464"/>
<path d="M63.4872 76.086C63.4223 75.4313 63.1436 74.9226 62.6512 74.5601C62.1588 74.1975 61.4905 74.0162 60.6463 74.0162C60.0727 74.0162 59.5884 74.0974 59.1934 74.2597C58.7984 74.4167 58.4953 74.6358 58.2843 74.9172C58.0787 75.1986 57.9759 75.5179 57.9759 75.875C57.965 76.1726 58.0273 76.4324 58.1625 76.6542C58.3032 76.8761 58.4953 77.0682 58.7388 77.2305C58.9824 77.3874 59.2637 77.5254 59.583 77.6445C59.9023 77.7581 60.2432 77.8555 60.6057 77.9367L62.0992 78.2938C62.8243 78.4562 63.4899 78.6726 64.096 78.9432C64.702 79.2137 65.2269 79.5465 65.6707 79.9416C66.1144 80.3366 66.458 80.8019 66.7015 81.3377C66.9504 81.8734 67.0776 82.4876 67.083 83.1802C67.0776 84.1975 66.8178 85.0795 66.3038 85.8263C65.7951 86.5676 65.0592 87.1439 64.096 87.5552C63.1382 87.961 61.9829 88.164 60.6301 88.164C59.2881 88.164 58.1193 87.9583 57.1236 87.5471C56.1333 87.1358 55.3595 86.5271 54.8022 85.7208C54.2502 84.9091 53.9607 83.9053 53.9336 82.7094H57.3346C57.3725 83.2668 57.5321 83.7321 57.8135 84.1055C58.1003 84.4735 58.4818 84.7522 58.958 84.9416C59.4396 85.1255 59.9834 85.2175 60.5895 85.2175C61.1847 85.2175 61.7015 85.131 62.1398 84.9578C62.5835 84.7846 62.9272 84.5438 63.1707 84.2354C63.4142 83.9269 63.5359 83.5725 63.5359 83.1721C63.5359 82.7987 63.425 82.4848 63.2031 82.2305C62.9867 81.9762 62.6674 81.7597 62.2453 81.5812C61.8287 81.4026 61.3173 81.2403 60.7112 81.0942L58.9012 80.6396C57.4997 80.2987 56.3931 79.7657 55.5814 79.0406C54.7697 78.3155 54.3666 77.3387 54.372 76.1104C54.3666 75.1039 54.6344 74.2246 55.1755 73.4724C55.7221 72.7202 56.4715 72.1331 57.4239 71.711C58.3763 71.289 59.4585 71.0779 60.6707 71.0779C61.9044 71.0779 62.9813 71.289 63.9012 71.711C64.8265 72.1331 65.5462 72.7202 66.0603 73.4724C66.5743 74.2246 66.8395 75.0958 66.8557 76.086H63.4872ZM69.447 87.9286V71.3052H72.9617V78.164H80.0964V71.3052H83.6029V87.9286H80.0964V81.0617H72.9617V87.9286H69.447ZM101.777 79.6169C101.777 81.4297 101.433 82.9719 100.746 84.2435C100.064 85.5152 99.1332 86.4865 97.9535 87.1575C96.7793 87.8231 95.4589 88.1558 93.9925 88.1558C92.5152 88.1558 91.1895 87.8203 90.0152 87.1494C88.841 86.4784 87.9129 85.507 87.2311 84.2354C86.5493 82.9637 86.2084 81.4242 86.2084 79.6169C86.2084 77.8041 86.5493 76.2619 87.2311 74.9903C87.9129 73.7186 88.841 72.75 90.0152 72.0844C91.1895 71.4134 92.5152 71.0779 93.9925 71.0779C95.4589 71.0779 96.7793 71.4134 97.9535 72.0844C99.1332 72.75 100.064 73.7186 100.746 74.9903C101.433 76.2619 101.777 77.8041 101.777 79.6169ZM98.2133 79.6169C98.2133 78.4426 98.0374 77.4524 97.6857 76.6461C97.3394 75.8398 96.8496 75.2284 96.2165 74.8117C95.5834 74.395 94.8421 74.1867 93.9925 74.1867C93.1429 74.1867 92.4016 74.395 91.7685 74.8117C91.1354 75.2284 90.6429 75.8398 90.2912 76.6461C89.9449 77.4524 89.7717 78.4426 89.7717 79.6169C89.7717 80.7911 89.9449 81.7814 90.2912 82.5877C90.6429 83.3939 91.1354 84.0054 91.7685 84.4221C92.4016 84.8387 93.1429 85.0471 93.9925 85.0471C94.8421 85.0471 95.5834 84.8387 96.2165 84.4221C96.8496 84.0054 97.3394 83.3939 97.6857 82.5877C98.0374 81.7814 98.2133 80.7911 98.2133 79.6169ZM107.497 87.9286L102.74 71.3052H106.58L109.331 82.8555H109.469L112.505 71.3052H115.792L118.82 82.8799H118.966L121.718 71.3052H125.557L120.801 87.9286H117.375L114.21 77.0601H114.08L110.922 87.9286H107.497ZM147.395 77.125H143.84C143.775 76.665 143.643 76.2565 143.443 75.8994C143.242 75.5368 142.985 75.2284 142.671 74.974C142.358 74.7197 141.995 74.5249 141.584 74.3896C141.178 74.2543 140.737 74.1867 140.261 74.1867C139.4 74.1867 138.651 74.4004 138.012 74.8279C137.374 75.25 136.879 75.8669 136.527 76.6786C136.175 77.4848 135.999 78.4643 135.999 79.6169C135.999 80.8019 136.175 81.7976 136.527 82.6039C136.884 83.4102 137.382 84.0189 138.02 84.4302C138.659 84.8415 139.398 85.0471 140.236 85.0471C140.707 85.0471 141.143 84.9848 141.543 84.8604C141.949 84.7359 142.309 84.5547 142.623 84.3166C142.937 84.0731 143.196 83.7781 143.402 83.4318C143.613 83.0855 143.759 82.6905 143.84 82.2468L147.395 82.263C147.304 83.026 147.074 83.7619 146.706 84.4708C146.343 85.1742 145.853 85.8047 145.236 86.362C144.625 86.914 143.894 87.3523 143.045 87.6769C142.201 87.9962 141.246 88.1558 140.18 88.1558C138.697 88.1558 137.371 87.8203 136.202 87.1494C135.039 86.4784 134.119 85.507 133.443 84.2354C132.772 82.9637 132.436 81.4242 132.436 79.6169C132.436 77.8041 132.777 76.2619 133.459 74.9903C134.141 73.7186 135.066 72.75 136.235 72.0844C137.404 71.4134 138.719 71.0779 140.18 71.0779C141.143 71.0779 142.036 71.2132 142.858 71.4838C143.686 71.7543 144.419 72.1494 145.058 72.6688C145.696 73.1829 146.216 73.8133 146.616 74.5601C147.022 75.3068 147.282 76.1618 147.395 77.125ZM165.192 79.6169C165.192 81.4297 164.848 82.9719 164.161 84.2435C163.479 85.5152 162.548 86.4865 161.369 87.1575C160.194 87.8231 158.874 88.1558 157.408 88.1558C155.93 88.1558 154.605 87.8203 153.43 87.1494C152.256 86.4784 151.328 85.507 150.646 84.2354C149.964 82.9637 149.624 81.4242 149.624 79.6169C149.624 77.8041 149.964 76.2619 150.646 74.9903C151.328 73.7186 152.256 72.75 153.43 72.0844C154.605 71.4134 155.93 71.0779 157.408 71.0779C158.874 71.0779 160.194 71.4134 161.369 72.0844C162.548 72.75 163.479 73.7186 164.161 74.9903C164.848 76.2619 165.192 77.8041 165.192 79.6169ZM161.628 79.6169C161.628 78.4426 161.453 77.4524 161.101 76.6461C160.755 75.8398 160.265 75.2284 159.632 74.8117C158.999 74.395 158.257 74.1867 157.408 74.1867C156.558 74.1867 155.817 74.395 155.184 74.8117C154.551 75.2284 154.058 75.8398 153.706 76.6461C153.36 77.4524 153.187 78.4426 153.187 79.6169C153.187 80.7911 153.36 81.7814 153.706 82.5877C154.058 83.3939 154.551 84.0054 155.184 84.4221C155.817 84.8387 156.558 85.0471 157.408 85.0471C158.257 85.0471 158.999 84.8387 159.632 84.4221C160.265 84.0054 160.755 83.3939 161.101 82.5877C161.453 81.7814 161.628 80.7911 161.628 79.6169ZM173.688 87.9286H167.795V71.3052H173.737C175.409 71.3052 176.848 71.638 178.055 72.3036C179.262 72.9637 180.19 73.9134 180.839 75.1526C181.494 76.3918 181.821 77.8745 181.821 79.6007C181.821 81.3323 181.494 82.8203 180.839 84.0649C180.19 85.3095 179.256 86.2646 178.039 86.9302C176.827 87.5958 175.376 87.9286 173.688 87.9286ZM171.31 84.9172H173.542C174.581 84.9172 175.455 84.7332 176.164 84.3653C176.878 83.9919 177.414 83.4156 177.771 82.6364C178.133 81.8517 178.315 80.8398 178.315 79.6007C178.315 78.3723 178.133 77.3685 177.771 76.5893C177.414 75.8101 176.881 75.2365 176.172 74.8685C175.463 74.5005 174.589 74.3166 173.55 74.3166H171.31V84.9172ZM184.425 87.9286V71.3052H195.626V74.2029H187.939V78.164H195.05V81.0617H187.939V85.0308H195.658V87.9286H184.425Z" fill="#E8E8E8"/>
</svg>
