<svg width="250" height="160" viewBox="0 0 250 160" fill="none" xmlns="http://www.w3.org/2000/svg" xmlns:xlink="http://www.w3.org/1999/xlink">
<rect x="5" y="54.9286" width="240" height="49.1429" rx="3.42857" fill="url(#pattern0_2632_2016)"/>
<path d="M47.9974 71.3052V87.9286H44.4828V74.6412H44.3854L40.5785 77.0276V73.9107L44.6938 71.3052H47.9974ZM51.9483 87.9286V85.3961L57.8655 79.9172C58.3687 79.4302 58.7908 78.9919 59.1317 78.6023C59.478 78.2127 59.7405 77.8312 59.919 77.4578C60.0976 77.079 60.1869 76.6705 60.1869 76.2321C60.1869 75.7451 60.076 75.3258 59.8541 74.974C59.6323 74.6169 59.3292 74.3436 58.945 74.1542C58.5608 73.9594 58.1252 73.862 57.6382 73.862C57.1295 73.862 56.6858 73.9648 56.307 74.1705C55.9282 74.3761 55.636 74.671 55.4304 75.0552C55.2248 75.4394 55.122 75.8966 55.122 76.4269H51.7859C51.7859 75.3393 52.0321 74.395 52.5246 73.5942C53.017 72.7933 53.7069 72.1737 54.5944 71.7354C55.4818 71.2971 56.5045 71.0779 57.6626 71.0779C58.853 71.0779 59.8893 71.289 60.7713 71.711C61.6588 72.1277 62.3487 72.7067 62.8411 73.4481C63.3336 74.1894 63.5798 75.039 63.5798 75.9968C63.5798 76.6245 63.4553 77.244 63.2064 77.8555C62.9629 78.467 62.5273 79.1461 61.8996 79.8929C61.2719 80.6342 60.3871 81.5244 59.2453 82.5633L56.8184 84.9416V85.0552H63.7989V87.9286H51.9483ZM72.4901 88.1558C71.2779 88.1558 70.1984 87.9475 69.2514 87.5308C68.3099 87.1088 67.5658 86.5298 67.0193 85.7938C66.4782 85.0525 66.1995 84.1975 66.1833 83.2289H69.7222C69.7439 83.6347 69.8764 83.9919 70.1199 84.3003C70.3689 84.6034 70.6989 84.8387 71.1102 85.0065C71.5215 85.1742 71.9841 85.2581 72.4982 85.2581C73.0339 85.2581 73.5074 85.1634 73.9186 84.974C74.3299 84.7846 74.6519 84.5222 74.8846 84.1867C75.1172 83.8512 75.2336 83.4643 75.2336 83.026C75.2336 82.5823 75.1091 82.1899 74.8602 81.849C74.6167 81.5027 74.265 81.2321 73.805 81.0373C73.3505 80.8425 72.8093 80.7451 72.1816 80.7451H70.6313V78.164H72.1816C72.7119 78.164 73.18 78.072 73.5859 77.888C73.9971 77.704 74.3164 77.4497 74.5436 77.125C74.7709 76.7949 74.8846 76.4107 74.8846 75.9724C74.8846 75.5557 74.7844 75.1905 74.5842 74.8766C74.3894 74.5574 74.1134 74.3084 73.7563 74.1299C73.4046 73.9513 72.9933 73.862 72.5225 73.862C72.0463 73.862 71.6107 73.9486 71.2157 74.1218C70.8207 74.2895 70.5041 74.5303 70.266 74.8442C70.0279 75.158 69.9008 75.526 69.8846 75.9481H66.516C66.5323 74.9903 66.8055 74.1461 67.3359 73.4156C67.8662 72.6851 68.5804 72.1142 69.4787 71.7029C70.3824 71.2863 71.4024 71.0779 72.5388 71.0779C73.686 71.0779 74.6897 71.2863 75.5501 71.7029C76.4105 72.1196 77.0788 72.6824 77.555 73.3912C78.0366 74.0947 78.2747 74.8847 78.2693 75.7614C78.2747 76.6921 77.9852 77.4686 77.4008 78.0909C76.8218 78.7132 76.0669 79.1082 75.1362 79.276V79.4058C76.3591 79.5628 77.2899 79.9876 77.9284 80.6802C78.5723 81.3674 78.8916 82.2278 78.8862 83.2614C78.8916 84.2083 78.6183 85.0498 78.0664 85.7857C77.5198 86.5216 76.765 87.1006 75.8018 87.5227C74.8386 87.9448 73.7347 88.1558 72.4901 88.1558ZM81.1609 85.0065V82.2386L88.1009 71.3052H90.4872V75.1364H89.0749L84.6999 82.0601V82.1899H94.5619V85.0065H81.1609ZM89.1398 87.9286V84.1623L89.2048 82.9367V71.3052H92.5002V87.9286H89.1398ZM102.975 88.1558C101.828 88.1558 100.805 87.9448 99.9069 87.5227C99.014 87.1006 98.3051 86.5189 97.7802 85.7776C97.2554 85.0363 96.9821 84.1867 96.9604 83.2289H100.37C100.407 83.8728 100.678 84.395 101.181 84.7955C101.684 85.1959 102.282 85.3961 102.975 85.3961C103.527 85.3961 104.014 85.2744 104.436 85.0308C104.864 84.7819 105.196 84.4383 105.434 84C105.678 83.5563 105.8 83.0476 105.8 82.474C105.8 81.8896 105.675 81.3755 105.426 80.9318C105.183 80.4881 104.845 80.1418 104.412 79.8929C103.979 79.6439 103.484 79.5168 102.926 79.5114C102.439 79.5114 101.966 79.6115 101.506 79.8117C101.051 80.0119 100.697 80.2852 100.443 80.6315L97.3176 80.0714L98.1049 71.3052H108.267V74.1786H101.003L100.572 78.3425H100.67C100.962 77.9313 101.403 77.5904 101.993 77.3198C102.583 77.0492 103.243 76.914 103.973 76.914C104.975 76.914 105.867 77.1494 106.652 77.6201C107.437 78.0909 108.056 78.7376 108.511 79.5601C108.965 80.3772 109.19 81.3187 109.184 82.3847C109.19 83.5049 108.93 84.5005 108.405 85.3718C107.886 86.2376 107.158 86.9194 106.222 87.4172C105.291 87.9096 104.209 88.1558 102.975 88.1558ZM118.016 88.1558C117.161 88.1504 116.335 88.007 115.54 87.7256C114.75 87.4443 114.041 86.987 113.413 86.3539C112.786 85.7208 112.288 84.882 111.92 83.8377C111.557 82.7933 111.376 81.5108 111.376 79.9903C111.381 78.5942 111.541 77.3469 111.855 76.2484C112.174 75.1445 112.629 74.2083 113.219 73.4399C113.814 72.6715 114.525 72.0871 115.353 71.6867C116.181 71.2808 117.109 71.0779 118.137 71.0779C119.247 71.0779 120.226 71.2944 121.076 71.7273C121.925 72.1548 122.607 72.7365 123.121 73.4724C123.641 74.2083 123.954 75.0336 124.063 75.9481H120.597C120.462 75.369 120.177 74.9145 119.745 74.5844C119.312 74.2543 118.776 74.0893 118.137 74.0893C117.055 74.0893 116.233 74.5601 115.67 75.5016C115.112 76.4432 114.828 77.7229 114.818 79.3409H114.931C115.18 78.8485 115.516 78.4291 115.938 78.0828C116.365 77.7311 116.85 77.4632 117.391 77.2792C117.937 77.0898 118.513 76.9951 119.12 76.9951C120.104 76.9951 120.981 77.2278 121.749 77.6932C122.518 78.1531 123.124 78.7863 123.568 79.5925C124.011 80.3988 124.233 81.3214 124.233 82.3604C124.233 83.4859 123.971 84.487 123.446 85.3636C122.926 86.2403 122.199 86.9275 121.262 87.4253C120.332 87.9177 119.249 88.1613 118.016 88.1558ZM117.999 85.3961C118.541 85.3961 119.025 85.2662 119.452 85.0065C119.88 84.7468 120.215 84.395 120.459 83.9513C120.702 83.5076 120.824 83.0097 120.824 82.4578C120.824 81.9058 120.702 81.4107 120.459 80.9724C120.221 80.5341 119.891 80.1851 119.469 79.9253C119.046 79.6656 118.565 79.5357 118.024 79.5357C117.618 79.5357 117.242 79.6115 116.896 79.763C116.555 79.9145 116.254 80.1255 115.995 80.3961C115.74 80.6667 115.54 80.9805 115.394 81.3377C115.248 81.6894 115.175 82.0655 115.175 82.4659C115.175 83.0016 115.296 83.4913 115.54 83.9351C115.789 84.3788 116.124 84.7332 116.546 84.9984C116.974 85.2635 117.458 85.3961 117.999 85.3961ZM127.383 87.9286L134.274 74.2922V74.1786H126.246V71.3052H137.91V74.2192L131.011 87.9286H127.383ZM146.185 88.1558C144.935 88.1558 143.823 87.9529 142.849 87.5471C141.881 87.1358 141.12 86.5758 140.568 85.8669C140.016 85.158 139.74 84.3544 139.74 83.4562C139.74 82.7635 139.897 82.1277 140.211 81.5487C140.531 80.9643 140.963 80.48 141.51 80.0958C142.056 79.7062 142.668 79.4573 143.344 79.349V79.2354C142.457 79.0568 141.737 78.6266 141.185 77.9448C140.633 77.2576 140.357 76.4594 140.357 75.5503C140.357 74.6899 140.609 73.9242 141.112 73.2532C141.615 72.5768 142.305 72.0465 143.182 71.6623C144.064 71.2727 145.065 71.0779 146.185 71.0779C147.305 71.0779 148.304 71.2727 149.18 71.6623C150.062 72.0519 150.755 72.585 151.258 73.2614C151.762 73.9324 152.016 74.6953 152.021 75.5503C152.016 76.4648 151.735 77.263 151.177 77.9448C150.62 78.6266 149.906 79.0568 149.034 79.2354V79.349C149.7 79.4573 150.303 79.7062 150.844 80.0958C151.391 80.48 151.824 80.9643 152.143 81.5487C152.468 82.1277 152.633 82.7635 152.638 83.4562C152.633 84.3544 152.354 85.158 151.802 85.8669C151.25 86.5758 150.487 87.1358 149.513 87.5471C148.545 87.9529 147.435 88.1558 146.185 88.1558ZM146.185 85.5747C146.743 85.5747 147.23 85.4746 147.646 85.2744C148.063 85.0687 148.388 84.7873 148.62 84.4302C148.858 84.0676 148.977 83.651 148.977 83.1802C148.977 82.6986 148.856 82.2738 148.612 81.9058C148.369 81.5325 148.039 81.2403 147.622 81.0292C147.205 80.8128 146.726 80.7045 146.185 80.7045C145.65 80.7045 145.171 80.8128 144.749 81.0292C144.327 81.2403 143.994 81.5325 143.75 81.9058C143.512 82.2738 143.393 82.6986 143.393 83.1802C143.393 83.651 143.509 84.0676 143.742 84.4302C143.975 84.7873 144.302 85.0687 144.724 85.2744C145.146 85.4746 145.633 85.5747 146.185 85.5747ZM146.185 78.1477C146.651 78.1477 147.065 78.053 147.427 77.8636C147.79 77.6742 148.074 77.4118 148.279 77.0763C148.485 76.7408 148.588 76.3539 148.588 75.9156C148.588 75.4827 148.485 75.1039 148.279 74.7792C148.074 74.4491 147.792 74.1921 147.435 74.0081C147.078 73.8187 146.661 73.724 146.185 73.724C145.714 73.724 145.298 73.8187 144.935 74.0081C144.573 74.1921 144.289 74.4491 144.083 74.7792C143.883 75.1039 143.783 75.4827 143.783 75.9156C143.783 76.3539 143.885 76.7408 144.091 77.0763C144.297 77.4118 144.581 77.6742 144.943 77.8636C145.306 78.053 145.72 78.1477 146.185 78.1477ZM161.11 71.0779C161.965 71.0779 162.788 71.2213 163.578 71.5081C164.373 71.7949 165.082 72.2522 165.704 72.8799C166.332 73.5076 166.827 74.3409 167.19 75.3799C167.558 76.4134 167.744 77.6824 167.75 79.1867C167.75 80.599 167.59 81.8598 167.271 82.9692C166.957 84.0731 166.505 85.0119 165.915 85.7857C165.326 86.5595 164.614 87.1494 163.781 87.5552C162.947 87.9556 162.017 88.1558 160.988 88.1558C159.879 88.1558 158.9 87.9421 158.05 87.5146C157.201 87.0817 156.516 86.4946 155.997 85.7532C155.482 85.0065 155.171 84.1677 155.063 83.237H158.529C158.664 83.8431 158.948 84.3139 159.381 84.6494C159.814 84.9794 160.35 85.1445 160.988 85.1445C162.071 85.1445 162.893 84.6737 163.456 83.7321C164.019 82.7852 164.303 81.4892 164.308 79.8442H164.195C163.946 80.3312 163.61 80.7505 163.188 81.1023C162.766 81.4486 162.282 81.7165 161.735 81.9058C161.194 82.0952 160.618 82.1899 160.006 82.1899C159.027 82.1899 158.153 81.96 157.385 81.5C156.616 81.04 156.01 80.4069 155.566 79.6007C155.123 78.7944 154.901 77.8745 154.901 76.8409C154.895 75.7262 155.152 74.7332 155.672 73.862C156.191 72.9908 156.916 72.309 157.847 71.8166C158.783 71.3187 159.871 71.0725 161.11 71.0779ZM161.135 73.8377C160.588 73.8377 160.101 73.9675 159.674 74.2273C159.251 74.487 158.916 74.836 158.667 75.2744C158.424 75.7127 158.304 76.2024 158.31 76.7435C158.31 77.29 158.429 77.7825 158.667 78.2208C158.911 78.6537 159.241 79 159.657 79.2597C160.079 79.5141 160.561 79.6412 161.102 79.6412C161.508 79.6412 161.884 79.5655 162.23 79.414C162.577 79.2624 162.877 79.0541 163.131 78.789C163.391 78.5184 163.594 78.2073 163.74 77.8555C163.886 77.5038 163.959 77.1304 163.959 76.7354C163.954 76.2105 163.829 75.7289 163.586 75.2906C163.342 74.8523 163.007 74.5005 162.579 74.2354C162.152 73.9702 161.67 73.8377 161.135 73.8377ZM176.703 88.2938C175.307 88.2884 174.105 87.9448 173.099 87.263C172.098 86.5812 171.327 85.5936 170.786 84.3003C170.25 83.007 169.985 81.4513 169.99 79.6331C169.99 77.8203 170.258 76.2754 170.794 74.9984C171.335 73.7213 172.106 72.75 173.107 72.0844C174.113 71.4134 175.312 71.0779 176.703 71.0779C178.093 71.0779 179.289 71.4134 180.29 72.0844C181.297 72.7554 182.071 73.7294 182.612 75.0065C183.153 76.2781 183.421 77.8203 183.415 79.6331C183.415 81.4567 183.145 83.0152 182.604 84.3084C182.068 85.6017 181.3 86.5893 180.299 87.2711C179.297 87.9529 178.099 88.2938 176.703 88.2938ZM176.703 85.3799C177.655 85.3799 178.415 84.901 178.984 83.9432C179.552 82.9854 179.833 81.5487 179.828 79.6331C179.828 78.3723 179.698 77.3225 179.438 76.4838C179.184 75.645 178.821 75.0146 178.35 74.5925C177.885 74.1705 177.336 73.9594 176.703 73.9594C175.756 73.9594 174.998 74.4329 174.43 75.3799C173.862 76.3268 173.575 77.7446 173.57 79.6331C173.57 80.9102 173.697 81.9762 173.951 82.8312C174.211 83.6807 174.576 84.3193 175.047 84.7468C175.518 85.1688 176.07 85.3799 176.703 85.3799ZM193.154 71.3052V87.9286H189.639V74.6412H189.542L185.735 77.0276V73.9107L189.85 71.3052H193.154ZM197.105 87.9286V85.3961L203.022 79.9172C203.525 79.4302 203.947 78.9919 204.288 78.6023C204.634 78.2127 204.897 77.8312 205.075 77.4578C205.254 77.079 205.343 76.6705 205.343 76.2321C205.343 75.7451 205.232 75.3258 205.01 74.974C204.788 74.6169 204.485 74.3436 204.101 74.1542C203.717 73.9594 203.281 73.862 202.794 73.862C202.286 73.862 201.842 73.9648 201.463 74.1705C201.084 74.3761 200.792 74.671 200.587 75.0552C200.381 75.4394 200.278 75.8966 200.278 76.4269H196.942C196.942 75.3393 197.188 74.395 197.681 73.5942C198.173 72.7933 198.863 72.1737 199.751 71.7354C200.638 71.2971 201.661 71.0779 202.819 71.0779C204.009 71.0779 205.046 71.289 205.928 71.711C206.815 72.1277 207.505 72.7067 207.997 73.4481C208.49 74.1894 208.736 75.039 208.736 75.9968C208.736 76.6245 208.612 77.244 208.363 77.8555C208.119 78.467 207.684 79.1461 207.056 79.8929C206.428 80.6342 205.543 81.5244 204.402 82.5633L201.975 84.9416V85.0552H208.955V87.9286H197.105Z" fill="#646464"/>
<path d="M5 58.3571C5 56.4636 6.53502 54.9286 8.42857 54.9286H165L187.857 104.071H8.42857C6.53503 104.071 5 102.536 5 100.643V58.3571Z" fill="#C4C4C4"/>
<path d="M29.2011 76.086C29.1362 75.4313 28.8575 74.9226 28.365 74.5601C27.8726 74.1975 27.2043 74.0162 26.3602 74.0162C25.7866 74.0162 25.3023 74.0974 24.9073 74.2597C24.5122 74.4167 24.2092 74.6358 23.9982 74.9172C23.7925 75.1986 23.6897 75.5179 23.6897 75.875C23.6789 76.1726 23.7411 76.4324 23.8764 76.6542C24.0171 76.8761 24.2092 77.0682 24.4527 77.2305C24.6962 77.3874 24.9776 77.5254 25.2969 77.6445C25.6161 77.7581 25.957 77.8555 26.3196 77.9367L27.8131 78.2938C28.5382 78.4562 29.2038 78.6726 29.8099 78.9432C30.4159 79.2137 30.9408 79.5465 31.3845 79.9416C31.8283 80.3366 32.1719 80.8019 32.4154 81.3377C32.6643 81.8734 32.7915 82.4876 32.7969 83.1802C32.7915 84.1975 32.5317 85.0795 32.0176 85.8263C31.509 86.5676 30.7731 87.1439 29.8099 87.5552C28.8521 87.961 27.6968 88.164 26.3439 88.164C25.002 88.164 23.8331 87.9583 22.8375 87.5471C21.8472 87.1358 21.0734 86.5271 20.516 85.7208C19.9641 84.9091 19.6746 83.9053 19.6475 82.7094H23.0485C23.0864 83.2668 23.246 83.7321 23.5274 84.1055C23.8142 84.4735 24.1957 84.7522 24.6719 84.9416C25.1535 85.1255 25.6973 85.2175 26.3034 85.2175C26.8986 85.2175 27.4154 85.131 27.8537 84.9578C28.2974 84.7846 28.641 84.5438 28.8845 84.2354C29.128 83.9269 29.2498 83.5725 29.2498 83.1721C29.2498 82.7987 29.1389 82.4848 28.917 82.2305C28.7005 81.9762 28.3813 81.7597 27.9592 81.5812C27.5425 81.4026 27.0312 81.2403 26.4251 81.0942L24.615 80.6396C23.2135 80.2987 22.1069 79.7657 21.2952 79.0406C20.4836 78.3155 20.0804 77.3387 20.0858 76.1104C20.0804 75.1039 20.3483 74.2246 20.8894 73.4724C21.4359 72.7202 22.1854 72.1331 23.1378 71.711C24.0902 71.289 25.1724 71.0779 26.3845 71.0779C27.6183 71.0779 28.6951 71.289 29.615 71.711C30.5404 72.1331 31.2601 72.7202 31.7741 73.4724C32.2882 74.2246 32.5534 75.0958 32.5696 76.086H29.2011ZM35.1609 87.9286V71.3052H38.6755V78.164H45.8103V71.3052H49.3168V87.9286H45.8103V81.0617H38.6755V87.9286H35.1609ZM67.4905 79.6169C67.4905 81.4297 67.1468 82.9719 66.4596 84.2435C65.7778 85.5152 64.8471 86.4865 63.6674 87.1575C62.4932 87.8231 61.1728 88.1558 59.7064 88.1558C58.2291 88.1558 56.9033 87.8203 55.7291 87.1494C54.5548 86.4784 53.6268 85.507 52.945 84.2354C52.2632 82.9637 51.9223 81.4242 51.9223 79.6169C51.9223 77.8041 52.2632 76.2619 52.945 74.9903C53.6268 73.7186 54.5548 72.75 55.7291 72.0844C56.9033 71.4134 58.2291 71.0779 59.7064 71.0779C61.1728 71.0779 62.4932 71.4134 63.6674 72.0844C64.8471 72.75 65.7778 73.7186 66.4596 74.9903C67.1468 76.2619 67.4905 77.8041 67.4905 79.6169ZM63.9271 79.6169C63.9271 78.4426 63.7513 77.4524 63.3995 76.6461C63.0532 75.8398 62.5635 75.2284 61.9304 74.8117C61.2973 74.395 60.5559 74.1867 59.7064 74.1867C58.8568 74.1867 58.1155 74.395 57.4823 74.8117C56.8492 75.2284 56.3568 75.8398 56.0051 76.6461C55.6587 77.4524 55.4856 78.4426 55.4856 79.6169C55.4856 80.7911 55.6587 81.7814 56.0051 82.5877C56.3568 83.3939 56.8492 84.0054 57.4823 84.4221C58.1155 84.8387 58.8568 85.0471 59.7064 85.0471C60.5559 85.0471 61.2973 84.8387 61.9304 84.4221C62.5635 84.0054 63.0532 83.3939 63.3995 82.5877C63.7513 81.7814 63.9271 80.7911 63.9271 79.6169ZM73.2108 87.9286L68.4543 71.3052H72.2936L75.0452 82.8555H75.1832L78.2189 71.3052H81.5063L84.5339 82.8799H84.68L87.4316 71.3052H91.2709L86.5144 87.9286H83.0891L79.9235 77.0601H79.7936L76.6361 87.9286H73.2108ZM113.109 77.125H109.554C109.489 76.665 109.357 76.2565 109.156 75.8994C108.956 75.5368 108.699 75.2284 108.385 74.974C108.071 74.7197 107.709 74.5249 107.298 74.3896C106.892 74.2543 106.451 74.1867 105.975 74.1867C105.114 74.1867 104.365 74.4004 103.726 74.8279C103.088 75.25 102.593 75.8669 102.241 76.6786C101.889 77.4848 101.713 78.4643 101.713 79.6169C101.713 80.8019 101.889 81.7976 102.241 82.6039C102.598 83.4102 103.096 84.0189 103.734 84.4302C104.373 84.8415 105.112 85.0471 105.95 85.0471C106.421 85.0471 106.857 84.9848 107.257 84.8604C107.663 84.7359 108.023 84.5547 108.337 84.3166C108.65 84.0731 108.91 83.7781 109.116 83.4318C109.327 83.0855 109.473 82.6905 109.554 82.2468L113.109 82.263C113.017 83.026 112.787 83.7619 112.419 84.4708C112.057 85.1742 111.567 85.8047 110.95 86.362C110.339 86.914 109.608 87.3523 108.759 87.6769C107.915 87.9962 106.959 88.1558 105.893 88.1558C104.411 88.1558 103.085 87.8203 101.916 87.1494C100.753 86.4784 99.8329 85.507 99.1564 84.2354C98.4854 82.9637 98.1499 81.4242 98.1499 79.6169C98.1499 77.8041 98.4909 76.2619 99.1727 74.9903C99.8545 73.7186 100.78 72.75 101.949 72.0844C103.117 71.4134 104.432 71.0779 105.893 71.0779C106.857 71.0779 107.75 71.2132 108.572 71.4838C109.4 71.7543 110.133 72.1494 110.772 72.6688C111.41 73.1829 111.93 73.8133 112.33 74.5601C112.736 75.3068 112.996 76.1618 113.109 77.125ZM130.906 79.6169C130.906 81.4297 130.562 82.9719 129.875 84.2435C129.193 85.5152 128.262 86.4865 127.083 87.1575C125.908 87.8231 124.588 88.1558 123.122 88.1558C121.644 88.1558 120.319 87.8203 119.144 87.1494C117.97 86.4784 117.042 85.507 116.36 84.2354C115.678 82.9637 115.337 81.4242 115.337 79.6169C115.337 77.8041 115.678 76.2619 116.36 74.9903C117.042 73.7186 117.97 72.75 119.144 72.0844C120.319 71.4134 121.644 71.0779 123.122 71.0779C124.588 71.0779 125.908 71.4134 127.083 72.0844C128.262 72.75 129.193 73.7186 129.875 74.9903C130.562 76.2619 130.906 77.8041 130.906 79.6169ZM127.342 79.6169C127.342 78.4426 127.166 77.4524 126.815 76.6461C126.468 75.8398 125.979 75.2284 125.346 74.8117C124.712 74.395 123.971 74.1867 123.122 74.1867C122.272 74.1867 121.531 74.395 120.898 74.8117C120.264 75.2284 119.772 75.8398 119.42 76.6461C119.074 77.4524 118.901 78.4426 118.901 79.6169C118.901 80.7911 119.074 81.7814 119.42 82.5877C119.772 83.3939 120.264 84.0054 120.898 84.4221C121.531 84.8387 122.272 85.0471 123.122 85.0471C123.971 85.0471 124.712 84.8387 125.346 84.4221C125.979 84.0054 126.468 83.3939 126.815 82.5877C127.166 81.7814 127.342 80.7911 127.342 79.6169ZM139.402 87.9286H133.509V71.3052H139.451C141.123 71.3052 142.562 71.638 143.769 72.3036C144.976 72.9637 145.904 73.9134 146.553 75.1526C147.208 76.3918 147.535 77.8745 147.535 79.6007C147.535 81.3323 147.208 82.8203 146.553 84.0649C145.904 85.3095 144.97 86.2646 143.753 86.9302C142.54 87.5958 141.09 87.9286 139.402 87.9286ZM137.024 84.9172H139.256C140.295 84.9172 141.169 84.7332 141.878 84.3653C142.592 83.9919 143.128 83.4156 143.485 82.6364C143.847 81.8517 144.029 80.8398 144.029 79.6007C144.029 78.3723 143.847 77.3685 143.485 76.5893C143.128 75.8101 142.595 75.2365 141.886 74.8685C141.177 74.5005 140.303 74.3166 139.264 74.3166H137.024V84.9172ZM150.139 87.9286V71.3052H161.34V74.2029H153.653V78.164H160.764V81.0617H153.653V85.0308H161.372V87.9286H150.139Z" fill="#E8E8E8"/>
<defs>
<pattern id="pattern0_2632_2016" patternUnits="userSpaceOnUse" viewBox="109.119 142.618 84.4808 44.2847" width="20.114463793938249%" height="51.493863382322459%" x="-0.000145572" patternContentUnits="objectBoundingBox">
<g id="pattern0_2632_2016_inner">
<line x1="214.226" y1="163.028" x2="182.707" y2="247.328" stroke="#A7A7A7"/>
</g>
<use xlink:href="#pattern0_2632_2016_inner" transform="translate(15.7596 0)"/>
<use xlink:href="#pattern0_2632_2016_inner" transform="translate(7.87982 42.1501)"/>
<use xlink:href="#pattern0_2632_2016_inner" transform="translate(23.6395 42.1501)"/>
<use xlink:href="#pattern0_2632_2016_inner" transform="translate(0 84.3003)"/>
<use xlink:href="#pattern0_2632_2016_inner" transform="translate(15.7596 84.3003)"/>
<use xlink:href="#pattern0_2632_2016_inner" transform="translate(0 126.45)"/>
<use xlink:href="#pattern0_2632_2016_inner" transform="translate(15.7596 126.45)"/>
</pattern></defs>
</svg>
