<svg width="250" height="160" viewBox="0 0 250 160" fill="none" xmlns="http://www.w3.org/2000/svg" xmlns:xlink="http://www.w3.org/1999/xlink">
<rect x="5" y="54.9286" width="240" height="49.1429" rx="3.42857" fill="url(#pattern0_2632_2032)"/>
<path d="M47.9974 71.3052V87.9286H44.4828V74.6412H44.3854L40.5785 77.0276V73.9107L44.6938 71.3052H47.9974ZM51.9483 87.9286V85.3961L57.8655 79.9172C58.3687 79.4302 58.7908 78.9919 59.1317 78.6023C59.478 78.2127 59.7405 77.8312 59.919 77.4578C60.0976 77.079 60.1869 76.6705 60.1869 76.2321C60.1869 75.7451 60.076 75.3258 59.8541 74.974C59.6323 74.6169 59.3292 74.3436 58.945 74.1542C58.5608 73.9594 58.1252 73.862 57.6382 73.862C57.1295 73.862 56.6858 73.9648 56.307 74.1705C55.9282 74.3761 55.636 74.671 55.4304 75.0552C55.2248 75.4394 55.122 75.8966 55.122 76.4269H51.7859C51.7859 75.3393 52.0321 74.395 52.5246 73.5942C53.017 72.7933 53.7069 72.1737 54.5944 71.7354C55.4818 71.2971 56.5045 71.0779 57.6626 71.0779C58.853 71.0779 59.8893 71.289 60.7713 71.711C61.6588 72.1277 62.3487 72.7067 62.8411 73.4481C63.3336 74.1894 63.5798 75.039 63.5798 75.9968C63.5798 76.6245 63.4553 77.244 63.2064 77.8555C62.9629 78.467 62.5273 79.1461 61.8996 79.8929C61.2719 80.6342 60.3871 81.5244 59.2453 82.5633L56.8184 84.9416V85.0552H63.7989V87.9286H51.9483ZM72.4901 88.1558C71.2779 88.1558 70.1984 87.9475 69.2514 87.5308C68.3099 87.1088 67.5658 86.5298 67.0193 85.7938C66.4782 85.0525 66.1995 84.1975 66.1833 83.2289H69.7222C69.7439 83.6347 69.8764 83.9919 70.1199 84.3003C70.3689 84.6034 70.6989 84.8387 71.1102 85.0065C71.5215 85.1742 71.9841 85.2581 72.4982 85.2581C73.0339 85.2581 73.5074 85.1634 73.9186 84.974C74.3299 84.7846 74.6519 84.5222 74.8846 84.1867C75.1172 83.8512 75.2336 83.4643 75.2336 83.026C75.2336 82.5823 75.1091 82.1899 74.8602 81.849C74.6167 81.5027 74.265 81.2321 73.805 81.0373C73.3505 80.8425 72.8093 80.7451 72.1816 80.7451H70.6313V78.164H72.1816C72.7119 78.164 73.18 78.072 73.5859 77.888C73.9971 77.704 74.3164 77.4497 74.5436 77.125C74.7709 76.7949 74.8846 76.4107 74.8846 75.9724C74.8846 75.5557 74.7844 75.1905 74.5842 74.8766C74.3894 74.5574 74.1134 74.3084 73.7563 74.1299C73.4046 73.9513 72.9933 73.862 72.5225 73.862C72.0463 73.862 71.6107 73.9486 71.2157 74.1218C70.8207 74.2895 70.5041 74.5303 70.266 74.8442C70.0279 75.158 69.9008 75.526 69.8846 75.9481H66.516C66.5323 74.9903 66.8055 74.1461 67.3359 73.4156C67.8662 72.6851 68.5804 72.1142 69.4787 71.7029C70.3824 71.2863 71.4024 71.0779 72.5388 71.0779C73.686 71.0779 74.6897 71.2863 75.5501 71.7029C76.4105 72.1196 77.0788 72.6824 77.555 73.3912C78.0366 74.0947 78.2747 74.8847 78.2693 75.7614C78.2747 76.6921 77.9852 77.4686 77.4008 78.0909C76.8218 78.7132 76.0669 79.1082 75.1362 79.276V79.4058C76.3591 79.5628 77.2899 79.9876 77.9284 80.6802C78.5723 81.3674 78.8916 82.2278 78.8862 83.2614C78.8916 84.2083 78.6183 85.0498 78.0664 85.7857C77.5198 86.5216 76.765 87.1006 75.8018 87.5227C74.8386 87.9448 73.7347 88.1558 72.4901 88.1558ZM81.1609 85.0065V82.2386L88.1009 71.3052H90.4872V75.1364H89.0749L84.6999 82.0601V82.1899H94.5619V85.0065H81.1609ZM89.1398 87.9286V84.1623L89.2048 82.9367V71.3052H92.5002V87.9286H89.1398ZM102.975 88.1558C101.828 88.1558 100.805 87.9448 99.9069 87.5227C99.014 87.1006 98.3051 86.5189 97.7802 85.7776C97.2554 85.0363 96.9821 84.1867 96.9604 83.2289H100.37C100.407 83.8728 100.678 84.395 101.181 84.7955C101.684 85.1959 102.282 85.3961 102.975 85.3961C103.527 85.3961 104.014 85.2744 104.436 85.0308C104.864 84.7819 105.196 84.4383 105.434 84C105.678 83.5563 105.8 83.0476 105.8 82.474C105.8 81.8896 105.675 81.3755 105.426 80.9318C105.183 80.4881 104.845 80.1418 104.412 79.8929C103.979 79.6439 103.484 79.5168 102.926 79.5114C102.439 79.5114 101.966 79.6115 101.506 79.8117C101.051 80.0119 100.697 80.2852 100.443 80.6315L97.3176 80.0714L98.1049 71.3052H108.267V74.1786H101.003L100.572 78.3425H100.67C100.962 77.9313 101.403 77.5904 101.993 77.3198C102.583 77.0492 103.243 76.914 103.973 76.914C104.975 76.914 105.867 77.1494 106.652 77.6201C107.437 78.0909 108.056 78.7376 108.511 79.5601C108.965 80.3772 109.19 81.3187 109.184 82.3847C109.19 83.5049 108.93 84.5005 108.405 85.3718C107.886 86.2376 107.158 86.9194 106.222 87.4172C105.291 87.9096 104.209 88.1558 102.975 88.1558ZM118.016 88.1558C117.161 88.1504 116.335 88.007 115.54 87.7256C114.75 87.4443 114.041 86.987 113.413 86.3539C112.786 85.7208 112.288 84.882 111.92 83.8377C111.557 82.7933 111.376 81.5108 111.376 79.9903C111.381 78.5942 111.541 77.3469 111.855 76.2484C112.174 75.1445 112.629 74.2083 113.219 73.4399C113.814 72.6715 114.525 72.0871 115.353 71.6867C116.181 71.2808 117.109 71.0779 118.137 71.0779C119.247 71.0779 120.226 71.2944 121.076 71.7273C121.925 72.1548 122.607 72.7365 123.121 73.4724C123.641 74.2083 123.954 75.0336 124.063 75.9481H120.597C120.462 75.369 120.177 74.9145 119.745 74.5844C119.312 74.2543 118.776 74.0893 118.137 74.0893C117.055 74.0893 116.233 74.5601 115.67 75.5016C115.112 76.4432 114.828 77.7229 114.818 79.3409H114.931C115.18 78.8485 115.516 78.4291 115.938 78.0828C116.365 77.7311 116.85 77.4632 117.391 77.2792C117.937 77.0898 118.513 76.9951 119.12 76.9951C120.104 76.9951 120.981 77.2278 121.749 77.6932C122.518 78.1531 123.124 78.7863 123.568 79.5925C124.011 80.3988 124.233 81.3214 124.233 82.3604C124.233 83.4859 123.971 84.487 123.446 85.3636C122.926 86.2403 122.199 86.9275 121.262 87.4253C120.332 87.9177 119.249 88.1613 118.016 88.1558ZM117.999 85.3961C118.541 85.3961 119.025 85.2662 119.452 85.0065C119.88 84.7468 120.215 84.395 120.459 83.9513C120.702 83.5076 120.824 83.0097 120.824 82.4578C120.824 81.9058 120.702 81.4107 120.459 80.9724C120.221 80.5341 119.891 80.1851 119.469 79.9253C119.046 79.6656 118.565 79.5357 118.024 79.5357C117.618 79.5357 117.242 79.6115 116.896 79.763C116.555 79.9145 116.254 80.1255 115.995 80.3961C115.74 80.6667 115.54 80.9805 115.394 81.3377C115.248 81.6894 115.175 82.0655 115.175 82.4659C115.175 83.0016 115.296 83.4913 115.54 83.9351C115.789 84.3788 116.124 84.7332 116.546 84.9984C116.974 85.2635 117.458 85.3961 117.999 85.3961ZM127.383 87.9286L134.274 74.2922V74.1786H126.246V71.3052H137.91V74.2192L131.011 87.9286H127.383ZM146.185 88.1558C144.935 88.1558 143.823 87.9529 142.849 87.5471C141.881 87.1358 141.12 86.5758 140.568 85.8669C140.016 85.158 139.74 84.3544 139.74 83.4562C139.74 82.7635 139.897 82.1277 140.211 81.5487C140.531 80.9643 140.963 80.48 141.51 80.0958C142.056 79.7062 142.668 79.4573 143.344 79.349V79.2354C142.457 79.0568 141.737 78.6266 141.185 77.9448C140.633 77.2576 140.357 76.4594 140.357 75.5503C140.357 74.6899 140.609 73.9242 141.112 73.2532C141.615 72.5768 142.305 72.0465 143.182 71.6623C144.064 71.2727 145.065 71.0779 146.185 71.0779C147.305 71.0779 148.304 71.2727 149.18 71.6623C150.062 72.0519 150.755 72.585 151.258 73.2614C151.762 73.9324 152.016 74.6953 152.021 75.5503C152.016 76.4648 151.735 77.263 151.177 77.9448C150.62 78.6266 149.906 79.0568 149.034 79.2354V79.349C149.7 79.4573 150.303 79.7062 150.844 80.0958C151.391 80.48 151.824 80.9643 152.143 81.5487C152.468 82.1277 152.633 82.7635 152.638 83.4562C152.633 84.3544 152.354 85.158 151.802 85.8669C151.25 86.5758 150.487 87.1358 149.513 87.5471C148.545 87.9529 147.435 88.1558 146.185 88.1558ZM146.185 85.5747C146.743 85.5747 147.23 85.4746 147.646 85.2744C148.063 85.0687 148.388 84.7873 148.62 84.4302C148.858 84.0676 148.977 83.651 148.977 83.1802C148.977 82.6986 148.856 82.2738 148.612 81.9058C148.369 81.5325 148.039 81.2403 147.622 81.0292C147.205 80.8128 146.726 80.7045 146.185 80.7045C145.65 80.7045 145.171 80.8128 144.749 81.0292C144.327 81.2403 143.994 81.5325 143.75 81.9058C143.512 82.2738 143.393 82.6986 143.393 83.1802C143.393 83.651 143.509 84.0676 143.742 84.4302C143.975 84.7873 144.302 85.0687 144.724 85.2744C145.146 85.4746 145.633 85.5747 146.185 85.5747ZM146.185 78.1477C146.651 78.1477 147.065 78.053 147.427 77.8636C147.79 77.6742 148.074 77.4118 148.279 77.0763C148.485 76.7408 148.588 76.3539 148.588 75.9156C148.588 75.4827 148.485 75.1039 148.279 74.7792C148.074 74.4491 147.792 74.1921 147.435 74.0081C147.078 73.8187 146.661 73.724 146.185 73.724C145.714 73.724 145.298 73.8187 144.935 74.0081C144.573 74.1921 144.289 74.4491 144.083 74.7792C143.883 75.1039 143.783 75.4827 143.783 75.9156C143.783 76.3539 143.885 76.7408 144.091 77.0763C144.297 77.4118 144.581 77.6742 144.943 77.8636C145.306 78.053 145.72 78.1477 146.185 78.1477ZM161.11 71.0779C161.965 71.0779 162.788 71.2213 163.578 71.5081C164.373 71.7949 165.082 72.2522 165.704 72.8799C166.332 73.5076 166.827 74.3409 167.19 75.3799C167.558 76.4134 167.744 77.6824 167.75 79.1867C167.75 80.599 167.59 81.8598 167.271 82.9692C166.957 84.0731 166.505 85.0119 165.915 85.7857C165.326 86.5595 164.614 87.1494 163.781 87.5552C162.947 87.9556 162.017 88.1558 160.988 88.1558C159.879 88.1558 158.9 87.9421 158.05 87.5146C157.201 87.0817 156.516 86.4946 155.997 85.7532C155.482 85.0065 155.171 84.1677 155.063 83.237H158.529C158.664 83.8431 158.948 84.3139 159.381 84.6494C159.814 84.9794 160.35 85.1445 160.988 85.1445C162.071 85.1445 162.893 84.6737 163.456 83.7321C164.019 82.7852 164.303 81.4892 164.308 79.8442H164.195C163.946 80.3312 163.61 80.7505 163.188 81.1023C162.766 81.4486 162.282 81.7165 161.735 81.9058C161.194 82.0952 160.618 82.1899 160.006 82.1899C159.027 82.1899 158.153 81.96 157.385 81.5C156.616 81.04 156.01 80.4069 155.566 79.6007C155.123 78.7944 154.901 77.8745 154.901 76.8409C154.895 75.7262 155.152 74.7332 155.672 73.862C156.191 72.9908 156.916 72.309 157.847 71.8166C158.783 71.3187 159.871 71.0725 161.11 71.0779ZM161.135 73.8377C160.588 73.8377 160.101 73.9675 159.674 74.2273C159.251 74.487 158.916 74.836 158.667 75.2744C158.424 75.7127 158.304 76.2024 158.31 76.7435C158.31 77.29 158.429 77.7825 158.667 78.2208C158.911 78.6537 159.241 79 159.657 79.2597C160.079 79.5141 160.561 79.6412 161.102 79.6412C161.508 79.6412 161.884 79.5655 162.23 79.414C162.577 79.2624 162.877 79.0541 163.131 78.789C163.391 78.5184 163.594 78.2073 163.74 77.8555C163.886 77.5038 163.959 77.1304 163.959 76.7354C163.954 76.2105 163.829 75.7289 163.586 75.2906C163.342 74.8523 163.007 74.5005 162.579 74.2354C162.152 73.9702 161.67 73.8377 161.135 73.8377ZM176.703 88.2938C175.307 88.2884 174.105 87.9448 173.099 87.263C172.098 86.5812 171.327 85.5936 170.786 84.3003C170.25 83.007 169.985 81.4513 169.99 79.6331C169.99 77.8203 170.258 76.2754 170.794 74.9984C171.335 73.7213 172.106 72.75 173.107 72.0844C174.113 71.4134 175.312 71.0779 176.703 71.0779C178.093 71.0779 179.289 71.4134 180.29 72.0844C181.297 72.7554 182.071 73.7294 182.612 75.0065C183.153 76.2781 183.421 77.8203 183.415 79.6331C183.415 81.4567 183.145 83.0152 182.604 84.3084C182.068 85.6017 181.3 86.5893 180.299 87.2711C179.297 87.9529 178.099 88.2938 176.703 88.2938ZM176.703 85.3799C177.655 85.3799 178.415 84.901 178.984 83.9432C179.552 82.9854 179.833 81.5487 179.828 79.6331C179.828 78.3723 179.698 77.3225 179.438 76.4838C179.184 75.645 178.821 75.0146 178.35 74.5925C177.885 74.1705 177.336 73.9594 176.703 73.9594C175.756 73.9594 174.998 74.4329 174.43 75.3799C173.862 76.3268 173.575 77.7446 173.57 79.6331C173.57 80.9102 173.697 81.9762 173.951 82.8312C174.211 83.6807 174.576 84.3193 175.047 84.7468C175.518 85.1688 176.07 85.3799 176.703 85.3799ZM193.154 71.3052V87.9286H189.639V74.6412H189.542L185.735 77.0276V73.9107L189.85 71.3052H193.154ZM197.105 87.9286V85.3961L203.022 79.9172C203.525 79.4302 203.947 78.9919 204.288 78.6023C204.634 78.2127 204.897 77.8312 205.075 77.4578C205.254 77.079 205.343 76.6705 205.343 76.2321C205.343 75.7451 205.232 75.3258 205.01 74.974C204.788 74.6169 204.485 74.3436 204.101 74.1542C203.717 73.9594 203.281 73.862 202.794 73.862C202.286 73.862 201.842 73.9648 201.463 74.1705C201.084 74.3761 200.792 74.671 200.587 75.0552C200.381 75.4394 200.278 75.8966 200.278 76.4269H196.942C196.942 75.3393 197.188 74.395 197.681 73.5942C198.173 72.7933 198.863 72.1737 199.751 71.7354C200.638 71.2971 201.661 71.0779 202.819 71.0779C204.009 71.0779 205.046 71.289 205.928 71.711C206.815 72.1277 207.505 72.7067 207.997 73.4481C208.49 74.1894 208.736 75.039 208.736 75.9968C208.736 76.6245 208.612 77.244 208.363 77.8555C208.119 78.467 207.684 79.1461 207.056 79.8929C206.428 80.6342 205.543 81.5244 204.402 82.5633L201.975 84.9416V85.0552H208.955V87.9286H197.105Z" fill="#646464"/>
<path d="M5 58.3571C5 56.4636 6.53502 54.9286 8.42857 54.9286L187.857 54.9286V104.071H8.42857C6.53503 104.071 5 102.536 5 100.643V58.3571Z" fill="#C4C4C4"/>
<path d="M34.9159 76.086C34.851 75.4313 34.5723 74.9226 34.0799 74.5601C33.5875 74.1975 32.9192 74.0162 32.075 74.0162C31.5014 74.0162 31.0171 74.0974 30.6221 74.2597C30.2271 74.4167 29.924 74.6358 29.713 74.9172C29.5074 75.1986 29.4046 75.5179 29.4046 75.875C29.3937 76.1726 29.456 76.4324 29.5913 76.6542C29.7319 76.8761 29.924 77.0682 30.1676 77.2305C30.4111 77.3874 30.6924 77.5254 31.0117 77.6445C31.331 77.7581 31.6719 77.8555 32.0344 77.9367L33.5279 78.2938C34.2531 78.4562 34.9186 78.6726 35.5247 78.9432C36.1308 79.2137 36.6557 79.5465 37.0994 79.9416C37.5431 80.3366 37.8867 80.8019 38.1302 81.3377C38.3791 81.8734 38.5063 82.4876 38.5117 83.1802C38.5063 84.1975 38.2466 85.0795 37.7325 85.8263C37.2238 86.5676 36.4879 87.1439 35.5247 87.5552C34.5669 87.961 33.4116 88.164 32.0588 88.164C30.7168 88.164 29.548 87.9583 28.5523 87.5471C27.562 87.1358 26.7882 86.5271 26.2309 85.7208C25.6789 84.9091 25.3894 83.9053 25.3624 82.7094H28.7633C28.8012 83.2668 28.9608 83.7321 29.2422 84.1055C29.529 84.4735 29.9105 84.7522 30.3867 84.9416C30.8683 85.1255 31.4121 85.2175 32.0182 85.2175C32.6134 85.2175 33.1302 85.131 33.5685 84.9578C34.0123 84.7846 34.3559 84.5438 34.5994 84.2354C34.8429 83.9269 34.9646 83.5725 34.9646 83.1721C34.9646 82.7987 34.8537 82.4848 34.6318 82.2305C34.4154 81.9762 34.0961 81.7597 33.674 81.5812C33.2574 81.4026 32.746 81.2403 32.14 81.0942L30.3299 80.6396C28.9284 80.2987 27.8218 79.7657 27.0101 79.0406C26.1984 78.3155 25.7953 77.3387 25.8007 76.1104C25.7953 75.1039 26.0631 74.2246 26.6042 73.4724C27.1508 72.7202 27.9002 72.1331 28.8526 71.711C29.805 71.289 30.8873 71.0779 32.0994 71.0779C33.3331 71.0779 34.41 71.289 35.3299 71.711C36.2552 72.1331 36.9749 72.7202 37.489 73.4724C38.0031 74.2246 38.2682 75.0958 38.2844 76.086H34.9159ZM40.8758 87.9286V71.3052H44.3904V78.164H51.5251V71.3052H55.0316V87.9286H51.5251V81.0617H44.3904V87.9286H40.8758ZM73.2053 79.6169C73.2053 81.4297 72.8617 82.9719 72.1745 84.2435C71.4926 85.5152 70.5619 86.4865 69.3822 87.1575C68.208 87.8231 66.8877 88.1558 65.4212 88.1558C63.9439 88.1558 62.6182 87.8203 61.4439 87.1494C60.2697 86.4784 59.3417 85.507 58.6598 84.2354C57.978 82.9637 57.6371 81.4242 57.6371 79.6169C57.6371 77.8041 57.978 76.2619 58.6598 74.9903C59.3417 73.7186 60.2697 72.75 61.4439 72.0844C62.6182 71.4134 63.9439 71.0779 65.4212 71.0779C66.8877 71.0779 68.208 71.4134 69.3822 72.0844C70.5619 72.75 71.4926 73.7186 72.1745 74.9903C72.8617 76.2619 73.2053 77.8041 73.2053 79.6169ZM69.642 79.6169C69.642 78.4426 69.4661 77.4524 69.1144 76.6461C68.7681 75.8398 68.2783 75.2284 67.6452 74.8117C67.0121 74.395 66.2708 74.1867 65.4212 74.1867C64.5716 74.1867 63.8303 74.395 63.1972 74.8117C62.5641 75.2284 62.0716 75.8398 61.7199 76.6461C61.3736 77.4524 61.2004 78.4426 61.2004 79.6169C61.2004 80.7911 61.3736 81.7814 61.7199 82.5877C62.0716 83.3939 62.5641 84.0054 63.1972 84.4221C63.8303 84.8387 64.5716 85.0471 65.4212 85.0471C66.2708 85.0471 67.0121 84.8387 67.6452 84.4221C68.2783 84.0054 68.7681 83.3939 69.1144 82.5877C69.4661 81.7814 69.642 80.7911 69.642 79.6169ZM78.9257 87.9286L74.1692 71.3052H78.0085L80.7601 82.8555H80.8981L83.9338 71.3052H87.2211L90.2487 82.8799H90.3948L93.1464 71.3052H96.9857L92.2292 87.9286H88.8039L85.6383 77.0601H85.5085L82.351 87.9286H78.9257ZM118.824 77.125H115.269C115.204 76.665 115.072 76.2565 114.871 75.8994C114.671 75.5368 114.414 75.2284 114.1 74.974C113.786 74.7197 113.424 74.5249 113.013 74.3896C112.607 74.2543 112.166 74.1867 111.689 74.1867C110.829 74.1867 110.08 74.4004 109.441 74.8279C108.803 75.25 108.307 75.8669 107.956 76.6786C107.604 77.4848 107.428 78.4643 107.428 79.6169C107.428 80.8019 107.604 81.7976 107.956 82.6039C108.313 83.4102 108.811 84.0189 109.449 84.4302C110.088 84.8415 110.826 85.0471 111.665 85.0471C112.136 85.0471 112.572 84.9848 112.972 84.8604C113.378 84.7359 113.738 84.5547 114.051 84.3166C114.365 84.0731 114.625 83.7781 114.831 83.4318C115.042 83.0855 115.188 82.6905 115.269 82.2468L118.824 82.263C118.732 83.026 118.502 83.7619 118.134 84.4708C117.772 85.1742 117.282 85.8047 116.665 86.362C116.054 86.914 115.323 87.3523 114.474 87.6769C113.629 87.9962 112.674 88.1558 111.608 88.1558C110.126 88.1558 108.8 87.8203 107.631 87.1494C106.468 86.4784 105.548 85.507 104.871 84.2354C104.2 82.9637 103.865 81.4242 103.865 79.6169C103.865 77.8041 104.206 76.2619 104.888 74.9903C105.569 73.7186 106.495 72.75 107.663 72.0844C108.832 71.4134 110.147 71.0779 111.608 71.0779C112.572 71.0779 113.464 71.2132 114.287 71.4838C115.115 71.7543 115.848 72.1494 116.487 72.6688C117.125 73.1829 117.645 73.8133 118.045 74.5601C118.451 75.3068 118.711 76.1618 118.824 77.125ZM136.62 79.6169C136.62 81.4297 136.277 82.9719 135.59 84.2435C134.908 85.5152 133.977 86.4865 132.797 87.1575C131.623 87.8231 130.303 88.1558 128.836 88.1558C127.359 88.1558 126.033 87.8203 124.859 87.1494C123.685 86.4784 122.757 85.507 122.075 84.2354C121.393 82.9637 121.052 81.4242 121.052 79.6169C121.052 77.8041 121.393 76.2619 122.075 74.9903C122.757 73.7186 123.685 72.75 124.859 72.0844C126.033 71.4134 127.359 71.0779 128.836 71.0779C130.303 71.0779 131.623 71.4134 132.797 72.0844C133.977 72.75 134.908 73.7186 135.59 74.9903C136.277 76.2619 136.62 77.8041 136.62 79.6169ZM133.057 79.6169C133.057 78.4426 132.881 77.4524 132.53 76.6461C132.183 75.8398 131.694 75.2284 131.06 74.8117C130.427 74.395 129.686 74.1867 128.836 74.1867C127.987 74.1867 127.245 74.395 126.612 74.8117C125.979 75.2284 125.487 75.8398 125.135 76.6461C124.789 77.4524 124.616 78.4426 124.616 79.6169C124.616 80.7911 124.789 81.7814 125.135 82.5877C125.487 83.3939 125.979 84.0054 126.612 84.4221C127.245 84.8387 127.987 85.0471 128.836 85.0471C129.686 85.0471 130.427 84.8387 131.06 84.4221C131.694 84.0054 132.183 83.3939 132.53 82.5877C132.881 81.7814 133.057 80.7911 133.057 79.6169ZM145.117 87.9286H139.224V71.3052H145.166C146.838 71.3052 148.277 71.638 149.484 72.3036C150.69 72.9637 151.618 73.9134 152.268 75.1526C152.923 76.3918 153.25 77.8745 153.25 79.6007C153.25 81.3323 152.923 82.8203 152.268 84.0649C151.618 85.3095 150.685 86.2646 149.467 86.9302C148.255 87.5958 146.805 87.9286 145.117 87.9286ZM142.739 84.9172H144.971C146.01 84.9172 146.884 84.7332 147.592 84.3653C148.307 83.9919 148.842 83.4156 149.2 82.6364C149.562 81.8517 149.743 80.8398 149.743 79.6007C149.743 78.3723 149.562 77.3685 149.2 76.5893C148.842 75.8101 148.309 75.2365 147.601 74.8685C146.892 74.5005 146.018 74.3166 144.979 74.3166H142.739V84.9172ZM155.853 87.9286V71.3052H167.055V74.2029H159.368V78.164H166.478V81.0617H159.368V85.0308H167.087V87.9286H155.853Z" fill="#E8E8E8"/>
<defs>
<pattern id="pattern0_2632_2032" patternUnits="userSpaceOnUse" viewBox="-165.881 142.618 84.4808 44.2847" width="20.114463793938249%" height="51.493863382322459%" x="-0.000145572" patternContentUnits="objectBoundingBox">
<g id="pattern0_2632_2032_inner">
<line x1="-60.7739" y1="163.028" x2="-92.2931" y2="247.328" stroke="#A7A7A7"/>
</g>
<use xlink:href="#pattern0_2632_2032_inner" transform="translate(15.7596 0)"/>
<use xlink:href="#pattern0_2632_2032_inner" transform="translate(7.87982 42.1501)"/>
<use xlink:href="#pattern0_2632_2032_inner" transform="translate(23.6395 42.1501)"/>
<use xlink:href="#pattern0_2632_2032_inner" transform="translate(0 84.3003)"/>
<use xlink:href="#pattern0_2632_2032_inner" transform="translate(15.7596 84.3003)"/>
<use xlink:href="#pattern0_2632_2032_inner" transform="translate(0 126.45)"/>
<use xlink:href="#pattern0_2632_2032_inner" transform="translate(15.7596 126.45)"/>
</pattern></defs>
</svg>
