<svg width="250" height="160" viewBox="0 0 250 160" fill="none" xmlns="http://www.w3.org/2000/svg">
<rect x="5" y="55.9286" width="240" height="49.1429" rx="3.42857" fill="#A7A7A7"/>
<path d="M5 59.3571C5 57.4636 6.53502 55.9286 8.42857 55.9286H54.1429V105.071H8.42857C6.53503 105.071 5 103.536 5 101.643V59.3571Z" fill="#646464"/>
<path d="M33.5717 73.0714V75.3571M33.5717 79.9286V82.2143M33.5717 86.7857V89.0714M22.1431 73.0714H38.1431C38.7493 73.0714 39.3307 73.3122 39.7594 73.7409C40.188 74.1696 40.4288 74.7509 40.4288 75.3571V78.7857C39.8226 78.7857 39.2413 79.0265 38.8126 79.4552C38.384 79.8838 38.1431 80.4652 38.1431 81.0714C38.1431 81.6776 38.384 82.259 38.8126 82.6877C39.2413 83.1163 39.8226 83.3571 40.4288 83.3571V86.7857C40.4288 87.3919 40.188 87.9733 39.7594 88.402C39.3307 88.8306 38.7493 89.0714 38.1431 89.0714H22.1431C21.5369 89.0714 20.9555 88.8306 20.5269 88.402C20.0982 87.9733 19.8574 87.3919 19.8574 86.7857V83.3571C20.4636 83.3571 21.045 83.1163 21.4737 82.6877C21.9023 82.259 22.1431 81.6776 22.1431 81.0714C22.1431 80.4652 21.9023 79.8838 21.4737 79.4552C21.045 79.0265 20.4636 78.7857 19.8574 78.7857V75.3571C19.8574 74.7509 20.0982 74.1696 20.5269 73.7409C20.9555 73.3122 21.5369 73.0714 22.1431 73.0714Z" stroke="#E8E8E8" stroke-width="2.28571" stroke-linecap="round" stroke-linejoin="round"/>
<path d="M88.6298 77.086C88.5649 76.4313 88.2862 75.9226 87.7938 75.5601C87.3013 75.1975 86.633 75.0162 85.7889 75.0162C85.2153 75.0162 84.731 75.0974 84.336 75.2597C83.9409 75.4167 83.6379 75.6358 83.4269 75.9172C83.2212 76.1986 83.1184 76.5179 83.1184 76.875C83.1076 77.1726 83.1698 77.4324 83.3051 77.6542C83.4458 77.8761 83.6379 78.0682 83.8814 78.2305C84.1249 78.3874 84.4063 78.5254 84.7256 78.6445C85.0448 78.7581 85.3858 78.8555 85.7483 78.9367L87.2418 79.2938C87.9669 79.4562 88.6325 79.6726 89.2386 79.9432C89.8446 80.2137 90.3695 80.5465 90.8132 80.9416C91.257 81.3366 91.6006 81.802 91.8441 82.3377C92.093 82.8734 92.2202 83.4876 92.2256 84.1802C92.2202 85.1975 91.9604 86.0795 91.4464 86.8263C90.9377 87.5676 90.2018 88.1439 89.2386 88.5552C88.2808 88.961 87.1255 89.164 85.7727 89.164C84.4307 89.164 83.2618 88.9583 82.2662 88.5471C81.2759 88.1358 80.5021 87.5271 79.9447 86.7208C79.3928 85.9091 79.1033 84.9053 79.0762 83.7094H82.4772C82.5151 84.2668 82.6747 84.7321 82.9561 85.1055C83.2429 85.4735 83.6244 85.7522 84.1006 85.9416C84.5822 86.1255 85.126 86.2175 85.7321 86.2175C86.3273 86.2175 86.8441 86.131 87.2824 85.9578C87.7261 85.7846 88.0697 85.5438 88.3132 85.2354C88.5567 84.927 88.6785 84.5725 88.6785 84.1721C88.6785 83.7987 88.5676 83.4849 88.3457 83.2305C88.1293 82.9762 87.81 82.7597 87.3879 82.5812C86.9712 82.4026 86.4599 82.2403 85.8538 82.0942L84.0438 81.6396C82.6422 81.2987 81.5356 80.7657 80.724 80.0406C79.9123 79.3155 79.5091 78.3387 79.5145 77.1104C79.5091 76.1039 79.777 75.2246 80.3181 74.4724C80.8646 73.7202 81.6141 73.1331 82.5665 72.711C83.5189 72.289 84.6011 72.0779 85.8132 72.0779C87.047 72.0779 88.1238 72.289 89.0438 72.711C89.9691 73.1331 90.6888 73.7202 91.2029 74.4724C91.7169 75.2246 91.9821 76.0958 91.9983 77.086H88.6298ZM94.5896 88.9286V72.3052H98.1042V79.164H105.239V72.3052H108.745V88.9286H105.239V82.0617H98.1042V88.9286H94.5896ZM126.919 80.6169C126.919 82.4297 126.576 83.9719 125.888 85.2435C125.207 86.5152 124.276 87.4865 123.096 88.1575C121.922 88.8231 120.602 89.1558 119.135 89.1558C117.658 89.1558 116.332 88.8203 115.158 88.1494C113.984 87.4784 113.056 86.507 112.374 85.2354C111.692 83.9637 111.351 82.4242 111.351 80.6169C111.351 78.8041 111.692 77.2619 112.374 75.9903C113.056 74.7186 113.984 73.75 115.158 73.0844C116.332 72.4134 117.658 72.0779 119.135 72.0779C120.602 72.0779 121.922 72.4134 123.096 73.0844C124.276 73.75 125.207 74.7186 125.888 75.9903C126.576 77.2619 126.919 78.8041 126.919 80.6169ZM123.356 80.6169C123.356 79.4426 123.18 78.4524 122.828 77.6461C122.482 76.8398 121.992 76.2284 121.359 75.8117C120.726 75.395 119.985 75.1867 119.135 75.1867C118.286 75.1867 117.544 75.395 116.911 75.8117C116.278 76.2284 115.786 76.8398 115.434 77.6461C115.087 78.4524 114.914 79.4426 114.914 80.6169C114.914 81.7911 115.087 82.7814 115.434 83.5877C115.786 84.3939 116.278 85.0054 116.911 85.4221C117.544 85.8387 118.286 86.0471 119.135 86.0471C119.985 86.0471 120.726 85.8387 121.359 85.4221C121.992 85.0054 122.482 84.3939 122.828 83.5877C123.18 82.7814 123.356 81.7911 123.356 80.6169ZM132.64 88.9286L127.883 72.3052H131.722L134.474 83.8555H134.612L137.648 72.3052H140.935L143.963 83.8799H144.109L146.86 72.3052H150.7L145.943 88.9286H142.518L139.352 78.0601H139.222L136.065 88.9286H132.64ZM172.538 78.125H168.983C168.918 77.665 168.785 77.2565 168.585 76.8994C168.385 76.5368 168.128 76.2284 167.814 75.974C167.5 75.7197 167.138 75.5249 166.726 75.3896C166.321 75.2543 165.88 75.1867 165.403 75.1867C164.543 75.1867 163.793 75.4004 163.155 75.8279C162.516 76.25 162.021 76.8669 161.67 77.6786C161.318 78.4849 161.142 79.4643 161.142 80.6169C161.142 81.802 161.318 82.7976 161.67 83.6039C162.027 84.4102 162.525 85.0189 163.163 85.4302C163.802 85.8415 164.54 86.0471 165.379 86.0471C165.85 86.0471 166.285 85.9849 166.686 85.8604C167.092 85.7359 167.451 85.5547 167.765 85.3166C168.079 85.0731 168.339 84.7781 168.545 84.4318C168.756 84.0855 168.902 83.6905 168.983 83.2468L172.538 83.263C172.446 84.026 172.216 84.7619 171.848 85.4708C171.486 86.1742 170.996 86.8047 170.379 87.362C169.768 87.914 169.037 88.3523 168.187 88.677C167.343 88.9962 166.388 89.1558 165.322 89.1558C163.839 89.1558 162.514 88.8203 161.345 88.1494C160.181 87.4784 159.262 86.507 158.585 85.2354C157.914 83.9637 157.579 82.4242 157.579 80.6169C157.579 78.8041 157.92 77.2619 158.601 75.9903C159.283 74.7186 160.209 73.75 161.377 73.0844C162.546 72.4134 163.861 72.0779 165.322 72.0779C166.285 72.0779 167.178 72.2132 168.001 72.4838C168.829 72.7543 169.562 73.1494 170.2 73.6688C170.839 74.1829 171.358 74.8133 171.759 75.5601C172.165 76.3068 172.424 77.1618 172.538 78.125ZM190.334 80.6169C190.334 82.4297 189.991 83.9719 189.303 85.2435C188.622 86.5152 187.691 87.4865 186.511 88.1575C185.337 88.8231 184.017 89.1558 182.55 89.1558C181.073 89.1558 179.747 88.8203 178.573 88.1494C177.399 87.4784 176.471 86.507 175.789 85.2354C175.107 83.9637 174.766 82.4242 174.766 80.6169C174.766 78.8041 175.107 77.2619 175.789 75.9903C176.471 74.7186 177.399 73.75 178.573 73.0844C179.747 72.4134 181.073 72.0779 182.55 72.0779C184.017 72.0779 185.337 72.4134 186.511 73.0844C187.691 73.75 188.622 74.7186 189.303 75.9903C189.991 77.2619 190.334 78.8041 190.334 80.6169ZM186.771 80.6169C186.771 79.4426 186.595 78.4524 186.243 77.6461C185.897 76.8398 185.407 76.2284 184.774 75.8117C184.141 75.395 183.4 75.1867 182.55 75.1867C181.701 75.1867 180.959 75.395 180.326 75.8117C179.693 76.2284 179.201 76.8398 178.849 77.6461C178.503 78.4524 178.329 79.4426 178.329 80.6169C178.329 81.7911 178.503 82.7814 178.849 83.5877C179.201 84.3939 179.693 85.0054 180.326 85.4221C180.959 85.8387 181.701 86.0471 182.55 86.0471C183.4 86.0471 184.141 85.8387 184.774 85.4221C185.407 85.0054 185.897 84.3939 186.243 83.5877C186.595 82.7814 186.771 81.7911 186.771 80.6169ZM198.831 88.9286H192.938V72.3052H198.879C200.551 72.3052 201.991 72.638 203.198 73.3036C204.404 73.9637 205.332 74.9134 205.982 76.1526C206.636 77.3918 206.964 78.8745 206.964 80.6007C206.964 82.3323 206.636 83.8203 205.982 85.0649C205.332 86.3095 204.399 87.2646 203.181 87.9302C201.969 88.5958 200.519 88.9286 198.831 88.9286ZM196.452 85.9172H198.685C199.724 85.9172 200.597 85.7332 201.306 85.3653C202.021 84.9919 202.556 84.4156 202.913 83.6364C203.276 82.8517 203.457 81.8398 203.457 80.6007C203.457 79.3723 203.276 78.3685 202.913 77.5893C202.556 76.8101 202.023 76.2365 201.314 75.8685C200.606 75.5005 199.732 75.3166 198.693 75.3166H196.452V85.9172ZM209.567 88.9286V72.3052H220.769V75.2029H213.082V79.164H220.192V82.0617H213.082V86.0308H220.801V88.9286H209.567Z" fill="#646464"/>
</svg>
