<svg width="250" height="160" viewBox="0 0 250 160" fill="none" xmlns="http://www.w3.org/2000/svg">
<rect x="223.286" y="55.9286" width="21.7143" height="24" fill="#E8E8E8"/>
<path d="M5 59.3571C5 57.4636 6.53502 55.9286 8.42857 55.9286H223.286L234.714 68.7993L245 80.5V101.643C245 103.536 243.465 105.071 241.571 105.071H8.42858C6.53503 105.071 5 103.536 5 101.643V59.3571Z" fill="#646464"/>
<path d="M71.4872 77.086C71.4223 76.4313 71.1436 75.9226 70.6512 75.5601C70.1588 75.1975 69.4905 75.0162 68.6463 75.0162C68.0727 75.0162 67.5884 75.0974 67.1934 75.2597C66.7984 75.4167 66.4953 75.6358 66.2843 75.9172C66.0787 76.1986 65.9759 76.5179 65.9759 76.875C65.965 77.1726 66.0273 77.4324 66.1625 77.6542C66.3032 77.8761 66.4953 78.0682 66.7388 78.2305C66.9824 78.3874 67.2637 78.5254 67.583 78.6445C67.9023 78.7581 68.2432 78.8555 68.6057 78.9367L70.0992 79.2938C70.8243 79.4562 71.4899 79.6726 72.096 79.9432C72.702 80.2137 73.2269 80.5465 73.6707 80.9416C74.1144 81.3366 74.458 81.802 74.7015 82.3377C74.9504 82.8734 75.0776 83.4876 75.083 84.1802C75.0776 85.1975 74.8178 86.0795 74.3038 86.8263C73.7951 87.5676 73.0592 88.1439 72.096 88.5552C71.1382 88.961 69.9829 89.164 68.6301 89.164C67.2881 89.164 66.1193 88.9583 65.1236 88.5471C64.1333 88.1358 63.3595 87.5271 62.8022 86.7208C62.2502 85.9091 61.9607 84.9053 61.9336 83.7094H65.3346C65.3725 84.2668 65.5321 84.7321 65.8135 85.1055C66.1003 85.4735 66.4818 85.7522 66.958 85.9416C67.4396 86.1255 67.9834 86.2175 68.5895 86.2175C69.1847 86.2175 69.7015 86.131 70.1398 85.9578C70.5835 85.7846 70.9272 85.5438 71.1707 85.2354C71.4142 84.927 71.5359 84.5725 71.5359 84.1721C71.5359 83.7987 71.425 83.4849 71.2031 83.2305C70.9867 82.9762 70.6674 82.7597 70.2453 82.5812C69.8287 82.4026 69.3173 82.2403 68.7112 82.0942L66.9012 81.6396C65.4997 81.2987 64.3931 80.7657 63.5814 80.0406C62.7697 79.3155 62.3666 78.3387 62.372 77.1104C62.3666 76.1039 62.6344 75.2246 63.1755 74.4724C63.7221 73.7202 64.4715 73.1331 65.4239 72.711C66.3763 72.289 67.4585 72.0779 68.6707 72.0779C69.9044 72.0779 70.9813 72.289 71.9012 72.711C72.8265 73.1331 73.5462 73.7202 74.0603 74.4724C74.5743 75.2246 74.8395 76.0958 74.8557 77.086H71.4872ZM77.447 88.9286V72.3052H80.9617V79.164H88.0964V72.3052H91.6029V88.9286H88.0964V82.0617H80.9617V88.9286H77.447ZM109.777 80.6169C109.777 82.4297 109.433 83.9719 108.746 85.2435C108.064 86.5152 107.133 87.4865 105.954 88.1575C104.779 88.8231 103.459 89.1558 101.992 89.1558C100.515 89.1558 99.1895 88.8203 98.0152 88.1494C96.841 87.4784 95.9129 86.507 95.2311 85.2354C94.5493 83.9637 94.2084 82.4242 94.2084 80.6169C94.2084 78.8041 94.5493 77.2619 95.2311 75.9903C95.9129 74.7186 96.841 73.75 98.0152 73.0844C99.1895 72.4134 100.515 72.0779 101.992 72.0779C103.459 72.0779 104.779 72.4134 105.954 73.0844C107.133 73.75 108.064 74.7186 108.746 75.9903C109.433 77.2619 109.777 78.8041 109.777 80.6169ZM106.213 80.6169C106.213 79.4426 106.037 78.4524 105.686 77.6461C105.339 76.8398 104.85 76.2284 104.217 75.8117C103.583 75.395 102.842 75.1867 101.992 75.1867C101.143 75.1867 100.402 75.395 99.7685 75.8117C99.1354 76.2284 98.6429 76.8398 98.2912 77.6461C97.9449 78.4524 97.7717 79.4426 97.7717 80.6169C97.7717 81.7911 97.9449 82.7814 98.2912 83.5877C98.6429 84.3939 99.1354 85.0054 99.7685 85.4221C100.402 85.8387 101.143 86.0471 101.992 86.0471C102.842 86.0471 103.583 85.8387 104.217 85.4221C104.85 85.0054 105.339 84.3939 105.686 83.5877C106.037 82.7814 106.213 81.7911 106.213 80.6169ZM115.497 88.9286L110.74 72.3052H114.58L117.331 83.8555H117.469L120.505 72.3052H123.792L126.82 83.8799H126.966L129.718 72.3052H133.557L128.801 88.9286H125.375L122.21 78.0601H122.08L118.922 88.9286H115.497ZM155.395 78.125H151.84C151.775 77.665 151.643 77.2565 151.443 76.8994C151.242 76.5368 150.985 76.2284 150.671 75.974C150.358 75.7197 149.995 75.5249 149.584 75.3896C149.178 75.2543 148.737 75.1867 148.261 75.1867C147.4 75.1867 146.651 75.4004 146.012 75.8279C145.374 76.25 144.879 76.8669 144.527 77.6786C144.175 78.4849 143.999 79.4643 143.999 80.6169C143.999 81.802 144.175 82.7976 144.527 83.6039C144.884 84.4102 145.382 85.0189 146.02 85.4302C146.659 85.8415 147.398 86.0471 148.236 86.0471C148.707 86.0471 149.143 85.9849 149.543 85.8604C149.949 85.7359 150.309 85.5547 150.623 85.3166C150.937 85.0731 151.196 84.7781 151.402 84.4318C151.613 84.0855 151.759 83.6905 151.84 83.2468L155.395 83.263C155.304 84.026 155.074 84.7619 154.706 85.4708C154.343 86.1742 153.853 86.8047 153.236 87.362C152.625 87.914 151.894 88.3523 151.045 88.677C150.201 88.9962 149.246 89.1558 148.18 89.1558C146.697 89.1558 145.371 88.8203 144.202 88.1494C143.039 87.4784 142.119 86.507 141.443 85.2354C140.772 83.9637 140.436 82.4242 140.436 80.6169C140.436 78.8041 140.777 77.2619 141.459 75.9903C142.141 74.7186 143.066 73.75 144.235 73.0844C145.404 72.4134 146.719 72.0779 148.18 72.0779C149.143 72.0779 150.036 72.2132 150.858 72.4838C151.686 72.7543 152.419 73.1494 153.058 73.6688C153.696 74.1829 154.216 74.8133 154.616 75.5601C155.022 76.3068 155.282 77.1618 155.395 78.125ZM173.192 80.6169C173.192 82.4297 172.848 83.9719 172.161 85.2435C171.479 86.5152 170.548 87.4865 169.369 88.1575C168.194 88.8231 166.874 89.1558 165.408 89.1558C163.93 89.1558 162.605 88.8203 161.43 88.1494C160.256 87.4784 159.328 86.507 158.646 85.2354C157.964 83.9637 157.624 82.4242 157.624 80.6169C157.624 78.8041 157.964 77.2619 158.646 75.9903C159.328 74.7186 160.256 73.75 161.43 73.0844C162.605 72.4134 163.93 72.0779 165.408 72.0779C166.874 72.0779 168.194 72.4134 169.369 73.0844C170.548 73.75 171.479 74.7186 172.161 75.9903C172.848 77.2619 173.192 78.8041 173.192 80.6169ZM169.628 80.6169C169.628 79.4426 169.453 78.4524 169.101 77.6461C168.755 76.8398 168.265 76.2284 167.632 75.8117C166.999 75.395 166.257 75.1867 165.408 75.1867C164.558 75.1867 163.817 75.395 163.184 75.8117C162.551 76.2284 162.058 76.8398 161.706 77.6461C161.36 78.4524 161.187 79.4426 161.187 80.6169C161.187 81.7911 161.36 82.7814 161.706 83.5877C162.058 84.3939 162.551 85.0054 163.184 85.4221C163.817 85.8387 164.558 86.0471 165.408 86.0471C166.257 86.0471 166.999 85.8387 167.632 85.4221C168.265 85.0054 168.755 84.3939 169.101 83.5877C169.453 82.7814 169.628 81.7911 169.628 80.6169ZM181.688 88.9286H175.795V72.3052H181.737C183.409 72.3052 184.848 72.638 186.055 73.3036C187.262 73.9637 188.19 74.9134 188.839 76.1526C189.494 77.3918 189.821 78.8745 189.821 80.6007C189.821 82.3323 189.494 83.8203 188.839 85.0649C188.19 86.3095 187.256 87.2646 186.039 87.9302C184.827 88.5958 183.376 88.9286 181.688 88.9286ZM179.31 85.9172H181.542C182.581 85.9172 183.455 85.7332 184.164 85.3653C184.878 84.9919 185.414 84.4156 185.771 83.6364C186.133 82.8517 186.315 81.8398 186.315 80.6007C186.315 79.3723 186.133 78.3685 185.771 77.5893C185.414 76.8101 184.881 76.2365 184.172 75.8685C183.463 75.5005 182.589 75.3166 181.55 75.3166H179.31V85.9172ZM192.425 88.9286V72.3052H203.626V75.2029H195.939V79.164H203.05V82.0617H195.939V86.0308H203.658V88.9286H192.425Z" fill="#E8E8E8"/>
<path d="M223.286 55.9286L233.41 67.0059L245 79.9286H223.286V55.9286Z" fill="#A7A7A7"/>
<path d="M35.8569 73.0714V75.3571M35.8569 79.9286V82.2143M35.8569 86.7857V89.0714M24.4283 73.0714H40.4283C41.0345 73.0714 41.6159 73.3122 42.0445 73.7409C42.4732 74.1696 42.714 74.7509 42.714 75.3571V78.7857C42.1078 78.7857 41.5264 79.0265 41.0978 79.4552C40.6691 79.8838 40.4283 80.4652 40.4283 81.0714C40.4283 81.6776 40.6691 82.259 41.0978 82.6877C41.5264 83.1163 42.1078 83.3571 42.714 83.3571V86.7857C42.714 87.3919 42.4732 87.9733 42.0445 88.402C41.6159 88.8306 41.0345 89.0714 40.4283 89.0714H24.4283C23.8221 89.0714 23.2407 88.8306 22.812 88.402C22.3834 87.9733 22.1426 87.3919 22.1426 86.7857V83.3571C22.7488 83.3571 23.3302 83.1163 23.7588 82.6877C24.1875 82.259 24.4283 81.6776 24.4283 81.0714C24.4283 80.4652 24.1875 79.8838 23.7588 79.4552C23.3302 79.0265 22.7488 78.7857 22.1426 78.7857V75.3571C22.1426 74.7509 22.3834 74.1696 22.812 73.7409C23.2407 73.3122 23.8221 73.0714 24.4283 73.0714Z" stroke="#E8E8E8" stroke-width="2.28571" stroke-linecap="round" stroke-linejoin="round"/>
</svg>
