<svg width="250" height="160" viewBox="0 0 250 160" fill="none" xmlns="http://www.w3.org/2000/svg">
<path d="M128 23.75C137.874 23.75 147.574 26.3491 156.125 31.2861C164.676 36.223 171.777 43.3239 176.714 51.875C181.651 60.4261 184.25 70.1261 184.25 80C184.25 89.8739 181.651 99.5739 176.714 108.125C171.777 116.676 164.676 123.777 156.125 128.714C147.574 133.651 137.874 136.25 128 136.25C118.126 136.25 108.426 133.651 99.875 128.714C91.3239 123.777 84.223 116.676 79.2861 108.125" stroke="#646464" stroke-width="37.5"/>
<path d="M79.3667 108.264C72.6403 96.6903 70.262 83.0969 72.6593 69.9267" stroke="#E8E8E8" stroke-width="37.5"/>
<path d="M72.6389 70.0397C74.9765 57.0469 81.8094 45.2902 91.9416 36.8276C102.074 28.365 114.86 23.7357 128.061 23.75" stroke="#E8E8E8" stroke-width="37.5"/>
</svg>
