<svg width="250" height="160" viewBox="0 0 250 160" fill="none" xmlns="http://www.w3.org/2000/svg">
<path d="M125.542 154.815C165.531 154.815 197.949 122.397 197.949 82.4074C197.949 42.4179 165.531 9.99998 125.542 9.99998C85.5522 9.99998 53.1343 42.4179 53.1343 82.4074C53.1343 122.397 85.5522 154.815 125.542 154.815Z" stroke="#A7A7A7" stroke-width="0.37037"/>
<path d="M125.727 134.074C154.16 134.074 177.209 111.025 177.209 82.5926C177.209 54.1602 154.16 31.1111 125.727 31.1111C97.2946 31.1111 74.2456 54.1602 74.2456 82.5926C74.2456 111.025 97.2946 134.074 125.727 134.074Z" stroke="#A7A7A7" stroke-width="0.37037"/>
<path d="M125.542 114.444C143.235 114.444 157.579 100.101 157.579 82.4074C157.579 64.7138 143.235 50.3704 125.542 50.3704C107.848 50.3704 93.5049 64.7138 93.5049 82.4074C93.5049 100.101 107.848 114.444 125.542 114.444Z" stroke="#A7A7A7" stroke-width="0.37037"/>
<path d="M125.727 97.4074C133.909 97.4074 140.542 90.7746 140.542 82.5926C140.542 74.4106 133.909 67.7778 125.727 67.7778C117.545 67.7778 110.912 74.4106 110.912 82.5926C110.912 90.7746 117.545 97.4074 125.727 97.4074Z" stroke="#A7A7A7" stroke-width="0.37037"/>
<path d="M120.357 5H131.098V13.8889H120.357V5Z" fill="#E8E8E8"/>
<path d="M120.357 26.4815H131.098V35.3704H120.357V26.4815Z" fill="#E8E8E8"/>
<path d="M120.357 45.7407H131.098V54.6296H120.357V45.7407Z" fill="#E8E8E8"/>
<path d="M120.357 63.1481H131.098V72.037H120.357V63.1481Z" fill="#E8E8E8"/>
<path d="M123.683 9.58225L123.197 9.46325L123.397 7.60995H125.385V8.12645H123.903L123.802 9.03031C123.86 8.99655 123.939 8.96364 124.04 8.93157C124.141 8.89781 124.257 8.88093 124.387 8.88093C124.561 8.88093 124.716 8.90962 124.853 8.96701C124.991 9.02271 125.109 9.10458 125.205 9.2126C125.301 9.31894 125.374 9.4489 125.425 9.6025C125.476 9.75441 125.501 9.92573 125.501 10.1165C125.501 10.2869 125.476 10.4464 125.425 10.595C125.376 10.7435 125.302 10.8743 125.202 10.9874C125.103 11.1005 124.977 11.1891 124.825 11.2533C124.675 11.3157 124.497 11.3469 124.291 11.3469C124.137 11.3469 123.99 11.325 123.848 11.2811C123.708 11.2355 123.582 11.1689 123.471 11.0811C123.359 10.9916 123.27 10.8819 123.202 10.752C123.135 10.6203 123.096 10.4692 123.086 10.2988H123.683C123.698 10.4186 123.731 10.5207 123.782 10.6051C123.834 10.6878 123.903 10.7511 123.99 10.795C124.076 10.8389 124.175 10.8608 124.288 10.8608C124.391 10.8608 124.48 10.8431 124.554 10.8077C124.628 10.7705 124.69 10.7182 124.739 10.6507C124.79 10.5815 124.827 10.5005 124.85 10.4076C124.876 10.3148 124.888 10.2118 124.888 10.0987C124.888 9.99072 124.874 9.89197 124.845 9.80252C124.818 9.71306 124.777 9.63542 124.721 9.56959C124.667 9.50376 124.599 9.45312 124.516 9.41768C124.433 9.38054 124.338 9.36198 124.23 9.36198C124.085 9.36198 123.974 9.38308 123.896 9.42527C123.82 9.46747 123.749 9.5198 123.683 9.58225ZM128.392 9.14424V9.74682C128.392 10.0354 128.364 10.2819 128.306 10.4861C128.251 10.6887 128.17 10.8532 128.063 10.9798C127.957 11.1064 127.83 11.1992 127.681 11.2583C127.534 11.3174 127.37 11.3469 127.187 11.3469C127.042 11.3469 126.907 11.3284 126.782 11.2912C126.659 11.2541 126.548 11.1959 126.448 11.1165C126.348 11.0372 126.263 10.9351 126.192 10.8102C126.123 10.6836 126.069 10.5325 126.03 10.357C125.993 10.1814 125.975 9.97806 125.975 9.74682V9.14424C125.975 8.85392 126.003 8.60918 126.061 8.41001C126.118 8.20915 126.2 8.04627 126.306 7.92137C126.413 7.79478 126.539 7.70279 126.686 7.6454C126.834 7.58801 127 7.55932 127.182 7.55932C127.329 7.55932 127.464 7.57788 127.587 7.61502C127.712 7.65046 127.824 7.70701 127.921 7.78465C128.021 7.86229 128.105 7.96356 128.175 8.08847C128.246 8.21168 128.3 8.36106 128.337 8.5366C128.374 8.71045 128.392 8.913 128.392 9.14424ZM127.782 9.8329V9.05309C127.782 8.90625 127.774 8.77713 127.757 8.66573C127.74 8.55264 127.715 8.45727 127.681 8.37963C127.649 8.3003 127.608 8.23616 127.559 8.18721C127.51 8.13657 127.455 8.10028 127.392 8.07834C127.33 8.05471 127.26 8.0429 127.182 8.0429C127.088 8.0429 127.003 8.06146 126.929 8.0986C126.855 8.13404 126.792 8.19143 126.742 8.27076C126.691 8.35009 126.652 8.45474 126.625 8.58471C126.6 8.71299 126.587 8.86912 126.587 9.05309V9.8329C126.587 9.98143 126.596 10.1122 126.613 10.2253C126.629 10.3384 126.655 10.4355 126.688 10.5165C126.722 10.5958 126.763 10.6617 126.81 10.714C126.859 10.7646 126.915 10.8017 126.977 10.8254C127.041 10.849 127.111 10.8608 127.187 10.8608C127.283 10.8608 127.369 10.8423 127.443 10.8051C127.517 10.768 127.58 10.7089 127.63 10.6279C127.681 10.5452 127.719 10.438 127.744 10.3064C127.77 10.1747 127.782 10.0169 127.782 9.8329Z" fill="#A7A7A7"/>
<path d="M125.582 31.4638V31.9499H122.924L122.903 31.5827L124.493 29.0914H124.982L124.453 29.9978L123.539 31.4638H125.582ZM125.121 29.0914V32.7778H124.511V29.0914H125.121ZM128.392 30.6257V31.2283C128.392 31.5169 128.364 31.7634 128.306 31.9676C128.251 32.1701 128.17 32.3347 128.063 32.4613C127.957 32.5879 127.83 32.6807 127.681 32.7398C127.534 32.7989 127.37 32.8284 127.187 32.8284C127.042 32.8284 126.907 32.8098 126.782 32.7727C126.659 32.7356 126.548 32.6773 126.448 32.598C126.348 32.5187 126.263 32.4166 126.192 32.2917C126.123 32.1651 126.069 32.014 126.03 31.8385C125.993 31.6629 125.975 31.4595 125.975 31.2283V30.6257C125.975 30.3354 126.003 30.0907 126.061 29.8915C126.118 29.6906 126.2 29.5277 126.306 29.4028C126.413 29.2763 126.539 29.1843 126.686 29.1269C126.834 29.0695 127 29.0408 127.182 29.0408C127.329 29.0408 127.464 29.0594 127.587 29.0965C127.712 29.1319 127.824 29.1885 127.921 29.2661C128.021 29.3438 128.105 29.445 128.175 29.5699C128.246 29.6932 128.3 29.8425 128.337 30.0181C128.374 30.1919 128.392 30.3945 128.392 30.6257ZM127.782 31.3144V30.5346C127.782 30.3877 127.774 30.2586 127.757 30.1472C127.74 30.0341 127.715 29.9387 127.681 29.8611C127.649 29.7818 127.608 29.7176 127.559 29.6687C127.51 29.618 127.455 29.5818 127.392 29.5598C127.33 29.5362 127.26 29.5244 127.182 29.5244C127.088 29.5244 127.003 29.5429 126.929 29.5801C126.855 29.6155 126.792 29.6729 126.742 29.7522C126.691 29.8316 126.652 29.9362 126.625 30.0662C126.6 30.1945 126.587 30.3506 126.587 30.5346V31.3144C126.587 31.4629 126.596 31.5937 126.613 31.7068C126.629 31.8199 126.655 31.9169 126.688 31.998C126.722 32.0773 126.763 32.1431 126.81 32.1955C126.859 32.2461 126.915 32.2832 126.977 32.3069C127.041 32.3305 127.111 32.3423 127.187 32.3423C127.283 32.3423 127.369 32.3237 127.443 32.2866C127.517 32.2495 127.58 32.1904 127.63 32.1094C127.681 32.0267 127.719 31.9195 127.744 31.7878C127.77 31.6562 127.782 31.4984 127.782 31.3144Z" fill="#A7A7A7"/>
<path d="M123.759 49.9179H124.124C124.266 49.9179 124.383 49.8934 124.476 49.8445C124.57 49.7955 124.64 49.728 124.686 49.6419C124.731 49.5558 124.754 49.4571 124.754 49.3457C124.754 49.2292 124.733 49.1296 124.691 49.0469C124.65 48.9625 124.588 48.8976 124.504 48.852C124.421 48.8064 124.315 48.7836 124.187 48.7836C124.079 48.7836 123.981 48.8056 123.893 48.8495C123.807 48.8917 123.739 48.9524 123.688 49.0318C123.638 49.1094 123.612 49.2022 123.612 49.3103H123C123 49.1145 123.051 48.9406 123.154 48.7887C123.257 48.6368 123.397 48.5178 123.574 48.4317C123.753 48.3439 123.954 48.3001 124.177 48.3001C124.415 48.3001 124.623 48.3397 124.8 48.419C124.979 48.4967 125.118 48.6132 125.218 48.7684C125.317 48.9237 125.367 49.1161 125.367 49.3457C125.367 49.4503 125.342 49.5567 125.293 49.6647C125.245 49.7727 125.172 49.8715 125.076 49.9609C124.98 50.0487 124.86 50.1204 124.716 50.1761C124.573 50.2302 124.406 50.2572 124.217 50.2572H123.759V49.9179ZM123.759 50.3939V50.0597H124.217C124.433 50.0597 124.617 50.085 124.769 50.1356C124.923 50.1863 125.048 50.2563 125.144 50.3458C125.24 50.4335 125.31 50.534 125.354 50.6471C125.4 50.7601 125.423 50.88 125.423 51.0066C125.423 51.1787 125.391 51.3323 125.329 51.4674C125.268 51.6007 125.181 51.7138 125.068 51.8066C124.955 51.8995 124.823 51.9695 124.671 52.0168C124.52 52.064 124.357 52.0877 124.179 52.0877C124.021 52.0877 123.869 52.0657 123.724 52.0218C123.579 51.978 123.449 51.913 123.334 51.8269C123.219 51.7391 123.128 51.6303 123.06 51.5003C122.995 51.3686 122.962 51.2167 122.962 51.0446H123.572C123.572 51.1543 123.597 51.2513 123.648 51.3357C123.7 51.4184 123.773 51.4834 123.866 51.5307C123.96 51.5779 124.068 51.6016 124.19 51.6016C124.318 51.6016 124.428 51.5788 124.521 51.5332C124.614 51.4876 124.685 51.4201 124.734 51.3307C124.785 51.2412 124.81 51.1332 124.81 51.0066C124.81 50.8631 124.782 50.7466 124.726 50.6572C124.671 50.5677 124.591 50.5019 124.488 50.4597C124.385 50.4158 124.264 50.3939 124.124 50.3939H123.759ZM128.392 49.885V50.4876C128.392 50.7762 128.364 51.0226 128.306 51.2268C128.251 51.4294 128.17 51.594 128.063 51.7206C127.957 51.8471 127.83 51.94 127.681 51.9991C127.534 52.0581 127.37 52.0877 127.187 52.0877C127.042 52.0877 126.907 52.0691 126.782 52.032C126.659 51.9948 126.548 51.9366 126.448 51.8573C126.348 51.7779 126.263 51.6758 126.192 51.5509C126.123 51.4243 126.069 51.2733 126.03 51.0977C125.993 50.9222 125.975 50.7188 125.975 50.4876V49.885C125.975 49.5947 126.003 49.3499 126.061 49.1507C126.118 48.9499 126.2 48.787 126.306 48.6621C126.413 48.5355 126.539 48.4435 126.686 48.3861C126.834 48.3287 127 48.3001 127.182 48.3001C127.329 48.3001 127.464 48.3186 127.587 48.3558C127.712 48.3912 127.824 48.4477 127.921 48.5254C128.021 48.603 128.105 48.7043 128.175 48.8292C128.246 48.9524 128.3 49.1018 128.337 49.2773C128.374 49.4512 128.392 49.6537 128.392 49.885ZM127.782 50.5736V49.7938C127.782 49.647 127.774 49.5179 127.757 49.4065C127.74 49.2934 127.715 49.198 127.681 49.1204C127.649 49.041 127.608 48.9769 127.559 48.9279C127.51 48.8773 127.455 48.841 127.392 48.8191C127.33 48.7954 127.26 48.7836 127.182 48.7836C127.088 48.7836 127.003 48.8022 126.929 48.8393C126.855 48.8748 126.792 48.9322 126.742 49.0115C126.691 49.0908 126.652 49.1955 126.625 49.3254C126.6 49.4537 126.587 49.6099 126.587 49.7938V50.5736C126.587 50.7222 126.596 50.853 126.613 50.9661C126.629 51.0792 126.655 51.1762 126.688 51.2572C126.722 51.3366 126.763 51.4024 126.81 51.4547C126.859 51.5053 126.915 51.5425 126.977 51.5661C127.041 51.5897 127.111 51.6016 127.187 51.6016C127.283 51.6016 127.369 51.583 127.443 51.5459C127.517 51.5087 127.58 51.4496 127.63 51.3686C127.681 51.2859 127.719 51.1787 127.744 51.0471C127.77 50.9154 127.782 50.7576 127.782 50.5736Z" fill="#A7A7A7"/>
<path d="M125.514 68.9583V69.4444H123.043V69.0267L124.243 67.7177C124.374 67.5692 124.478 67.4409 124.554 67.3329C124.63 67.2249 124.683 67.1278 124.714 67.0417C124.746 66.954 124.762 66.8687 124.762 66.786C124.762 66.6696 124.74 66.5674 124.696 66.4797C124.654 66.3902 124.591 66.3202 124.509 66.2695C124.426 66.2172 124.325 66.191 124.207 66.191C124.071 66.191 123.956 66.2206 123.863 66.2797C123.77 66.3387 123.7 66.4206 123.653 66.5252C123.606 66.6282 123.582 66.7464 123.582 66.8797H122.972C122.972 66.6653 123.021 66.4695 123.119 66.2923C123.217 66.1134 123.358 65.9716 123.544 65.867C123.73 65.7606 123.953 65.7075 124.215 65.7075C124.461 65.7075 124.671 65.7488 124.843 65.8315C125.015 65.9142 125.146 66.0315 125.235 66.1834C125.326 66.3354 125.372 66.5151 125.372 66.7227C125.372 66.8375 125.353 66.9514 125.316 67.0645C125.279 67.1776 125.226 67.2907 125.157 67.4038C125.089 67.5152 125.009 67.6274 124.916 67.7405C124.823 67.8519 124.721 67.965 124.61 68.0798L123.812 68.9583H125.514ZM128.392 67.2924V67.895C128.392 68.1836 128.364 68.43 128.306 68.6343C128.251 68.8368 128.17 69.0014 128.063 69.128C127.957 69.2546 127.83 69.3474 127.681 69.4065C127.534 69.4655 127.37 69.4951 127.187 69.4951C127.042 69.4951 126.907 69.4765 126.782 69.4394C126.659 69.4022 126.548 69.344 126.448 69.2647C126.348 69.1854 126.263 69.0832 126.192 68.9583C126.123 68.8317 126.069 68.6807 126.03 68.5051C125.993 68.3296 125.975 68.1262 125.975 67.895V67.2924C125.975 67.0021 126.003 66.7573 126.061 66.5582C126.118 66.3573 126.2 66.1944 126.306 66.0695C126.413 65.9429 126.539 65.8509 126.686 65.7935C126.834 65.7362 127 65.7075 127.182 65.7075C127.329 65.7075 127.464 65.726 127.587 65.7632C127.712 65.7986 127.824 65.8552 127.921 65.9328C128.021 66.0104 128.105 66.1117 128.175 66.2366C128.246 66.3598 128.3 66.5092 128.337 66.6847C128.374 66.8586 128.392 67.0611 128.392 67.2924ZM127.782 67.981V67.2012C127.782 67.0544 127.774 66.9253 127.757 66.8139C127.74 66.7008 127.715 66.6054 127.681 66.5278C127.649 66.4484 127.608 66.3843 127.559 66.3354C127.51 66.2847 127.455 66.2484 127.392 66.2265C127.33 66.2029 127.26 66.191 127.182 66.191C127.088 66.191 127.003 66.2096 126.929 66.2467C126.855 66.2822 126.792 66.3396 126.742 66.4189C126.691 66.4982 126.652 66.6029 126.625 66.7329C126.6 66.8611 126.587 67.0173 126.587 67.2012V67.981C126.587 68.1296 126.596 68.2604 126.613 68.3735C126.629 68.4866 126.655 68.5836 126.688 68.6646C126.722 68.744 126.763 68.8098 126.81 68.8621C126.859 68.9128 126.915 68.9499 126.977 68.9735C127.041 68.9972 127.111 69.009 127.187 69.009C127.283 69.009 127.369 68.9904 127.443 68.9533C127.517 68.9161 127.58 68.8571 127.63 68.776C127.681 68.6933 127.719 68.5862 127.744 68.4545C127.77 68.3228 127.782 68.165 127.782 67.981Z" fill="#A7A7A7"/>
<g opacity="0.795">
<path d="M62.7196 118.618C62.3245 117.964 60.7233 115.23 58.9389 110.997C57.7276 108.12 56.6853 105.174 55.8174 102.176C54.7326 98.4281 53.9311 94.6215 53.4352 90.8615C52.9821 87.403 52.7874 83.9156 52.8526 80.4281C52.923 76.634 53.2949 72.8515 53.9648 69.1163C55.4685 60.7482 58.4463 52.7667 62.8159 45.3933C65.2334 41.3144 68.0093 37.5059 71.0663 34.0741C73.8893 30.9052 76.9975 28.0022 80.3515 25.4019C86.19 20.8796 92.7737 17.2789 99.9193 14.6996L99.9248 14.6974L99.9304 14.6952C104.123 12.8678 108.646 11.5407 113.372 10.7515C117.403 10.0781 120.766 9.93666 122.877 9.93666C124.144 9.93666 125.011 9.98777 125.357 10.0126V82.3007L62.7196 118.618Z" fill="#E8E8E8"/>
<path d="M122.877 10.1222C120.772 10.1222 117.42 10.263 113.402 10.9341C108.691 11.7211 104.183 13.0437 100.004 14.8648L99.9816 14.8737C92.8545 17.4463 86.2879 21.0378 80.4649 25.5481C77.1198 28.1415 74.02 31.0366 71.2045 34.197C68.1549 37.6204 65.386 41.4193 62.9749 45.4878C58.6164 52.8419 55.6464 60.8026 54.1467 69.1493C53.4786 72.8747 53.1076 76.6473 53.0375 80.4315C52.9734 83.9274 53.169 87.4285 53.6186 90.8374C54.113 94.5863 54.9119 98.3819 55.993 102.118C56.8585 105.109 57.8978 108.046 59.1056 110.916C60.7697 114.865 62.2738 117.506 62.7845 118.366L125.171 82.1941V10.1852C124.407 10.1407 123.642 10.1196 122.877 10.1219M122.877 9.75148C124.57 9.75148 125.542 9.84074 125.542 9.84074V82.4074L62.6564 118.869C62.6564 118.869 55.4323 107.419 53.2512 90.8859C51.1941 75.0659 54.5058 59.0131 62.656 45.2989C72.7575 28.2552 87.0401 19.1515 99.856 14.5256C109.46 10.3393 118.538 9.75148 122.877 9.75148Z" fill="#A7A7A7"/>
</g>
<g opacity="0.795">
<path d="M170.526 109.629C170.194 110.117 169.469 111.143 168.361 112.501L167.795 113.182C166.922 114.216 166.015 115.22 165.076 116.193L164.125 117.155C162.704 118.564 161.216 119.906 159.667 121.175L159 121.714C154.756 125.095 150.18 127.837 145.385 129.876L144.423 130.275C141.752 131.352 139.001 132.218 136.195 132.862L134.989 133.123C131.462 133.848 127.808 134.227 124.128 134.249L122.921 134.244C120.512 134.203 118.137 133.994 115.833 133.621L114.686 133.42C111.893 132.897 109.153 132.114 106.504 131.083H106.505C102.235 129.418 98.1914 127.09 94.4722 124.155L93.7319 123.559C90.8945 121.231 88.2685 118.56 85.9175 115.612L85.4507 115.018C83.6945 112.753 82.445 110.776 81.6411 109.381L81.3237 108.821L81.3228 108.82L81.0425 108.302C80.9781 108.18 80.9155 108.058 80.853 107.935L126.196 82.4242L170.526 109.629Z" fill="#A7A7A7" stroke="#A7A7A7" stroke-width="0.37037"/>
<path d="M81.3233 108.82C82.0985 110.219 83.444 112.43 85.4503 115.019C87.9185 118.202 90.7048 121.076 93.7318 123.559C97.6518 126.776 101.949 129.307 106.504 131.083C109.153 132.114 111.892 132.896 114.686 133.42C117.726 133.991 120.903 134.27 124.128 134.25C127.806 134.227 131.458 133.848 134.984 133.125C138.207 132.462 141.363 131.509 144.415 130.279C149.56 128.204 154.463 125.326 158.989 121.723C160.779 120.297 162.49 118.776 164.115 117.165C165.397 115.896 166.622 114.57 167.787 113.192C169.221 111.493 170.14 110.197 170.527 109.631L126.196 82.4252L80.8518 107.936C80.9555 108.14 81.1125 108.44 81.3233 108.82ZM80.9992 109C80.5714 108.228 80.3633 107.786 80.3633 107.786L126.204 81.9956L171.048 109.516C171.048 109.516 155.203 134.426 124.13 134.62C97.0348 134.79 83.9136 114.259 80.9992 109Z" fill="#A7A7A7"/>
</g>
<g opacity="0.795">
<path d="M125.708 50.15C126.712 50.2596 131.272 50.7956 135.941 51.9559C139.269 52.7833 142.7 54.6163 145.862 57.2563C149.019 59.8926 151.797 63.2411 153.897 66.9392C155.64 70.0104 156.811 73.3126 157.378 76.7541C157.921 80.047 157.909 83.453 157.343 86.8763C156.515 91.8896 154.674 95.6126 153.65 97.3855C153.46 97.7175 153.259 98.0433 153.048 98.3626L125.708 82.4344V50.15Z" fill="#646464"/>
<path d="M153.49 97.2926C154.507 95.5307 156.336 91.8307 157.16 86.8463C157.723 83.4426 157.734 80.0574 157.195 76.7841C156.632 73.3641 155.468 70.0826 153.735 67.0307C151.646 63.3515 148.883 60.0207 145.743 57.3985C142.602 54.7763 139.197 52.9563 135.896 52.1356C131.503 51.0441 127.207 50.5059 125.893 50.357V82.3282L152.99 98.1141C153.11 97.9278 153.282 97.6515 153.49 97.293M153.81 97.4782C153.384 98.2159 153.104 98.6093 153.104 98.6093L125.523 82.5411V49.9441C125.523 49.9441 130.649 50.45 135.985 51.7763C142.836 53.4789 149.764 59.2845 154.057 66.8478C157.659 73.1922 158.642 80.1526 157.526 86.9067C156.691 91.9582 154.832 95.7082 153.81 97.4782Z" fill="#646464"/>
</g>
</svg>
