<svg width="250" height="160" viewBox="0 0 250 160" fill="none" xmlns="http://www.w3.org/2000/svg">
<path d="M21.5884 8.06152V148.601" stroke="#646464" stroke-width="0.583153"/>
<path d="M16.0488 142.77H238.668Z" fill="#646464"/>
<path d="M16.0488 142.77H238.668" stroke="#646464" stroke-width="0.583153"/>
<path d="M14.2432 142.53V143.14C14.2432 143.432 14.2141 143.682 14.156 143.888C14.0997 144.093 14.0177 144.26 13.91 144.388C13.8024 144.516 13.6734 144.61 13.5231 144.67C13.3744 144.73 13.2079 144.76 13.0233 144.76C12.8764 144.76 12.7397 144.741 12.6133 144.703C12.4886 144.666 12.3758 144.607 12.275 144.526C12.1742 144.446 12.088 144.343 12.0162 144.216C11.9462 144.088 11.8915 143.935 11.8522 143.758C11.8146 143.58 11.7958 143.374 11.7958 143.14V142.53C11.7958 142.236 11.8249 141.989 11.8829 141.787C11.941 141.584 12.0239 141.419 12.1315 141.292C12.2392 141.164 12.3673 141.071 12.5159 141.013C12.6663 140.955 12.8337 140.926 13.0182 140.926C13.1669 140.926 13.3035 140.945 13.4282 140.982C13.5547 141.018 13.6674 141.075 13.7665 141.154C13.8673 141.233 13.9527 141.335 14.0228 141.461C14.0945 141.586 14.1492 141.737 14.1868 141.915C14.2244 142.091 14.2432 142.296 14.2432 142.53ZM13.6256 143.227V142.438C13.6256 142.289 13.617 142.159 13.5999 142.046C13.5829 141.931 13.5572 141.835 13.5231 141.756C13.4906 141.676 13.4496 141.611 13.4001 141.561C13.3505 141.51 13.2941 141.473 13.2309 141.451C13.1677 141.427 13.0968 141.415 13.0182 141.415C12.9225 141.415 12.8371 141.434 12.7619 141.472C12.6868 141.508 12.6236 141.566 12.5723 141.646C12.5211 141.726 12.4818 141.832 12.4544 141.964C12.4288 142.094 12.416 142.252 12.416 142.438V143.227C12.416 143.377 12.4245 143.51 12.4416 143.624C12.4587 143.739 12.4843 143.837 12.5185 143.919C12.5527 143.999 12.5937 144.066 12.6415 144.119C12.691 144.17 12.7474 144.208 12.8106 144.232C12.8756 144.256 12.9465 144.268 13.0233 144.268C13.1207 144.268 13.207 144.249 13.2822 144.211C13.3573 144.174 13.4206 144.114 13.4718 144.032C13.5231 143.948 13.5615 143.84 13.5871 143.706C13.6128 143.573 13.6256 143.413 13.6256 143.227Z" fill="#A7A7A7"/>
<path d="M9.86916 115.997V116.607C9.86916 116.899 9.84011 117.148 9.78203 117.355C9.72565 117.56 9.64364 117.726 9.53601 117.855C9.42838 117.983 9.29939 118.077 9.14904 118.136C9.00041 118.196 8.83383 118.226 8.64932 118.226C8.50239 118.226 8.36572 118.207 8.23929 118.17C8.11457 118.132 8.00181 118.073 7.90102 117.993C7.80022 117.913 7.71394 117.809 7.64218 117.683C7.57214 117.555 7.51747 117.402 7.47817 117.224C7.44059 117.046 7.42179 116.841 7.42179 116.607V115.997C7.42179 115.703 7.45084 115.455 7.50892 115.253C7.56701 115.05 7.64987 114.885 7.7575 114.759C7.86514 114.631 7.99327 114.538 8.14191 114.48C8.29225 114.421 8.45968 114.392 8.64419 114.392C8.79283 114.392 8.92951 114.411 9.05422 114.449C9.18065 114.485 9.29341 114.542 9.3925 114.62C9.4933 114.699 9.57872 114.802 9.64877 114.928C9.72052 115.053 9.77519 115.204 9.81278 115.382C9.85036 115.558 9.86916 115.763 9.86916 115.997ZM9.25155 116.694V115.904C9.25155 115.756 9.24301 115.625 9.22592 115.512C9.20884 115.398 9.18321 115.301 9.14904 115.223C9.11658 115.142 9.07558 115.077 9.02603 115.028C8.97649 114.977 8.92011 114.94 8.8569 114.918C8.79368 114.894 8.72278 114.882 8.64419 114.882C8.54852 114.882 8.4631 114.901 8.38793 114.938C8.31275 114.974 8.24954 115.032 8.19829 115.112C8.14703 115.193 8.10774 115.299 8.0804 115.43C8.05478 115.56 8.04196 115.718 8.04196 115.904V116.694C8.04196 116.844 8.05051 116.976 8.06759 117.091C8.08467 117.205 8.1103 117.304 8.14447 117.386C8.17864 117.466 8.21964 117.533 8.26748 117.585C8.31702 117.637 8.3734 117.674 8.43662 117.698C8.50154 117.722 8.57244 117.734 8.64932 117.734C8.7467 117.734 8.83298 117.715 8.90815 117.678C8.98332 117.64 9.04654 117.58 9.09779 117.498C9.14904 117.415 9.18748 117.306 9.21311 117.173C9.23874 117.04 9.25155 116.88 9.25155 116.694ZM10.4816 117.867C10.4816 117.772 10.5141 117.691 10.579 117.626C10.6439 117.56 10.7319 117.527 10.843 117.527C10.9557 117.527 11.0437 117.56 11.1069 117.626C11.1719 117.691 11.2043 117.772 11.2043 117.867C11.2043 117.963 11.1719 118.043 11.1069 118.108C11.0437 118.173 10.9557 118.206 10.843 118.206C10.7319 118.206 10.6439 118.173 10.579 118.108C10.5141 118.043 10.4816 117.963 10.4816 117.867ZM14.382 117.683V118.175H11.8809V117.752L13.0956 116.427C13.2288 116.277 13.3339 116.147 13.4108 116.038C13.4877 115.928 13.5415 115.83 13.5722 115.743C13.6047 115.654 13.6209 115.568 13.6209 115.484C13.6209 115.366 13.5987 115.263 13.5543 115.174C13.5116 115.083 13.4484 115.013 13.3647 114.961C13.2809 114.908 13.1793 114.882 13.0597 114.882C12.9213 114.882 12.8051 114.912 12.7112 114.972C12.6172 115.031 12.5463 115.114 12.4985 115.22C12.4506 115.324 12.4267 115.444 12.4267 115.579H11.8091C11.8091 115.362 11.8587 115.164 11.9577 114.984C12.0568 114.803 12.2003 114.66 12.3883 114.554C12.5762 114.446 12.8026 114.392 13.0674 114.392C13.3168 114.392 13.5287 114.434 13.7029 114.518C13.8772 114.602 14.0096 114.72 14.1002 114.874C14.1924 115.028 14.2385 115.21 14.2385 115.42C14.2385 115.536 14.2197 115.652 14.1822 115.766C14.1446 115.88 14.0908 115.995 14.0207 116.109C13.9524 116.222 13.8712 116.336 13.7773 116.45C13.6833 116.563 13.5799 116.677 13.4672 116.794L12.6599 117.683H14.382Z" fill="#A7A7A7"/>
<path d="M9.86916 129.409V130.019C9.86916 130.311 9.84011 130.561 9.78203 130.767C9.72565 130.972 9.64364 131.139 9.53601 131.267C9.42838 131.395 9.29939 131.489 9.14904 131.549C9.00041 131.609 8.83383 131.639 8.64932 131.639C8.50239 131.639 8.36572 131.62 8.23929 131.582C8.11457 131.545 8.00181 131.486 7.90102 131.405C7.80022 131.325 7.71394 131.222 7.64218 131.095C7.57214 130.967 7.51747 130.814 7.47817 130.637C7.44059 130.459 7.42179 130.253 7.42179 130.019V129.409C7.42179 129.115 7.45084 128.868 7.50892 128.666C7.56701 128.463 7.64987 128.298 7.7575 128.171C7.86514 128.043 7.99327 127.95 8.14191 127.892C8.29225 127.834 8.45968 127.805 8.64419 127.805C8.79283 127.805 8.92951 127.824 9.05422 127.861C9.18065 127.897 9.29341 127.954 9.3925 128.033C9.4933 128.112 9.57872 128.214 9.64877 128.341C9.72052 128.465 9.77519 128.616 9.81278 128.794C9.85036 128.97 9.86916 129.175 9.86916 129.409ZM9.25155 130.106V129.317C9.25155 129.168 9.24301 129.038 9.22592 128.925C9.20884 128.81 9.18321 128.714 9.14904 128.635C9.11658 128.555 9.07558 128.49 9.02603 128.44C8.97649 128.389 8.92011 128.352 8.8569 128.33C8.79368 128.306 8.72278 128.294 8.64419 128.294C8.54852 128.294 8.4631 128.313 8.38793 128.351C8.31275 128.387 8.24954 128.445 8.19829 128.525C8.14703 128.605 8.10774 128.711 8.0804 128.843C8.05478 128.973 8.04196 129.131 8.04196 129.317V130.106C8.04196 130.257 8.05051 130.389 8.06759 130.503C8.08467 130.618 8.1103 130.716 8.14447 130.798C8.17864 130.878 8.21964 130.945 8.26748 130.998C8.31702 131.049 8.3734 131.087 8.43662 131.111C8.50154 131.135 8.57244 131.147 8.64932 131.147C8.7467 131.147 8.83298 131.128 8.90815 131.09C8.98332 131.053 9.04654 130.993 9.09779 130.911C9.14904 130.827 9.18748 130.719 9.21311 130.585C9.23874 130.452 9.25155 130.292 9.25155 130.106ZM10.4816 131.28C10.4816 131.184 10.5141 131.104 10.579 131.039C10.6439 130.972 10.7319 130.939 10.843 130.939C10.9557 130.939 11.0437 130.972 11.1069 131.039C11.1719 131.104 11.2043 131.184 11.2043 131.28C11.2043 131.376 11.1719 131.456 11.1069 131.521C11.0437 131.586 10.9557 131.618 10.843 131.618C10.7319 131.618 10.6439 131.586 10.579 131.521C10.5141 131.456 10.4816 131.376 10.4816 131.28ZM13.5671 127.843V131.587H12.9495V128.576L12.0346 128.886V128.376L13.4928 127.843H13.5671Z" fill="#A7A7A7"/>
<path d="M9.86916 100.543V101.153C9.86916 101.445 9.84011 101.695 9.78203 101.901C9.72565 102.106 9.64364 102.273 9.53601 102.401C9.42838 102.529 9.29939 102.623 9.14904 102.683C9.00041 102.743 8.83383 102.773 8.64932 102.773C8.50239 102.773 8.36572 102.754 8.23929 102.716C8.11457 102.679 8.00181 102.62 7.90102 102.539C7.80022 102.459 7.71394 102.356 7.64218 102.229C7.57214 102.101 7.51747 101.948 7.47817 101.771C7.44059 101.593 7.42179 101.387 7.42179 101.153V100.543C7.42179 100.249 7.45084 100.002 7.50892 99.7999C7.56701 99.5966 7.64987 99.4317 7.7575 99.3053C7.86514 99.1772 7.99327 99.0841 8.14191 99.026C8.29225 98.9679 8.45968 98.9389 8.64419 98.9389C8.79283 98.9389 8.92951 98.9576 9.05422 98.9952C9.18065 99.0311 9.29341 99.0883 9.3925 99.1669C9.4933 99.2455 9.57872 99.348 9.64877 99.4745C9.72052 99.5992 9.77519 99.7504 9.81278 99.928C9.85036 100.104 9.86916 100.309 9.86916 100.543ZM9.25155 101.24V100.451C9.25155 100.302 9.24301 100.172 9.22592 100.059C9.20884 99.9443 9.18321 99.8477 9.14904 99.7692C9.11658 99.6889 9.07558 99.6239 9.02603 99.5744C8.97649 99.5231 8.92011 99.4864 8.8569 99.4642C8.79368 99.4403 8.72278 99.4283 8.64419 99.4283C8.54852 99.4283 8.4631 99.4471 8.38793 99.4847C8.31275 99.5206 8.24954 99.5787 8.19829 99.659C8.14703 99.7393 8.10774 99.8452 8.0804 99.9767C8.05478 100.107 8.04196 100.265 8.04196 100.451V101.24C8.04196 101.39 8.05051 101.523 8.06759 101.637C8.08467 101.752 8.1103 101.85 8.14447 101.932C8.17864 102.012 8.21964 102.079 8.26748 102.132C8.31702 102.183 8.3734 102.221 8.43662 102.245C8.50154 102.269 8.57244 102.281 8.64932 102.281C8.7467 102.281 8.83298 102.262 8.90815 102.224C8.98332 102.187 9.04654 102.127 9.09779 102.045C9.14904 101.961 9.18748 101.853 9.21311 101.719C9.23874 101.586 9.25155 101.426 9.25155 101.24ZM10.4816 102.414C10.4816 102.318 10.5141 102.238 10.579 102.173C10.6439 102.106 10.7319 102.073 10.843 102.073C10.9557 102.073 11.0437 102.106 11.1069 102.173C11.1719 102.238 11.2043 102.318 11.2043 102.414C11.2043 102.51 11.1719 102.59 11.1069 102.655C11.0437 102.72 10.9557 102.752 10.843 102.752C10.7319 102.752 10.6439 102.72 10.579 102.655C10.5141 102.59 10.4816 102.51 10.4816 102.414ZM12.6061 100.576H12.9751C13.1186 100.576 13.2374 100.552 13.3313 100.502C13.427 100.453 13.4979 100.384 13.544 100.297C13.5902 100.21 13.6132 100.11 13.6132 99.9972C13.6132 99.8794 13.5919 99.7786 13.5492 99.6948C13.5082 99.6094 13.445 99.5436 13.3595 99.4975C13.2758 99.4514 13.169 99.4283 13.0392 99.4283C12.9299 99.4283 12.8308 99.4505 12.7419 99.495C12.6548 99.5377 12.5856 99.5992 12.5344 99.6795C12.4831 99.7581 12.4575 99.852 12.4575 99.9614H11.8373C11.8373 99.7632 11.8894 99.5872 11.9936 99.4334C12.0978 99.2797 12.2396 99.1592 12.419 99.0721C12.6001 98.9833 12.8034 98.9389 13.0289 98.9389C13.2698 98.9389 13.48 98.979 13.6594 99.0593C13.8405 99.1379 13.9814 99.2558 14.0822 99.4129C14.183 99.5701 14.2334 99.7649 14.2334 99.9972C14.2334 100.103 14.2086 100.211 14.1591 100.32C14.1095 100.429 14.0361 100.529 13.9387 100.62C13.8413 100.709 13.72 100.781 13.5748 100.838C13.4296 100.892 13.2613 100.92 13.07 100.92H12.6061V100.576ZM12.6061 101.058V100.72H13.07C13.2886 100.72 13.4749 100.746 13.6286 100.797C13.7841 100.848 13.9105 100.919 14.0079 101.01C14.1053 101.098 14.1762 101.2 14.2206 101.314C14.2667 101.429 14.2898 101.55 14.2898 101.678C14.2898 101.853 14.2582 102.008 14.195 102.145C14.1335 102.28 14.0455 102.394 13.931 102.488C13.8165 102.582 13.6824 102.653 13.5287 102.701C13.3766 102.749 13.2109 102.773 13.0315 102.773C12.8709 102.773 12.7172 102.75 12.5702 102.706C12.4233 102.662 12.2918 102.596 12.1756 102.509C12.0594 102.42 11.9671 102.31 11.8988 102.178C11.8322 102.045 11.7989 101.891 11.7989 101.717H12.4165C12.4165 101.828 12.4421 101.926 12.4933 102.012C12.5463 102.095 12.6198 102.161 12.7137 102.209C12.8094 102.257 12.9188 102.281 13.0418 102.281C13.1716 102.281 13.2835 102.258 13.3775 102.211C13.4714 102.165 13.5432 102.097 13.5927 102.006C13.644 101.916 13.6696 101.806 13.6696 101.678C13.6696 101.533 13.6414 101.415 13.5851 101.325C13.5287 101.234 13.4484 101.168 13.3442 101.125C13.2399 101.08 13.1169 101.058 12.9751 101.058H12.6061Z" fill="#A7A7A7"/>
<path d="M9.86916 85.0895V85.6995C9.86916 85.9916 9.84011 86.241 9.78203 86.4478C9.72565 86.6528 9.64364 86.8194 9.53601 86.9475C9.42838 87.0756 9.29939 87.1696 9.14904 87.2294C9.00041 87.2892 8.83383 87.3191 8.64932 87.3191C8.50239 87.3191 8.36572 87.3003 8.23929 87.2627C8.11457 87.2251 8.00181 87.1662 7.90102 87.0859C7.80022 87.0056 7.71394 86.9022 7.64218 86.7758C7.57214 86.6477 7.51747 86.4947 7.47817 86.3171C7.44059 86.1394 7.42179 85.9335 7.42179 85.6995V85.0895C7.42179 84.7957 7.45084 84.548 7.50892 84.3464C7.56701 84.1431 7.64987 83.9782 7.7575 83.8518C7.86514 83.7236 7.99327 83.6305 8.14191 83.5724C8.29225 83.5143 8.45968 83.4853 8.64419 83.4853C8.79283 83.4853 8.92951 83.5041 9.05422 83.5417C9.18065 83.5776 9.29341 83.6348 9.3925 83.7134C9.4933 83.792 9.57872 83.8945 9.64877 84.0209C9.72052 84.1456 9.77519 84.2968 9.81278 84.4745C9.85036 84.6505 9.86916 84.8555 9.86916 85.0895ZM9.25155 85.7866V84.9973C9.25155 84.8486 9.24301 84.7179 9.22592 84.6052C9.20884 84.4907 9.18321 84.3942 9.14904 84.3156C9.11658 84.2353 9.07558 84.1704 9.02603 84.1208C8.97649 84.0696 8.92011 84.0329 8.8569 84.0106C8.79368 83.9867 8.72278 83.9748 8.64419 83.9748C8.54852 83.9748 8.4631 83.9936 8.38793 84.0312C8.31275 84.067 8.24954 84.1251 8.19829 84.2054C8.14703 84.2857 8.10774 84.3916 8.0804 84.5232C8.05478 84.653 8.04196 84.8111 8.04196 84.9973V85.7866C8.04196 85.9369 8.05051 86.0693 8.06759 86.1838C8.08467 86.2983 8.1103 86.3965 8.14447 86.4785C8.17864 86.5588 8.21964 86.6254 8.26748 86.6784C8.31702 86.7297 8.3734 86.7672 8.43662 86.7912C8.50154 86.8151 8.57244 86.827 8.64932 86.827C8.7467 86.827 8.83298 86.8082 8.90815 86.7707C8.98332 86.7331 9.04654 86.6733 9.09779 86.5913C9.14904 86.5076 9.18748 86.3991 9.21311 86.2658C9.23874 86.1326 9.25155 85.9728 9.25155 85.7866ZM10.4816 86.9603C10.4816 86.8646 10.5141 86.7843 10.579 86.7194C10.6439 86.6528 10.7319 86.6195 10.843 86.6195C10.9557 86.6195 11.0437 86.6528 11.1069 86.7194C11.1719 86.7843 11.2043 86.8646 11.2043 86.9603C11.2043 87.056 11.1719 87.1363 11.1069 87.2012C11.0437 87.2661 10.9557 87.2986 10.843 87.2986C10.7319 87.2986 10.6439 87.2661 10.579 87.2012C10.5141 87.1363 10.4816 87.056 10.4816 86.9603ZM14.4512 85.9378V86.4298H11.7604L11.7399 86.0582L13.3493 83.5366H13.8439L13.3083 84.454L12.3832 85.9378H14.4512ZM13.9848 83.5366V87.2678H13.3672V83.5366H13.9848Z" fill="#A7A7A7"/>
<path d="M9.86916 69.6359V70.2458C9.86916 70.538 9.84011 70.7874 9.78203 70.9941C9.72565 71.1991 9.64364 71.3657 9.53601 71.4938C9.42838 71.622 9.29939 71.7159 9.14904 71.7757C9.00041 71.8355 8.83383 71.8654 8.64932 71.8654C8.50239 71.8654 8.36572 71.8466 8.23929 71.8091C8.11457 71.7715 8.00181 71.7125 7.90102 71.6322C7.80022 71.5519 7.71394 71.4486 7.64218 71.3221C7.57214 71.194 7.51747 71.0411 7.47817 70.8634C7.44059 70.6857 7.42179 70.4799 7.42179 70.2458V69.6359C7.42179 69.342 7.45084 69.0943 7.50892 68.8927C7.56701 68.6894 7.64987 68.5245 7.7575 68.3981C7.86514 68.27 7.99327 68.1769 8.14191 68.1188C8.29225 68.0607 8.45968 68.0317 8.64419 68.0317C8.79283 68.0317 8.92951 68.0504 9.05422 68.088C9.18065 68.1239 9.29341 68.1811 9.3925 68.2597C9.4933 68.3383 9.57872 68.4408 9.64877 68.5673C9.72052 68.692 9.77519 68.8432 9.81278 69.0209C9.85036 69.1968 9.86916 69.4018 9.86916 69.6359ZM9.25155 70.3329V69.5436C9.25155 69.395 9.24301 69.2643 9.22592 69.1515C9.20884 69.0371 9.18321 68.9406 9.14904 68.862C9.11658 68.7817 9.07558 68.7167 9.02603 68.6672C8.97649 68.6159 8.92011 68.5792 8.8569 68.557C8.79368 68.5331 8.72278 68.5211 8.64419 68.5211C8.54852 68.5211 8.4631 68.5399 8.38793 68.5775C8.31275 68.6134 8.24954 68.6715 8.19829 68.7518C8.14703 68.8321 8.10774 68.938 8.0804 69.0695C8.05478 69.1994 8.04196 69.3574 8.04196 69.5436V70.3329C8.04196 70.4833 8.05051 70.6157 8.06759 70.7302C8.08467 70.8446 8.1103 70.9429 8.14447 71.0249C8.17864 71.1052 8.21964 71.1718 8.26748 71.2248C8.31702 71.276 8.3734 71.3136 8.43662 71.3375C8.50154 71.3614 8.57244 71.3734 8.64932 71.3734C8.7467 71.3734 8.83298 71.3546 8.90815 71.317C8.98332 71.2794 9.04654 71.2196 9.09779 71.1376C9.14904 71.0539 9.18748 70.9454 9.21311 70.8122C9.23874 70.6789 9.25155 70.5192 9.25155 70.3329ZM10.4816 71.5067C10.4816 71.411 10.5141 71.3307 10.579 71.2658C10.6439 71.1991 10.7319 71.1658 10.843 71.1658C10.9557 71.1658 11.0437 71.1991 11.1069 71.2658C11.1719 71.3307 11.2043 71.411 11.2043 71.5067C11.2043 71.6023 11.1719 71.6826 11.1069 71.7475C11.0437 71.8125 10.9557 71.8449 10.843 71.8449C10.7319 71.8449 10.6439 71.8125 10.579 71.7475C10.5141 71.6826 10.4816 71.6023 10.4816 71.5067ZM12.5292 70.0792L12.0372 69.9588L12.2396 68.0829H14.2514V68.6057H12.7522L12.6497 69.5206C12.7078 69.4864 12.7881 69.4531 12.8906 69.4206C12.9931 69.3865 13.1101 69.3694 13.2417 69.3694C13.4176 69.3694 13.5748 69.3984 13.7132 69.4565C13.8533 69.5129 13.972 69.5957 14.0694 69.7051C14.1668 69.8127 14.2411 69.9443 14.2924 70.0997C14.3436 70.2535 14.3692 70.4269 14.3692 70.62C14.3692 70.7925 14.3436 70.954 14.2924 71.1043C14.2428 71.2547 14.1676 71.3871 14.0668 71.5015C13.966 71.616 13.8388 71.7057 13.685 71.7706C13.5329 71.8338 13.3527 71.8654 13.1443 71.8654C12.9888 71.8654 12.8393 71.8432 12.6958 71.7988C12.554 71.7527 12.4267 71.6852 12.314 71.5964C12.2012 71.5058 12.1107 71.3948 12.0423 71.2632C11.974 71.1299 11.9347 70.977 11.9244 70.8045H12.5292C12.5446 70.9258 12.5779 71.0291 12.6292 71.1146C12.6821 71.1983 12.7522 71.2623 12.8393 71.3068C12.9264 71.3512 13.0272 71.3734 13.1417 71.3734C13.2459 71.3734 13.3356 71.3555 13.4108 71.3196C13.486 71.282 13.5483 71.229 13.5979 71.1607C13.6491 71.0906 13.6867 71.0086 13.7106 70.9147C13.7363 70.8207 13.7491 70.7165 13.7491 70.602C13.7491 70.4927 13.7345 70.3927 13.7055 70.3022C13.6782 70.2116 13.6363 70.1331 13.5799 70.0664C13.5253 69.9998 13.4561 69.9485 13.3723 69.9127C13.2886 69.8751 13.1921 69.8563 13.0828 69.8563C12.9358 69.8563 12.8231 69.8776 12.7445 69.9204C12.6676 69.9631 12.5959 70.016 12.5292 70.0792Z" fill="#A7A7A7"/>
<path d="M9.86916 54.1823V54.7923C9.86916 55.0844 9.84011 55.3338 9.78203 55.5406C9.72565 55.7456 9.64364 55.9122 9.53601 56.0403C9.42838 56.1684 9.29939 56.2624 9.14904 56.3222C9.00041 56.382 8.83383 56.4119 8.64932 56.4119C8.50239 56.4119 8.36572 56.3931 8.23929 56.3555C8.11457 56.3179 8.00181 56.259 7.90102 56.1787C7.80022 56.0984 7.71394 55.995 7.64218 55.8686C7.57214 55.7405 7.51747 55.5875 7.47817 55.4099C7.44059 55.2322 7.42179 55.0263 7.42179 54.7923V54.1823C7.42179 53.8885 7.45084 53.6408 7.50892 53.4392C7.56701 53.2359 7.64987 53.071 7.7575 52.9446C7.86514 52.8164 7.99327 52.7233 8.14191 52.6652C8.29225 52.6071 8.45968 52.5781 8.64419 52.5781C8.79283 52.5781 8.92951 52.5969 9.05422 52.6345C9.18065 52.6704 9.29341 52.7276 9.3925 52.8062C9.4933 52.8848 9.57872 52.9873 9.64877 53.1137C9.72052 53.2384 9.77519 53.3896 9.81278 53.5673C9.85036 53.7433 9.86916 53.9483 9.86916 54.1823ZM9.25155 54.8794V54.0901C9.25155 53.9415 9.24301 53.8108 9.22592 53.698C9.20884 53.5835 9.18321 53.487 9.14904 53.4084C9.11658 53.3281 9.07558 53.2632 9.02603 53.2136C8.97649 53.1624 8.92011 53.1257 8.8569 53.1035C8.79368 53.0795 8.72278 53.0676 8.64419 53.0676C8.54852 53.0676 8.4631 53.0864 8.38793 53.124C8.31275 53.1598 8.24954 53.2179 8.19829 53.2982C8.14703 53.3785 8.10774 53.4844 8.0804 53.616C8.05478 53.7458 8.04196 53.9039 8.04196 54.0901V54.8794C8.04196 55.0297 8.05051 55.1621 8.06759 55.2766C8.08467 55.3911 8.1103 55.4893 8.14447 55.5713C8.17864 55.6516 8.21964 55.7182 8.26748 55.7712C8.31702 55.8225 8.3734 55.86 8.43662 55.884C8.50154 55.9079 8.57244 55.9198 8.64932 55.9198C8.7467 55.9198 8.83298 55.9011 8.90815 55.8635C8.98332 55.8259 9.04654 55.7661 9.09779 55.6841C9.14904 55.6004 9.18748 55.4919 9.21311 55.3586C9.23874 55.2254 9.25155 55.0656 9.25155 54.8794ZM10.4816 56.0531C10.4816 55.9574 10.5141 55.8771 10.579 55.8122C10.6439 55.7456 10.7319 55.7123 10.843 55.7123C10.9557 55.7123 11.0437 55.7456 11.1069 55.8122C11.1719 55.8771 11.2043 55.9574 11.2043 56.0531C11.2043 56.1488 11.1719 56.2291 11.1069 56.294C11.0437 56.3589 10.9557 56.3914 10.843 56.3914C10.7319 56.3914 10.6439 56.3589 10.579 56.294C10.5141 56.2291 10.4816 56.1488 10.4816 56.0531ZM13.7465 52.6063H13.8234V53.1111H13.7798C13.5594 53.1111 13.3689 53.1453 13.2083 53.2136C13.0495 53.282 12.9188 53.376 12.8162 53.4955C12.7137 53.6151 12.6369 53.7552 12.5856 53.9158C12.5361 54.0747 12.5113 54.2438 12.5113 54.4232V55.0101C12.5113 55.1587 12.5275 55.2903 12.56 55.4047C12.5924 55.5175 12.6377 55.6123 12.6958 55.6892C12.7556 55.7644 12.8239 55.8216 12.9008 55.8609C12.9777 55.9002 13.0606 55.9198 13.1494 55.9198C13.2417 55.9198 13.3254 55.9011 13.4005 55.8635C13.4757 55.8242 13.5398 55.7704 13.5927 55.702C13.6457 55.6337 13.6859 55.5525 13.7132 55.4586C13.7405 55.3646 13.7542 55.2621 13.7542 55.151C13.7542 55.0451 13.7405 54.946 13.7132 54.8538C13.6876 54.7598 13.6491 54.6778 13.5979 54.6077C13.5466 54.536 13.4825 54.4805 13.4057 54.4412C13.3305 54.4002 13.2434 54.3797 13.1443 54.3797C13.0213 54.3797 12.9094 54.4087 12.8086 54.4668C12.7095 54.5249 12.6292 54.6009 12.5677 54.6949C12.5079 54.7871 12.4754 54.8854 12.4703 54.9896L12.2345 54.9127C12.2482 54.7538 12.2832 54.6112 12.3396 54.4847C12.3977 54.3583 12.4737 54.2507 12.5677 54.1618C12.6616 54.073 12.7701 54.0055 12.8931 53.9594C13.0178 53.9116 13.1545 53.8876 13.3032 53.8876C13.4843 53.8876 13.6414 53.9218 13.7747 53.9901C13.908 54.0585 14.0181 54.1516 14.1053 54.2695C14.1941 54.3856 14.2599 54.5189 14.3026 54.6693C14.347 54.8179 14.3692 54.9734 14.3692 55.1357C14.3692 55.3151 14.3419 55.4825 14.2872 55.6379C14.2326 55.7917 14.1523 55.9267 14.0463 56.0429C13.9421 56.159 13.8148 56.2496 13.6645 56.3145C13.5159 56.3794 13.3467 56.4119 13.1571 56.4119C12.9572 56.4119 12.7787 56.3734 12.6215 56.2966C12.466 56.2197 12.3336 56.1138 12.2243 55.9788C12.1166 55.8438 12.0346 55.6883 11.9782 55.5124C11.9219 55.3364 11.8937 55.1502 11.8937 54.9537V54.6974C11.8937 54.4138 11.9296 54.1465 12.0013 53.8953C12.0731 53.6425 12.1833 53.4195 12.3319 53.2265C12.4822 53.0334 12.6744 52.8822 12.9085 52.7729C13.1426 52.6618 13.4219 52.6063 13.7465 52.6063Z" fill="#A7A7A7"/>
<path d="M9.86916 38.7288V39.3387C9.86916 39.6309 9.84011 39.8803 9.78203 40.087C9.72565 40.2921 9.64364 40.4586 9.53601 40.5868C9.42838 40.7149 9.29939 40.8089 9.14904 40.8687C9.00041 40.9285 8.83383 40.9584 8.64932 40.9584C8.50239 40.9584 8.36572 40.9396 8.23929 40.902C8.11457 40.8644 8.00181 40.8055 7.90102 40.7252C7.80022 40.6449 7.71394 40.5415 7.64218 40.4151C7.57214 40.2869 7.51747 40.134 7.47817 39.9563C7.44059 39.7787 7.42179 39.5728 7.42179 39.3387V38.7288C7.42179 38.435 7.45084 38.1872 7.50892 37.9856C7.56701 37.7823 7.64987 37.6175 7.7575 37.491C7.86514 37.3629 7.99327 37.2698 8.14191 37.2117C8.29225 37.1536 8.45968 37.1246 8.64419 37.1246C8.79283 37.1246 8.92951 37.1434 9.05422 37.181C9.18065 37.2168 9.29341 37.2741 9.3925 37.3527C9.4933 37.4312 9.57872 37.5338 9.64877 37.6602C9.72052 37.7849 9.77519 37.9361 9.81278 38.1138C9.85036 38.2897 9.86916 38.4948 9.86916 38.7288ZM9.25155 39.4259V38.6366C9.25155 38.4879 9.24301 38.3572 9.22592 38.2445C9.20884 38.13 9.18321 38.0335 9.14904 37.9549C9.11658 37.8746 9.07558 37.8097 9.02603 37.7601C8.97649 37.7089 8.92011 37.6721 8.8569 37.6499C8.79368 37.626 8.72278 37.6141 8.64419 37.6141C8.54852 37.6141 8.4631 37.6328 8.38793 37.6704C8.31275 37.7063 8.24954 37.7644 8.19829 37.8447C8.14703 37.925 8.10774 38.0309 8.0804 38.1625C8.05478 38.2923 8.04196 38.4503 8.04196 38.6366V39.4259C8.04196 39.5762 8.05051 39.7086 8.06759 39.8231C8.08467 39.9376 8.1103 40.0358 8.14447 40.1178C8.17864 40.1981 8.21964 40.2647 8.26748 40.3177C8.31702 40.3689 8.3734 40.4065 8.43662 40.4304C8.50154 40.4544 8.57244 40.4663 8.64932 40.4663C8.7467 40.4663 8.83298 40.4475 8.90815 40.4099C8.98332 40.3724 9.04654 40.3126 9.09779 40.2306C9.14904 40.1468 9.18748 40.0384 9.21311 39.9051C9.23874 39.7718 9.25155 39.6121 9.25155 39.4259ZM10.4816 40.5996C10.4816 40.5039 10.5141 40.4236 10.579 40.3587C10.6439 40.2921 10.7319 40.2587 10.843 40.2587C10.9557 40.2587 11.0437 40.2921 11.1069 40.3587C11.1719 40.4236 11.2043 40.5039 11.2043 40.5996C11.2043 40.6953 11.1719 40.7756 11.1069 40.8405C11.0437 40.9054 10.9557 40.9379 10.843 40.9379C10.7319 40.9379 10.6439 40.9054 10.579 40.8405C10.5141 40.7756 10.4816 40.6953 10.4816 40.5996ZM14.359 37.1758V37.5141L12.8675 40.9071H12.2166L13.7055 37.6679H11.7732V37.1758H14.359Z" fill="#A7A7A7"/>
<path d="M9.86916 23.2753V23.8852C9.86916 24.1773 9.84011 24.4268 9.78203 24.6335C9.72565 24.8385 9.64364 25.0051 9.53601 25.1332C9.42838 25.2614 9.29939 25.3553 9.14904 25.4151C9.00041 25.4749 8.83383 25.5048 8.64932 25.5048C8.50239 25.5048 8.36572 25.486 8.23929 25.4484C8.11457 25.4108 8.00181 25.3519 7.90102 25.2716C7.80022 25.1913 7.71394 25.0879 7.64218 24.9615C7.57214 24.8334 7.51747 24.6805 7.47817 24.5028C7.44059 24.3251 7.42179 24.1192 7.42179 23.8852V23.2753C7.42179 22.9814 7.45084 22.7337 7.50892 22.5321C7.56701 22.3288 7.64987 22.1639 7.7575 22.0375C7.86514 21.9094 7.99327 21.8162 8.14191 21.7582C8.29225 21.7001 8.45968 21.671 8.64419 21.671C8.79283 21.671 8.92951 21.6898 9.05422 21.7274C9.18065 21.7633 9.29341 21.8205 9.3925 21.8991C9.4933 21.9777 9.57872 22.0802 9.64877 22.2066C9.72052 22.3313 9.77519 22.4825 9.81278 22.6602C9.85036 22.8362 9.86916 23.0412 9.86916 23.2753ZM9.25155 23.9723V23.183C9.25155 23.0344 9.24301 22.9037 9.22592 22.7909C9.20884 22.6765 9.18321 22.5799 9.14904 22.5013C9.11658 22.421 9.07558 22.3561 9.02603 22.3066C8.97649 22.2553 8.92011 22.2186 8.8569 22.1964C8.79368 22.1725 8.72278 22.1605 8.64419 22.1605C8.54852 22.1605 8.4631 22.1793 8.38793 22.2169C8.31275 22.2528 8.24954 22.3108 8.19829 22.3911C8.14703 22.4714 8.10774 22.5774 8.0804 22.7089C8.05478 22.8388 8.04196 22.9968 8.04196 23.183V23.9723C8.04196 24.1227 8.05051 24.2551 8.06759 24.3695C8.08467 24.484 8.1103 24.5822 8.14447 24.6642C8.17864 24.7445 8.21964 24.8112 8.26748 24.8641C8.31702 24.9154 8.3734 24.953 8.43662 24.9769C8.50154 25.0008 8.57244 25.0128 8.64932 25.0128C8.7467 25.0128 8.83298 24.994 8.90815 24.9564C8.98332 24.9188 9.04654 24.859 9.09779 24.777C9.14904 24.6933 9.18748 24.5848 9.21311 24.4515C9.23874 24.3183 9.25155 24.1585 9.25155 23.9723ZM10.4816 25.146C10.4816 25.0504 10.5141 24.9701 10.579 24.9051C10.6439 24.8385 10.7319 24.8052 10.843 24.8052C10.9557 24.8052 11.0437 24.8385 11.1069 24.9051C11.1719 24.9701 11.2043 25.0504 11.2043 25.146C11.2043 25.2417 11.1719 25.322 11.1069 25.3869C11.0437 25.4518 10.9557 25.4843 10.843 25.4843C10.7319 25.4843 10.6439 25.4518 10.579 25.3869C10.5141 25.322 10.4816 25.2417 10.4816 25.146ZM14.3205 24.4362C14.3205 24.6685 14.2667 24.8641 14.1591 25.023C14.0515 25.1819 13.9045 25.3024 13.7183 25.3844C13.5338 25.4647 13.3254 25.5048 13.093 25.5048C12.8607 25.5048 12.6514 25.4647 12.4652 25.3844C12.2789 25.3024 12.132 25.1819 12.0244 25.023C11.9167 24.8641 11.8629 24.6685 11.8629 24.4362C11.8629 24.2824 11.8928 24.1432 11.9526 24.0184C12.0124 23.892 12.097 23.7835 12.2063 23.693C12.3174 23.6007 12.4472 23.5298 12.5959 23.4803C12.7462 23.4307 12.9102 23.406 13.0879 23.406C13.3237 23.406 13.5347 23.4495 13.7209 23.5367C13.9071 23.6238 14.0532 23.7442 14.1591 23.898C14.2667 24.0518 14.3205 24.2312 14.3205 24.4362ZM13.7004 24.4054C13.7004 24.2807 13.6747 24.1714 13.6235 24.0774C13.5722 23.9834 13.5005 23.9108 13.4082 23.8596C13.316 23.8083 13.2092 23.7827 13.0879 23.7827C12.9649 23.7827 12.8581 23.8083 12.7676 23.8596C12.677 23.9108 12.6061 23.9834 12.5549 24.0774C12.5053 24.1714 12.4805 24.2807 12.4805 24.4054C12.4805 24.5318 12.5053 24.6412 12.5549 24.7334C12.6044 24.824 12.6753 24.8932 12.7676 24.941C12.8598 24.9889 12.9683 25.0128 13.093 25.0128C13.2177 25.0128 13.3254 24.9889 13.4159 24.941C13.5065 24.8932 13.5765 24.824 13.6261 24.7334C13.6756 24.6412 13.7004 24.5318 13.7004 24.4054ZM14.236 22.7038C14.236 22.89 14.1864 23.0557 14.0873 23.201C13.99 23.3462 13.855 23.4606 13.6824 23.5444C13.5099 23.6264 13.3134 23.6674 13.093 23.6674C12.8709 23.6674 12.6727 23.6264 12.4985 23.5444C12.3259 23.4606 12.1901 23.3462 12.091 23.201C11.9936 23.0557 11.9449 22.89 11.9449 22.7038C11.9449 22.4817 11.9936 22.2946 12.091 22.1426C12.1901 21.9888 12.3259 21.8718 12.4985 21.7915C12.671 21.7112 12.8684 21.671 13.0905 21.671C13.3126 21.671 13.5099 21.7112 13.6824 21.7915C13.855 21.8718 13.99 21.9888 14.0873 22.1426C14.1864 22.2946 14.236 22.4817 14.236 22.7038ZM13.6184 22.7243C13.6184 22.6132 13.5962 22.5159 13.5517 22.4321C13.509 22.3467 13.4484 22.2801 13.3698 22.2323C13.2912 22.1844 13.1981 22.1605 13.0905 22.1605C12.9828 22.1605 12.8897 22.1836 12.8111 22.2297C12.7325 22.2758 12.6719 22.3407 12.6292 22.4245C12.5865 22.5082 12.5651 22.6081 12.5651 22.7243C12.5651 22.8388 12.5865 22.9387 12.6292 23.0241C12.6719 23.1078 12.7325 23.1736 12.8111 23.2215C12.8914 23.2693 12.9854 23.2932 13.093 23.2932C13.2006 23.2932 13.2938 23.2693 13.3723 23.2215C13.4509 23.1736 13.5116 23.1078 13.5543 23.0241C13.597 22.9387 13.6184 22.8388 13.6184 22.7243Z" fill="#A7A7A7"/>
<path d="M9.86916 7.82172V8.43164C9.86916 8.72378 9.84011 8.97322 9.78203 9.17994C9.72565 9.38496 9.64364 9.55153 9.53601 9.67966C9.42838 9.8078 9.29939 9.90176 9.14904 9.96156C9.00041 10.0214 8.83383 10.0513 8.64932 10.0513C8.50239 10.0513 8.36572 10.0325 8.23929 9.99487C8.11457 9.95729 8.00181 9.89835 7.90102 9.81805C7.80022 9.73775 7.71394 9.63439 7.64218 9.50796C7.57214 9.37983 7.51747 9.22692 7.47817 9.04924C7.44059 8.87156 7.42179 8.66569 7.42179 8.43164V7.82172C7.42179 7.52786 7.45084 7.28014 7.50892 7.07854C7.56701 6.87523 7.64987 6.71037 7.7575 6.58394C7.86514 6.45581 7.99327 6.36269 8.14191 6.30461C8.29225 6.24652 8.45968 6.21748 8.64419 6.21748C8.79283 6.21748 8.92951 6.23627 9.05422 6.27385C9.18065 6.30973 9.29341 6.36697 9.3925 6.44555C9.4933 6.52414 9.57872 6.62665 9.64877 6.75308C9.72052 6.87779 9.77519 7.02899 9.81278 7.20667C9.85036 7.38264 9.86916 7.58766 9.86916 7.82172ZM9.25155 8.51877V7.72946C9.25155 7.58082 9.24301 7.45013 9.22592 7.33737C9.20884 7.2229 9.18321 7.12637 9.14904 7.04779C9.11658 6.96749 9.07558 6.90257 9.02603 6.85302C8.97649 6.80177 8.92011 6.76504 8.8569 6.74283C8.79368 6.71891 8.72278 6.70695 8.64419 6.70695C8.54852 6.70695 8.4631 6.72574 8.38793 6.76333C8.31275 6.79921 8.24954 6.85729 8.19829 6.93759C8.14703 7.01789 8.10774 7.12381 8.0804 7.25536C8.05478 7.38521 8.04196 7.54324 8.04196 7.72946V8.51877C8.04196 8.66911 8.05051 8.80152 8.06759 8.91598C8.08467 9.03045 8.1103 9.12869 8.14447 9.21069C8.17864 9.29099 8.21964 9.35762 8.26748 9.41058C8.31702 9.46184 8.3734 9.49942 8.43662 9.52334C8.50154 9.54726 8.57244 9.55922 8.64932 9.55922C8.7467 9.55922 8.83298 9.54043 8.90815 9.50284C8.98332 9.46525 9.04654 9.40546 9.09779 9.32345C9.14904 9.23974 9.18748 9.13125 9.21311 8.99799C9.23874 8.86473 9.25155 8.70499 9.25155 8.51877ZM10.4816 9.69248C10.4816 9.5968 10.5141 9.51651 10.579 9.45159C10.6439 9.38496 10.7319 9.35164 10.843 9.35164C10.9557 9.35164 11.0437 9.38496 11.1069 9.45159C11.1719 9.51651 11.2043 9.5968 11.2043 9.69248C11.2043 9.78815 11.1719 9.86845 11.1069 9.93337C11.0437 9.99829 10.9557 10.0308 10.843 10.0308C10.7319 10.0308 10.6439 9.99829 10.579 9.93337C10.5141 9.86845 10.4816 9.78815 10.4816 9.69248ZM12.378 9.51309H12.4293C12.665 9.51309 12.8615 9.48234 13.0187 9.42083C13.1776 9.35762 13.304 9.27049 13.398 9.15944C13.4919 9.04839 13.5594 8.91769 13.6004 8.76735C13.6414 8.617 13.6619 8.45385 13.6619 8.27788V7.63464C13.6619 7.48259 13.6457 7.34933 13.6132 7.23486C13.5825 7.11869 13.5381 7.02216 13.48 6.94528C13.4236 6.86669 13.3578 6.80775 13.2827 6.76845C13.2092 6.72916 13.1297 6.70951 13.0443 6.70951C12.9504 6.70951 12.8658 6.73087 12.7906 6.77358C12.7172 6.81458 12.6548 6.87181 12.6035 6.94528C12.554 7.01703 12.5156 7.1016 12.4882 7.19898C12.4626 7.29466 12.4498 7.39717 12.4498 7.50651C12.4498 7.60901 12.4617 7.7081 12.4857 7.80378C12.5113 7.89774 12.5489 7.98146 12.5984 8.05492C12.648 8.12839 12.7103 8.18647 12.7855 8.22918C12.8607 8.2719 12.9487 8.29325 13.0495 8.29325C13.1451 8.29325 13.2331 8.27531 13.3134 8.23943C13.3937 8.20185 13.4638 8.15145 13.5235 8.08824C13.5833 8.02502 13.6303 7.95412 13.6645 7.87553C13.6987 7.79694 13.7175 7.71665 13.7209 7.63464L13.9566 7.7064C13.9566 7.83624 13.9293 7.96437 13.8746 8.0908C13.8217 8.21552 13.7474 8.32998 13.6517 8.4342C13.5577 8.53671 13.4475 8.61871 13.3211 8.68022C13.1964 8.74172 13.0606 8.77247 12.9136 8.77247C12.7359 8.77247 12.5788 8.73916 12.4421 8.67253C12.3071 8.60419 12.1944 8.51193 12.1038 8.39576C12.015 8.27958 11.9484 8.14632 11.9039 7.99598C11.8595 7.84564 11.8373 7.6876 11.8373 7.52188C11.8373 7.34249 11.8646 7.17421 11.9193 7.01703C11.974 6.85986 12.0534 6.72147 12.1576 6.60188C12.2619 6.48058 12.3883 6.38661 12.5369 6.31998C12.6873 6.25164 12.8572 6.21748 13.0469 6.21748C13.2485 6.21748 13.4253 6.25677 13.5774 6.33536C13.7294 6.41395 13.8576 6.52244 13.9618 6.66082C14.066 6.79921 14.1446 6.9598 14.1975 7.14261C14.2505 7.32541 14.277 7.52188 14.277 7.73202V7.94985C14.277 8.17024 14.2573 8.38295 14.218 8.58796C14.1787 8.79127 14.1147 8.98005 14.0258 9.15431C13.9387 9.32687 13.8234 9.47892 13.6799 9.61047C13.5381 9.74031 13.3638 9.84197 13.1571 9.91543C12.9521 9.98719 12.7112 10.0231 12.4344 10.0231H12.378V9.51309Z" fill="#A7A7A7"/>
<path d="M19.2747 152.919V150.308H19.9153V152.919C19.9153 153.167 19.8624 153.378 19.7565 153.552C19.6505 153.726 19.5062 153.859 19.3234 153.952C19.1406 154.044 18.933 154.09 18.7006 154.09C18.4632 154.09 18.2522 154.05 18.0677 153.97C17.8848 153.889 17.7413 153.766 17.6371 153.601C17.5329 153.435 17.4808 153.225 17.4808 152.97H18.1266C18.1266 153.117 18.1497 153.236 18.1958 153.326C18.2436 153.415 18.3103 153.48 18.3957 153.521C18.4828 153.56 18.5845 153.58 18.7006 153.58C18.8117 153.58 18.9099 153.555 18.9953 153.506C19.0825 153.455 19.1508 153.38 19.2004 153.283C19.2499 153.184 19.2747 153.062 19.2747 152.919ZM22.1577 153.483V152.16C22.1577 152.061 22.1398 151.976 22.1039 151.904C22.068 151.832 22.0133 151.777 21.9399 151.738C21.8681 151.698 21.7776 151.679 21.6682 151.679C21.5674 151.679 21.4803 151.696 21.4068 151.73C21.3334 151.764 21.2761 151.81 21.2351 151.868C21.1941 151.926 21.1736 151.992 21.1736 152.066H20.5586C20.5586 151.956 20.5851 151.85 20.638 151.748C20.691 151.645 20.7679 151.554 20.8687 151.474C20.9695 151.393 21.0899 151.33 21.23 151.284C21.3701 151.238 21.5273 151.215 21.7015 151.215C21.91 151.215 22.0945 151.25 22.2551 151.32C22.4174 151.39 22.5447 151.496 22.6369 151.638C22.7309 151.778 22.7779 151.954 22.7779 152.166V153.398C22.7779 153.525 22.7864 153.638 22.8035 153.739C22.8223 153.838 22.8488 153.924 22.8829 153.998V154.039H22.25C22.2209 153.972 22.1978 153.888 22.1808 153.785C22.1654 153.681 22.1577 153.58 22.1577 153.483ZM22.2474 152.353L22.2525 152.734H21.8092C21.6947 152.734 21.5939 152.746 21.5068 152.768C21.4196 152.788 21.347 152.819 21.2889 152.86C21.2309 152.901 21.1873 152.951 21.1583 153.009C21.1292 153.067 21.1147 153.133 21.1147 153.206C21.1147 153.279 21.1318 153.347 21.1659 153.408C21.2001 153.468 21.2497 153.515 21.3146 153.549C21.3812 153.584 21.4615 153.601 21.5555 153.601C21.6819 153.601 21.7921 153.575 21.8861 153.524C21.9817 153.471 22.0569 153.407 22.1116 153.332C22.1662 153.255 22.1953 153.182 22.1987 153.114L22.3986 153.388C22.3781 153.458 22.3431 153.533 22.2935 153.613C22.244 153.694 22.1791 153.771 22.0988 153.844C22.0202 153.916 21.9253 153.975 21.8143 154.021C21.705 154.067 21.5785 154.09 21.435 154.09C21.2539 154.09 21.0925 154.054 20.9507 153.982C20.8089 153.909 20.6978 153.811 20.6175 153.688C20.5372 153.563 20.4971 153.422 20.4971 153.265C20.4971 153.118 20.5244 152.988 20.5791 152.875C20.6355 152.761 20.7175 152.665 20.8251 152.588C20.9344 152.511 21.0677 152.453 21.2249 152.414C21.3821 152.373 21.5614 152.353 21.763 152.353H22.2474ZM24.0361 151.858V154.039H23.4185V151.266H24.0003L24.0361 151.858ZM23.926 152.55L23.7261 152.547C23.7278 152.351 23.7551 152.171 23.8081 152.007C23.8627 151.843 23.9379 151.702 24.0336 151.584C24.131 151.466 24.2471 151.375 24.3821 151.312C24.5171 151.247 24.6674 151.215 24.8331 151.215C24.9664 151.215 25.0868 151.234 25.1945 151.271C25.3038 151.307 25.3969 151.366 25.4738 151.448C25.5524 151.53 25.6122 151.637 25.6532 151.768C25.6942 151.898 25.7147 152.058 25.7147 152.248V154.039H25.0945V152.245C25.0945 152.112 25.0749 152.007 25.0356 151.93C24.998 151.851 24.9425 151.796 24.869 151.763C24.7973 151.729 24.7076 151.712 24.5999 151.712C24.494 151.712 24.3992 151.734 24.3155 151.779C24.2318 151.823 24.1609 151.884 24.1028 151.961C24.0464 152.037 24.0028 152.126 23.9721 152.227C23.9413 152.328 23.926 152.435 23.926 152.55Z" fill="#A7A7A7"/>
<path d="M125.774 28.8802V26.2688H126.414V28.8802C126.414 29.1279 126.361 29.3389 126.255 29.5132C126.15 29.6874 126.005 29.8207 125.822 29.913C125.64 30.0052 125.432 30.0513 125.2 30.0513C124.962 30.0513 124.751 30.0112 124.567 29.9309C124.384 29.8506 124.24 29.7276 124.136 29.5619C124.032 29.3962 123.98 29.186 123.98 28.9315H124.626C124.626 29.0784 124.649 29.1971 124.695 29.2877C124.743 29.3765 124.809 29.4414 124.895 29.4824C124.982 29.5217 125.083 29.5414 125.2 29.5414C125.311 29.5414 125.409 29.5166 125.494 29.4671C125.581 29.4158 125.65 29.3415 125.699 29.2441C125.749 29.145 125.774 29.0237 125.774 28.8802ZM128.657 29.444V28.1216C128.657 28.0226 128.639 27.9371 128.603 27.8654C128.567 27.7936 128.512 27.7381 128.439 27.6988C128.367 27.6595 128.277 27.6399 128.167 27.6399C128.066 27.6399 127.979 27.6569 127.906 27.6911C127.832 27.7253 127.775 27.7714 127.734 27.8295C127.693 27.8876 127.673 27.9534 127.673 28.0268H127.058C127.058 27.9175 127.084 27.8116 127.137 27.7091C127.19 27.6065 127.267 27.5151 127.368 27.4348C127.468 27.3545 127.589 27.2913 127.729 27.2452C127.869 27.1991 128.026 27.176 128.201 27.176C128.409 27.176 128.594 27.211 128.754 27.2811C128.916 27.3511 129.044 27.4571 129.136 27.5989C129.23 27.7389 129.277 27.9149 129.277 28.1268V29.3594C129.277 29.4858 129.285 29.5995 129.303 29.7003C129.321 29.7993 129.348 29.8856 129.382 29.9591V30.0001H128.749C128.72 29.9335 128.697 29.8489 128.68 29.7464C128.664 29.6422 128.657 29.5414 128.657 29.444ZM128.746 28.3138L128.752 28.6957H128.308C128.194 28.6957 128.093 28.7068 128.006 28.729C127.919 28.7495 127.846 28.7803 127.788 28.8213C127.73 28.8623 127.686 28.9118 127.657 28.9699C127.628 29.028 127.614 29.0938 127.614 29.1672C127.614 29.2407 127.631 29.3082 127.665 29.3697C127.699 29.4295 127.749 29.4764 127.814 29.5106C127.88 29.5448 127.961 29.5619 128.054 29.5619C128.181 29.5619 128.291 29.5362 128.385 29.485C128.481 29.432 128.556 29.368 128.611 29.2928C128.665 29.2159 128.694 29.1433 128.698 29.075L128.898 29.3492C128.877 29.4192 128.842 29.4944 128.793 29.5747C128.743 29.655 128.678 29.7319 128.598 29.8053C128.519 29.8771 128.424 29.936 128.313 29.9822C128.204 30.0283 128.078 30.0513 127.934 30.0513C127.753 30.0513 127.591 30.0155 127.45 29.9437C127.308 29.8702 127.197 29.772 127.117 29.649C127.036 29.5243 126.996 29.3833 126.996 29.2262C126.996 29.0792 127.023 28.9494 127.078 28.8366C127.134 28.7222 127.216 28.6265 127.324 28.5496C127.433 28.4727 127.567 28.4146 127.724 28.3753C127.881 28.3343 128.06 28.3138 128.262 28.3138H128.746ZM130.535 27.8192V30.0001H129.918V27.2273H130.499L130.535 27.8192ZM130.425 28.5112L130.225 28.5086C130.227 28.3121 130.254 28.1319 130.307 27.9679C130.362 27.8039 130.437 27.6629 130.533 27.545C130.63 27.4272 130.746 27.3366 130.881 27.2734C131.016 27.2085 131.166 27.176 131.332 27.176C131.465 27.176 131.586 27.1948 131.694 27.2324C131.803 27.2683 131.896 27.3272 131.973 27.4092C132.051 27.4912 132.111 27.598 132.152 27.7296C132.193 27.8594 132.214 28.0191 132.214 28.2088V30.0001H131.594V28.2062C131.594 28.073 131.574 27.9679 131.535 27.891C131.497 27.8124 131.442 27.7569 131.368 27.7244C131.296 27.6903 131.207 27.6732 131.099 27.6732C130.993 27.6732 130.898 27.6954 130.815 27.7398C130.731 27.7842 130.66 27.8449 130.602 27.9218C130.545 27.9986 130.502 28.0875 130.471 28.1883C130.44 28.2891 130.425 28.3967 130.425 28.5112Z" fill="#A7A7A7"/>
<path d="M124.517 148.267V151.998H123.874V148.267H124.517ZM126.039 149.899V150.409H124.353V149.899H126.039ZM126.252 148.267V148.779H124.353V148.267H126.252ZM127.869 152.049C127.664 152.049 127.479 152.016 127.313 151.949C127.149 151.881 127.009 151.786 126.893 151.665C126.778 151.543 126.69 151.401 126.629 151.237C126.567 151.073 126.537 150.896 126.537 150.706V150.604C126.537 150.387 126.568 150.19 126.631 150.014C126.695 149.838 126.783 149.688 126.895 149.563C127.008 149.437 127.141 149.34 127.295 149.274C127.449 149.207 127.615 149.174 127.795 149.174C127.993 149.174 128.166 149.207 128.315 149.274C128.464 149.34 128.587 149.434 128.684 149.556C128.783 149.675 128.857 149.818 128.904 149.984C128.954 150.149 128.979 150.332 128.979 150.532V150.796H126.836V150.353H128.369V150.304C128.365 150.193 128.343 150.089 128.302 149.991C128.263 149.894 128.202 149.815 128.12 149.755C128.038 149.696 127.929 149.666 127.792 149.666C127.69 149.666 127.598 149.688 127.518 149.732C127.439 149.775 127.374 149.837 127.321 149.919C127.268 150.001 127.227 150.101 127.198 150.217C127.17 150.331 127.157 150.46 127.157 150.604V150.706C127.157 150.828 127.173 150.94 127.205 151.044C127.24 151.147 127.289 151.237 127.354 151.314C127.419 151.39 127.498 151.451 127.59 151.496C127.682 151.538 127.787 151.56 127.905 151.56C128.054 151.56 128.186 151.53 128.302 151.47C128.418 151.41 128.519 151.326 128.605 151.216L128.93 151.531C128.87 151.619 128.793 151.702 128.697 151.783C128.601 151.861 128.484 151.925 128.346 151.975C128.209 152.024 128.05 152.049 127.869 152.049ZM129.463 148.062H130.081V151.406L130.022 151.998H129.463V148.062ZM131.89 150.586V150.64C131.89 150.845 131.867 151.033 131.821 151.206C131.776 151.377 131.708 151.525 131.616 151.652C131.525 151.778 131.412 151.877 131.278 151.947C131.144 152.015 130.99 152.049 130.814 152.049C130.641 152.049 130.491 152.017 130.363 151.952C130.234 151.887 130.127 151.794 130.04 151.675C129.954 151.555 129.885 151.413 129.832 151.247C129.779 151.081 129.742 150.898 129.719 150.699V150.527C129.742 150.325 129.779 150.142 129.832 149.978C129.885 149.813 129.954 149.67 130.04 149.55C130.127 149.429 130.234 149.336 130.36 149.271C130.488 149.206 130.638 149.174 130.809 149.174C130.986 149.174 131.143 149.208 131.278 149.276C131.414 149.345 131.528 149.442 131.618 149.568C131.709 149.693 131.776 149.842 131.821 150.014C131.867 150.187 131.89 150.377 131.89 150.586ZM131.272 150.64V150.586C131.272 150.461 131.262 150.344 131.242 150.235C131.221 150.124 131.187 150.026 131.139 149.943C131.093 149.859 131.03 149.793 130.949 149.745C130.871 149.696 130.773 149.671 130.655 149.671C130.545 149.671 130.451 149.69 130.373 149.727C130.294 149.765 130.229 149.816 130.176 149.881C130.123 149.946 130.081 150.021 130.05 150.107C130.021 150.192 130.001 150.284 129.991 150.383V150.847C130.006 150.975 130.039 151.093 130.088 151.201C130.14 151.307 130.211 151.392 130.304 151.457C130.396 151.52 130.515 151.552 130.66 151.552C130.774 151.552 130.871 151.529 130.949 151.483C131.028 151.437 131.09 151.373 131.137 151.291C131.184 151.207 131.219 151.109 131.239 150.998C131.261 150.887 131.272 150.768 131.272 150.64Z" fill="#A7A7A7"/>
<path d="M182.322 119.865V123.596H181.679V119.865H182.322ZM183.845 121.497V122.007H182.158V121.497H183.845ZM184.057 119.865V120.378H182.158V119.865H184.057ZM185.674 123.647C185.469 123.647 185.284 123.614 185.118 123.548C184.954 123.479 184.814 123.384 184.698 123.263C184.583 123.142 184.495 122.999 184.434 122.835C184.372 122.671 184.342 122.494 184.342 122.305V122.202C184.342 121.985 184.373 121.789 184.437 121.613C184.5 121.437 184.588 121.286 184.7 121.162C184.813 121.035 184.947 120.939 185.1 120.872C185.254 120.805 185.421 120.772 185.6 120.772C185.798 120.772 185.972 120.805 186.12 120.872C186.269 120.939 186.392 121.033 186.489 121.154C186.588 121.274 186.662 121.416 186.71 121.582C186.759 121.748 186.784 121.93 186.784 122.13V122.394H184.642V121.951H186.174V121.902C186.171 121.791 186.148 121.687 186.107 121.59C186.068 121.492 186.007 121.414 185.925 121.354C185.843 121.294 185.734 121.264 185.597 121.264C185.495 121.264 185.404 121.286 185.323 121.331C185.245 121.374 185.179 121.436 185.126 121.518C185.073 121.6 185.032 121.699 185.003 121.815C184.976 121.93 184.962 122.059 184.962 122.202V122.305C184.962 122.426 184.978 122.539 185.011 122.643C185.045 122.745 185.094 122.835 185.159 122.912C185.224 122.989 185.303 123.05 185.395 123.094C185.487 123.137 185.592 123.158 185.71 123.158C185.859 123.158 185.991 123.128 186.107 123.068C186.224 123.009 186.324 122.924 186.41 122.815L186.735 123.13C186.675 123.217 186.598 123.301 186.502 123.381C186.406 123.46 186.289 123.524 186.151 123.573C186.014 123.623 185.855 123.647 185.674 123.647ZM187.268 119.66H187.886V123.004L187.827 123.596H187.268V119.66ZM189.695 122.184V122.238C189.695 122.443 189.672 122.632 189.626 122.804C189.582 122.975 189.513 123.124 189.421 123.25C189.33 123.377 189.218 123.475 189.083 123.545C188.949 123.613 188.795 123.647 188.619 123.647C188.446 123.647 188.296 123.615 188.168 123.55C188.04 123.485 187.932 123.393 187.845 123.273C187.759 123.154 187.69 123.011 187.637 122.845C187.584 122.68 187.547 122.497 187.525 122.297V122.125C187.547 121.924 187.584 121.741 187.637 121.577C187.69 121.411 187.759 121.268 187.845 121.149C187.932 121.028 188.039 120.934 188.165 120.87C188.293 120.805 188.443 120.772 188.614 120.772C188.791 120.772 188.948 120.806 189.083 120.875C189.219 120.943 189.333 121.04 189.424 121.167C189.514 121.292 189.582 121.44 189.626 121.613C189.672 121.785 189.695 121.976 189.695 122.184ZM189.078 122.238V122.184C189.078 122.059 189.067 121.942 189.047 121.833C189.026 121.722 188.992 121.625 188.944 121.541C188.898 121.457 188.835 121.391 188.755 121.344C188.676 121.294 188.578 121.269 188.46 121.269C188.351 121.269 188.257 121.288 188.178 121.326C188.099 121.363 188.034 121.415 187.981 121.479C187.928 121.544 187.886 121.62 187.855 121.705C187.826 121.79 187.806 121.883 187.796 121.982V122.446C187.812 122.574 187.844 122.692 187.894 122.799C187.945 122.905 188.017 122.991 188.109 123.056C188.201 123.119 188.32 123.15 188.465 123.15C188.58 123.15 188.676 123.127 188.755 123.081C188.833 123.035 188.896 122.971 188.942 122.889C188.99 122.805 189.024 122.708 189.044 122.597C189.066 122.486 189.078 122.366 189.078 122.238Z" fill="#A7A7A7"/>
<path d="M233.768 148.267H234.342L235.421 151.144L236.497 148.267H237.071L235.647 151.998H235.19L233.768 148.267ZM233.507 148.267H234.053L234.147 150.757V151.998H233.507V148.267ZM236.787 148.267H237.335V151.998H236.692V150.757L236.787 148.267ZM239.601 151.442V150.119C239.601 150.02 239.583 149.935 239.547 149.863C239.511 149.791 239.456 149.736 239.383 149.697C239.311 149.657 239.221 149.638 239.111 149.638C239.011 149.638 238.923 149.655 238.85 149.689C238.776 149.723 238.719 149.769 238.678 149.827C238.637 149.885 238.617 149.951 238.617 150.025H238.002C238.002 149.915 238.028 149.809 238.081 149.707C238.134 149.604 238.211 149.513 238.312 149.433C238.413 149.352 238.533 149.289 238.673 149.243C238.813 149.197 238.97 149.174 239.145 149.174C239.353 149.174 239.538 149.209 239.698 149.279C239.86 149.349 239.988 149.455 240.08 149.597C240.174 149.737 240.221 149.913 240.221 150.124V151.357C240.221 151.484 240.229 151.597 240.247 151.698C240.265 151.797 240.292 151.883 240.326 151.957V151.998H239.693C239.664 151.931 239.641 151.847 239.624 151.744C239.608 151.64 239.601 151.539 239.601 151.442ZM239.69 150.312L239.696 150.693H239.252C239.138 150.693 239.037 150.705 238.95 150.727C238.863 150.747 238.79 150.778 238.732 150.819C238.674 150.86 238.63 150.91 238.601 150.968C238.572 151.026 238.558 151.091 238.558 151.165C238.558 151.238 238.575 151.306 238.609 151.367C238.643 151.427 238.693 151.474 238.758 151.508C238.824 151.542 238.905 151.56 238.999 151.56C239.125 151.56 239.235 151.534 239.329 151.483C239.425 151.43 239.5 151.366 239.555 151.291C239.609 151.214 239.638 151.141 239.642 151.073L239.842 151.347C239.821 151.417 239.786 151.492 239.737 151.572C239.687 151.653 239.622 151.73 239.542 151.803C239.463 151.875 239.368 151.934 239.257 151.98C239.148 152.026 239.022 152.049 238.878 152.049C238.697 152.049 238.536 152.013 238.394 151.941C238.252 151.868 238.141 151.77 238.061 151.647C237.98 151.522 237.94 151.381 237.94 151.224C237.94 151.077 237.968 150.947 238.022 150.834C238.079 150.72 238.161 150.624 238.268 150.547C238.378 150.47 238.511 150.412 238.668 150.373C238.825 150.332 239.005 150.312 239.206 150.312H239.69ZM241.487 149.753V151.998H240.869V149.225H241.459L241.487 149.753ZM242.335 149.207L242.33 149.781C242.292 149.774 242.251 149.769 242.207 149.766C242.164 149.762 242.122 149.761 242.079 149.761C241.973 149.761 241.88 149.776 241.8 149.807C241.719 149.836 241.652 149.878 241.597 149.935C241.544 149.99 241.503 150.056 241.474 150.135C241.445 150.213 241.428 150.301 241.423 150.399L241.282 150.409C241.282 150.235 241.299 150.073 241.333 149.925C241.367 149.776 241.419 149.645 241.487 149.532C241.557 149.42 241.644 149.332 241.748 149.269C241.854 149.205 241.976 149.174 242.115 149.174C242.152 149.174 242.193 149.177 242.235 149.184C242.28 149.191 242.313 149.198 242.335 149.207Z" fill="#A7A7A7"/>
<path d="M65.3096 119.865H65.8837L66.9625 122.743L68.0389 119.865H68.6129L67.1881 123.596H66.7319L65.3096 119.865ZM65.0482 119.865H65.5941L65.6889 122.356V123.596H65.0482V119.865ZM68.3285 119.865H68.8769V123.596H68.2336V122.356L68.3285 119.865ZM71.1423 123.04V121.718C71.1423 121.619 71.1244 121.533 71.0885 121.462C71.0526 121.39 70.9979 121.334 70.9245 121.295C70.8527 121.256 70.7622 121.236 70.6528 121.236C70.552 121.236 70.4649 121.253 70.3914 121.287C70.318 121.321 70.2607 121.368 70.2197 121.426C70.1787 121.484 70.1582 121.55 70.1582 121.623H69.5432C69.5432 121.514 69.5697 121.408 69.6226 121.305C69.6756 121.203 69.7525 121.111 69.8533 121.031C69.9541 120.951 70.0745 120.887 70.2146 120.841C70.3547 120.795 70.5119 120.772 70.6861 120.772C70.8946 120.772 71.0791 120.807 71.2397 120.877C71.402 120.947 71.5293 121.053 71.6215 121.195C71.7155 121.335 71.7625 121.511 71.7625 121.723V122.956C71.7625 123.082 71.771 123.196 71.7881 123.296C71.8069 123.395 71.8334 123.482 71.8675 123.555V123.596H71.2345C71.2055 123.53 71.1824 123.445 71.1654 123.343C71.15 123.238 71.1423 123.138 71.1423 123.04ZM71.232 121.91L71.2371 122.292H70.7938C70.6793 122.292 70.5785 122.303 70.4914 122.325C70.4042 122.346 70.3316 122.376 70.2735 122.417C70.2155 122.458 70.1719 122.508 70.1428 122.566C70.1138 122.624 70.0993 122.69 70.0993 122.763C70.0993 122.837 70.1164 122.904 70.1505 122.966C70.1847 123.026 70.2342 123.073 70.2992 123.107C70.3658 123.141 70.4461 123.158 70.5401 123.158C70.6665 123.158 70.7767 123.132 70.8706 123.081C70.9663 123.028 71.0415 122.964 71.0962 122.889C71.1508 122.812 71.1799 122.739 71.1833 122.671L71.3832 122.945C71.3627 123.015 71.3277 123.091 71.2781 123.171C71.2286 123.251 71.1636 123.328 71.0833 123.401C71.0048 123.473 70.9099 123.532 70.7989 123.578C70.6895 123.624 70.5631 123.647 70.4196 123.647C70.2385 123.647 70.0771 123.612 69.9353 123.54C69.7935 123.466 69.6824 123.368 69.6021 123.245C69.5218 123.12 69.4817 122.979 69.4817 122.822C69.4817 122.675 69.509 122.546 69.5637 122.433C69.6201 122.318 69.7021 122.223 69.8097 122.146C69.919 122.069 70.0523 122.011 70.2095 121.971C70.3666 121.93 70.546 121.91 70.7476 121.91H71.232ZM73.0284 121.351V123.596H72.4108V120.823H73.0002L73.0284 121.351ZM73.8767 120.805L73.8716 121.38C73.834 121.373 73.793 121.368 73.7485 121.364C73.7058 121.361 73.6631 121.359 73.6204 121.359C73.5145 121.359 73.4214 121.374 73.3411 121.405C73.2608 121.434 73.1933 121.477 73.1386 121.533C73.0857 121.588 73.0447 121.655 73.0156 121.733C72.9866 121.812 72.9695 121.9 72.9644 121.997L72.8234 122.007C72.8234 121.833 72.8405 121.672 72.8747 121.523C72.9088 121.374 72.9601 121.244 73.0284 121.131C73.0985 121.018 73.1856 120.93 73.2898 120.867C73.3957 120.804 73.5179 120.772 73.6563 120.772C73.6939 120.772 73.734 120.776 73.7767 120.782C73.8212 120.789 73.8545 120.797 73.8767 120.805Z" fill="#A7A7A7"/>
<path d="M127.649 34.3309L76.8366 122.387H178.462L127.649 34.3309ZM127.649 33.7474L178.967 122.678H76.3315L127.649 33.7474Z" fill="#A7A7A7"/>
<path d="M127.649 44.2445L85.5836 117.138H169.714L127.649 44.2445ZM127.649 43.6611L170.219 117.43H85.0786L127.649 43.6611Z" fill="#A7A7A7"/>
<path d="M127.65 55.0316L94.9158 111.598H160.384L127.65 55.0316ZM127.65 54.4493L160.89 111.89H94.4102L127.65 54.4493Z" fill="#A7A7A7"/>
<path d="M123.787 32.6997H132.242V39.6976H123.787V32.6997Z" fill="#E8E8E8"/>
<path d="M123.787 41.7386H132.242V48.7365H123.787V41.7386Z" fill="#E8E8E8"/>
<path d="M123.495 51.6523H131.95V58.6501H123.495V51.6523Z" fill="#E8E8E8"/>
<path d="M131.804 60.8367V67.5437H123.64V60.8367H131.804Z" fill="#E8E8E8" stroke="#E8E8E8" stroke-width="0.291577"/>
<path d="M131.804 69.8755V76.5825H123.64V69.8755H131.804Z" fill="#E8E8E8" stroke="#E8E8E8" stroke-width="0.291577"/>
<path d="M126.406 36.3709L126.023 36.2772L126.18 34.8182H127.745V35.2248H126.579L126.499 35.9364C126.545 35.9098 126.607 35.8839 126.687 35.8587C126.766 35.8321 126.857 35.8188 126.96 35.8188C127.097 35.8188 127.219 35.8414 127.327 35.8866C127.435 35.9304 127.528 35.9949 127.604 36.0799C127.679 36.1636 127.737 36.2659 127.777 36.3869C127.817 36.5064 127.837 36.6413 127.837 36.7915C127.837 36.9257 127.817 37.0513 127.777 37.1682C127.738 37.2851 127.68 37.3881 127.602 37.4771C127.523 37.5662 127.424 37.6359 127.305 37.6864C127.186 37.7356 127.046 37.7602 126.884 37.7602C126.763 37.7602 126.647 37.7429 126.535 37.7083C126.425 37.6725 126.326 37.62 126.238 37.5509C126.151 37.4805 126.08 37.3941 126.027 37.2918C125.974 37.1881 125.943 37.0692 125.935 36.935H126.406C126.418 37.0293 126.444 37.1097 126.483 37.1762C126.525 37.2413 126.579 37.2911 126.647 37.3257C126.715 37.3602 126.793 37.3775 126.882 37.3775C126.963 37.3775 127.033 37.3635 127.091 37.3356C127.15 37.3064 127.198 37.2652 127.237 37.212C127.277 37.1576 127.306 37.0938 127.325 37.0207C127.344 36.9476 127.354 36.8666 127.354 36.7775C127.354 36.6925 127.343 36.6147 127.321 36.5443C127.299 36.4739 127.267 36.4128 127.223 36.3609C127.18 36.3091 127.127 36.2693 127.061 36.2414C126.996 36.2121 126.921 36.1975 126.836 36.1975C126.722 36.1975 126.634 36.2141 126.573 36.2473C126.513 36.2806 126.457 36.3217 126.406 36.3709ZM130.113 36.0261V36.5005C130.113 36.7277 130.09 36.9217 130.045 37.0825C130.001 37.2419 129.938 37.3715 129.854 37.4712C129.77 37.5708 129.67 37.6439 129.553 37.6904C129.437 37.7369 129.308 37.7602 129.164 37.7602C129.05 37.7602 128.944 37.7456 128.845 37.7163C128.748 37.6871 128.661 37.6412 128.582 37.5788C128.504 37.5163 128.437 37.4359 128.381 37.3376C128.326 37.238 128.284 37.119 128.253 36.9808C128.224 36.8426 128.21 36.6825 128.21 36.5005V36.0261C128.21 35.7975 128.232 35.6049 128.277 35.4481C128.322 35.2899 128.387 35.1617 128.471 35.0634C128.554 34.9637 128.654 34.8913 128.77 34.8461C128.887 34.8009 129.017 34.7783 129.16 34.7783C129.276 34.7783 129.382 34.793 129.479 34.8222C129.578 34.8501 129.665 34.8946 129.742 34.9557C129.821 35.0169 129.887 35.0966 129.942 35.1949C129.997 35.2919 130.04 35.4095 130.069 35.5477C130.098 35.6846 130.113 35.844 130.113 36.0261ZM129.633 36.5682V35.9543C129.633 35.8387 129.626 35.7371 129.613 35.6494C129.599 35.5603 129.579 35.4853 129.553 35.4241C129.528 35.3617 129.496 35.3112 129.457 35.2727C129.419 35.2328 129.375 35.2042 129.326 35.1869C129.277 35.1683 129.221 35.159 129.16 35.159C129.086 35.159 129.019 35.1737 128.961 35.2029C128.902 35.2308 128.853 35.276 128.813 35.3384C128.774 35.4009 128.743 35.4833 128.722 35.5856C128.702 35.6866 128.692 35.8095 128.692 35.9543V36.5682C128.692 36.6852 128.699 36.7882 128.712 36.8772C128.725 36.9662 128.745 37.0426 128.772 37.1064C128.798 37.1689 128.83 37.2207 128.867 37.2619C128.906 37.3017 128.95 37.331 128.999 37.3496C129.049 37.3682 129.104 37.3775 129.164 37.3775C129.24 37.3775 129.307 37.3629 129.366 37.3336C129.424 37.3044 129.473 37.2579 129.513 37.1941C129.553 37.129 129.583 37.0446 129.603 36.941C129.623 36.8373 129.633 36.7131 129.633 36.5682Z" fill="#A7A7A7"/>
<path d="M127.901 45.7247V46.1073H125.808L125.792 45.8183L127.043 43.857H127.428L127.012 44.5706L126.292 45.7247H127.901ZM127.538 43.857V46.7591H127.057V43.857H127.538ZM130.113 45.0649V45.5393C130.113 45.7665 130.09 45.9605 130.045 46.1213C130.001 46.2808 129.938 46.4103 129.854 46.51C129.77 46.6096 129.67 46.6827 129.553 46.7292C129.437 46.7757 129.308 46.799 129.164 46.799C129.05 46.799 128.944 46.7844 128.845 46.7551C128.748 46.7259 128.661 46.6801 128.582 46.6176C128.504 46.5552 128.437 46.4748 128.381 46.3764C128.326 46.2768 128.284 46.1578 128.253 46.0196C128.224 45.8815 128.21 45.7213 128.21 45.5393V45.0649C128.21 44.8364 128.232 44.6437 128.277 44.4869C128.322 44.3287 128.387 44.2005 128.471 44.1022C128.554 44.0025 128.654 43.9301 128.77 43.8849C128.887 43.8398 129.017 43.8172 129.16 43.8172C129.276 43.8172 129.382 43.8318 129.479 43.861C129.578 43.8889 129.665 43.9334 129.742 43.9946C129.821 44.0557 129.887 44.1354 129.942 44.2337C129.997 44.3307 130.04 44.4483 130.069 44.5865C130.098 44.7234 130.113 44.8829 130.113 45.0649ZM129.633 45.6071V44.9931C129.633 44.8775 129.626 44.7759 129.613 44.6882C129.599 44.5992 129.579 44.5241 129.553 44.463C129.528 44.4005 129.496 44.35 129.457 44.3115C129.419 44.2716 129.375 44.243 129.326 44.2258C129.277 44.2072 129.221 44.1979 129.16 44.1979C129.086 44.1979 129.019 44.2125 128.961 44.2417C128.902 44.2696 128.853 44.3148 128.813 44.3773C128.774 44.4397 128.743 44.5221 128.722 44.6244C128.702 44.7254 128.692 44.8483 128.692 44.9931V45.6071C128.692 45.724 128.699 45.827 128.712 45.916C128.725 46.005 128.745 46.0814 128.772 46.1452C128.798 46.2077 128.83 46.2595 128.867 46.3007C128.906 46.3406 128.95 46.3698 128.999 46.3884C129.049 46.407 129.104 46.4163 129.164 46.4163C129.24 46.4163 129.307 46.4017 129.366 46.3724C129.424 46.3432 129.473 46.2967 129.513 46.2329C129.553 46.1678 129.583 46.0834 129.603 45.9798C129.623 45.8761 129.633 45.7519 129.633 45.6071Z" fill="#A7A7A7"/>
<path d="M126.173 55.0045H126.46C126.572 55.0045 126.664 54.9852 126.737 54.9466C126.811 54.9081 126.867 54.855 126.902 54.7872C126.938 54.7194 126.956 54.6417 126.956 54.554C126.956 54.4623 126.94 54.3839 126.906 54.3188C126.875 54.2524 126.825 54.2012 126.759 54.1653C126.694 54.1294 126.611 54.1115 126.51 54.1115C126.425 54.1115 126.348 54.1288 126.279 54.1633C126.211 54.1965 126.157 54.2444 126.117 54.3068C126.077 54.368 126.057 54.441 126.057 54.5261H125.575C125.575 54.3719 125.616 54.2351 125.697 54.1155C125.778 53.9959 125.888 53.9022 126.027 53.8344C126.168 53.7653 126.326 53.7308 126.502 53.7308C126.689 53.7308 126.853 53.762 126.992 53.8245C127.133 53.8856 127.243 53.9773 127.321 54.0995C127.399 54.2218 127.439 54.3733 127.439 54.554C127.439 54.6364 127.419 54.7201 127.381 54.8051C127.342 54.8902 127.285 54.9679 127.209 55.0383C127.134 55.1074 127.039 55.1639 126.926 55.2078C126.813 55.2503 126.683 55.2715 126.534 55.2715H126.173V55.0045ZM126.173 55.3792V55.1161H126.534C126.704 55.1161 126.849 55.136 126.968 55.1759C127.089 55.2157 127.188 55.2709 127.263 55.3413C127.339 55.4104 127.394 55.4895 127.429 55.5785C127.465 55.6675 127.483 55.7619 127.483 55.8615C127.483 55.9971 127.458 56.118 127.409 56.2243C127.361 56.3293 127.292 56.4183 127.203 56.4914C127.114 56.5645 127.01 56.6196 126.891 56.6568C126.772 56.694 126.643 56.7126 126.504 56.7126C126.379 56.7126 126.259 56.6953 126.145 56.6608C126.031 56.6263 125.928 56.5751 125.838 56.5073C125.748 56.4382 125.676 56.3525 125.623 56.2502C125.571 56.1466 125.545 56.027 125.545 55.8914H126.025C126.025 55.9778 126.045 56.0542 126.085 56.1206C126.126 56.1858 126.184 56.2369 126.257 56.2741C126.331 56.3113 126.416 56.3299 126.512 56.3299C126.613 56.3299 126.7 56.312 126.773 56.2761C126.846 56.2402 126.902 56.1871 126.94 56.1167C126.98 56.0462 127 55.9612 127 55.8615C127 55.7486 126.978 55.6569 126.934 55.5865C126.891 55.516 126.828 55.4642 126.747 55.431C126.666 55.3964 126.57 55.3792 126.46 55.3792H126.173ZM129.821 54.9785V55.4529C129.821 55.6801 129.798 55.8742 129.753 56.0349C129.709 56.1944 129.645 56.324 129.561 56.4236C129.478 56.5233 129.377 56.5964 129.26 56.6429C129.145 56.6894 129.015 56.7126 128.872 56.7126C128.757 56.7126 128.651 56.698 128.553 56.6688C128.456 56.6395 128.368 56.5937 128.29 56.5312C128.211 56.4688 128.144 56.3884 128.088 56.2901C128.034 56.1904 127.991 56.0715 127.961 55.9333C127.932 55.7951 127.917 55.635 127.917 55.4529V54.9785C127.917 54.75 127.94 54.5573 127.985 54.4005C128.03 54.2424 128.094 54.1142 128.178 54.0158C128.262 53.9162 128.362 53.8437 128.477 53.7986C128.594 53.7534 128.724 53.7308 128.868 53.7308C128.983 53.7308 129.09 53.7454 129.187 53.7746C129.285 53.8026 129.373 53.8471 129.45 53.9082C129.528 53.9693 129.595 54.049 129.649 54.1474C129.705 54.2444 129.747 54.362 129.777 54.5002C129.806 54.637 129.821 54.7965 129.821 54.9785ZM129.34 55.5207V54.9068C129.34 54.7912 129.334 54.6895 129.32 54.6018C129.307 54.5128 129.287 54.4377 129.26 54.3766C129.235 54.3141 129.203 54.2636 129.165 54.2251C129.126 54.1852 129.082 54.1567 129.033 54.1394C128.984 54.1208 128.929 54.1115 128.868 54.1115C128.793 54.1115 128.727 54.1261 128.668 54.1553C128.61 54.1833 128.561 54.2284 128.521 54.2909C128.481 54.3533 128.451 54.4357 128.429 54.538C128.409 54.639 128.399 54.7619 128.399 54.9068V55.5207C128.399 55.6376 128.406 55.7406 128.419 55.8296C128.433 55.9187 128.453 55.9951 128.479 56.0589C128.506 56.1213 128.538 56.1731 128.575 56.2143C128.613 56.2542 128.657 56.2834 128.706 56.302C128.757 56.3206 128.812 56.3299 128.872 56.3299C128.948 56.3299 129.015 56.3153 129.073 56.2861C129.132 56.2568 129.181 56.2103 129.221 56.1466C129.26 56.0814 129.29 55.9971 129.31 55.8934C129.33 55.7898 129.34 55.6655 129.34 55.5207Z" fill="#A7A7A7"/>
<path d="M127.554 65.3289V65.7116H125.609V65.3828L126.554 64.3523C126.657 64.2353 126.739 64.1344 126.799 64.0493C126.859 63.9643 126.9 63.8879 126.924 63.8201C126.95 63.751 126.962 63.6839 126.962 63.6188C126.962 63.5271 126.945 63.4467 126.91 63.3776C126.877 63.3072 126.828 63.252 126.763 63.2122C126.698 63.171 126.619 63.1504 126.526 63.1504C126.418 63.1504 126.328 63.1736 126.255 63.2201C126.182 63.2666 126.126 63.3311 126.089 63.4135C126.052 63.4945 126.033 63.5876 126.033 63.6925H125.553C125.553 63.5238 125.592 63.3696 125.669 63.2301C125.746 63.0893 125.857 62.9776 126.004 62.8952C126.15 62.8115 126.326 62.7697 126.532 62.7697C126.726 62.7697 126.891 62.8022 127.026 62.8673C127.162 62.9325 127.265 63.0248 127.335 63.1444C127.407 63.264 127.443 63.4055 127.443 63.5689C127.443 63.6593 127.428 63.749 127.399 63.838C127.37 63.9271 127.328 64.0161 127.273 64.1051C127.22 64.1928 127.157 64.2812 127.084 64.3702C127.011 64.4579 126.93 64.5469 126.843 64.6373L126.215 65.3289H127.554ZM129.821 64.0174V64.4918C129.821 64.719 129.798 64.913 129.753 65.0738C129.709 65.2333 129.645 65.3628 129.561 65.4625C129.478 65.5621 129.377 65.6352 129.26 65.6817C129.145 65.7282 129.015 65.7515 128.872 65.7515C128.757 65.7515 128.651 65.7369 128.553 65.7077C128.456 65.6784 128.368 65.6326 128.29 65.5701C128.211 65.5077 128.144 65.4273 128.088 65.3289C128.034 65.2293 127.991 65.1104 127.961 64.9722C127.932 64.834 127.917 64.6738 127.917 64.4918V64.0174C127.917 63.7889 127.94 63.5962 127.985 63.4394C128.03 63.2813 128.094 63.153 128.178 63.0547C128.262 62.955 128.362 62.8826 128.477 62.8374C128.594 62.7923 128.724 62.7697 128.868 62.7697C128.983 62.7697 129.09 62.7843 129.187 62.8135C129.285 62.8414 129.373 62.8859 129.45 62.9471C129.528 63.0082 129.595 63.0879 129.649 63.1863C129.705 63.2833 129.747 63.4009 129.777 63.5391C129.806 63.6759 129.821 63.8354 129.821 64.0174ZM129.34 64.5596V63.9457C129.34 63.8301 129.334 63.7284 129.32 63.6407C129.307 63.5517 129.287 63.4766 129.26 63.4155C129.235 63.353 129.203 63.3025 129.165 63.264C129.126 63.2241 129.082 63.1956 129.033 63.1783C128.984 63.1597 128.929 63.1504 128.868 63.1504C128.793 63.1504 128.727 63.165 128.668 63.1942C128.61 63.2221 128.561 63.2673 128.521 63.3298C128.481 63.3922 128.451 63.4746 128.429 63.5769C128.409 63.6779 128.399 63.8008 128.399 63.9457V64.5596C128.399 64.6765 128.406 64.7795 128.419 64.8685C128.433 64.9575 128.453 65.034 128.479 65.0977C128.506 65.1602 128.538 65.212 128.575 65.2532C128.613 65.2931 128.657 65.3223 128.706 65.3409C128.757 65.3595 128.812 65.3688 128.872 65.3688C128.948 65.3688 129.015 65.3542 129.073 65.325C129.132 65.2957 129.181 65.2492 129.221 65.1854C129.26 65.1203 129.29 65.0359 129.31 64.9323C129.33 64.8287 129.34 64.7044 129.34 64.5596Z" fill="#A7A7A7"/>
<path d="M126.92 71.8385V74.7505H126.44V72.4085L125.728 72.6497V72.253L126.863 71.8385H126.92ZM129.821 73.0563V73.5307C129.821 73.7579 129.798 73.9519 129.753 74.1127C129.709 74.2722 129.645 74.4017 129.561 74.5014C129.478 74.601 129.377 74.6741 129.26 74.7206C129.145 74.7671 129.015 74.7904 128.872 74.7904C128.757 74.7904 128.651 74.7758 128.553 74.7465C128.456 74.7173 128.368 74.6715 128.29 74.609C128.211 74.5465 128.144 74.4662 128.088 74.3678C128.034 74.2682 127.991 74.1492 127.961 74.011C127.932 73.8728 127.917 73.7127 127.917 73.5307V73.0563C127.917 72.8277 127.94 72.6351 127.985 72.4783C128.03 72.3201 128.094 72.1919 128.178 72.0936C128.262 71.9939 128.362 71.9215 128.477 71.8763C128.594 71.8311 128.724 71.8086 128.868 71.8086C128.983 71.8086 129.09 71.8232 129.187 71.8524C129.285 71.8803 129.373 71.9248 129.45 71.986C129.528 72.0471 129.595 72.1268 129.649 72.2251C129.705 72.3221 129.747 72.4397 129.777 72.5779C129.806 72.7148 129.821 72.8743 129.821 73.0563ZM129.34 73.5984V72.9845C129.34 72.8689 129.334 72.7673 129.32 72.6796C129.307 72.5906 129.287 72.5155 129.26 72.4544C129.235 72.3919 129.203 72.3414 129.165 72.3029C129.126 72.263 129.082 72.2344 129.033 72.2172C128.984 72.1986 128.929 72.1893 128.868 72.1893C128.793 72.1893 128.727 72.2039 128.668 72.2331C128.61 72.261 128.561 72.3062 128.521 72.3686C128.481 72.4311 128.451 72.5135 128.429 72.6158C128.409 72.7168 128.399 72.8397 128.399 72.9845V73.5984C128.399 73.7154 128.406 73.8184 128.419 73.9074C128.433 73.9964 128.453 74.0728 128.479 74.1366C128.506 74.1991 128.538 74.2509 128.575 74.2921C128.613 74.3319 128.657 74.3612 128.706 74.3798C128.757 74.3984 128.812 74.4077 128.872 74.4077C128.948 74.4077 129.015 74.3931 129.073 74.3638C129.132 74.3346 129.181 74.2881 129.221 74.2243C129.26 74.1592 129.29 74.0748 129.31 73.9712C129.33 73.8675 129.34 73.7433 129.34 73.5984Z" fill="#A7A7A7"/>
<path d="M147.564 101.83H107.735L127.65 44.1078L147.564 101.83H147.564Z" fill="#E8E8E8"/>
<path d="M127.651 44.5553L107.941 101.685H147.36L127.651 44.555M127.651 43.6611L147.769 101.976H107.532L127.651 43.6611Z" fill="#A7A7A7"/>
<g opacity="0.798">
<path d="M127.893 60.095L147.187 101.606L77.1885 122.166L127.893 60.095Z" fill="#A7A7A7"/>
<path d="M77.6001 121.894L146.984 101.514L127.86 60.3675L77.6001 121.894ZM76.7778 122.439L127.928 59.8231L147.391 101.698L76.7784 122.439L76.7778 122.439Z" fill="#A7A7A7"/>
</g>
<g opacity="0.54">
<path d="M177.957 121.969L100.668 106.294L126.894 77.3179L150.419 96.6847L177.957 121.968V121.969Z" fill="#A7A7A7"/>
<path d="M100.949 106.202L177.473 121.722L150.324 96.795L126.91 77.5194L100.949 106.202M100.389 106.386L126.88 77.1176L150.515 96.5751L178.442 122.216L100.389 106.386H100.389Z" fill="#646464"/>
</g>
<path d="M77.4811 121.803L78.5515 120.733L78.7722 120.512C78.7875 120.497 78.796 120.476 78.796 120.454C78.796 120.432 78.7875 120.411 78.7722 120.395L78.5361 120.159C78.5205 120.144 78.4995 120.136 78.4777 120.136C78.4559 120.136 78.435 120.144 78.4194 120.159L77.1283 121.45L75.8363 120.158C75.8208 120.143 75.7998 120.134 75.778 120.134C75.7562 120.134 75.7353 120.143 75.7197 120.158L75.4835 120.394C75.4683 120.41 75.4598 120.431 75.4598 120.453C75.4598 120.474 75.4683 120.495 75.4835 120.511L76.7746 121.802L75.4818 123.094C75.4665 123.11 75.458 123.131 75.458 123.153C75.458 123.174 75.4665 123.195 75.4818 123.211L75.718 123.447C75.7336 123.462 75.7545 123.471 75.7763 123.471C75.7981 123.471 75.819 123.462 75.8346 123.447L77.1257 122.156L78.1981 123.228L78.4188 123.449C78.4344 123.464 78.4554 123.472 78.4772 123.472C78.499 123.472 78.5199 123.464 78.5355 123.449L78.7716 123.212C78.7869 123.197 78.7954 123.176 78.7954 123.154C78.7954 123.132 78.7869 123.111 78.7716 123.096L77.4811 121.803Z" fill="#A7A7A7"/>
<path d="M101.682 106.058L102.752 104.988L102.973 104.767C102.988 104.751 102.997 104.73 102.997 104.709C102.997 104.687 102.988 104.666 102.973 104.65L102.737 104.414C102.721 104.399 102.7 104.39 102.678 104.39C102.657 104.39 102.636 104.399 102.62 104.414L101.329 105.705L100.037 104.413C100.021 104.398 100.001 104.389 99.9787 104.389C99.9569 104.389 99.936 104.398 99.9204 104.413L99.6842 104.649C99.669 104.665 99.6604 104.686 99.6604 104.708C99.6604 104.729 99.669 104.75 99.6842 104.766L100.975 106.057L99.6825 107.349C99.6672 107.365 99.6587 107.386 99.6587 107.408C99.6587 107.429 99.6672 107.45 99.6825 107.466L99.9187 107.702C99.9342 107.717 99.9552 107.726 99.977 107.726C99.9988 107.726 100.02 107.717 100.035 107.702L101.326 106.411L102.399 107.483L102.62 107.703C102.635 107.719 102.656 107.727 102.678 107.727C102.7 107.727 102.721 107.719 102.736 107.703L102.972 107.467C102.988 107.452 102.996 107.431 102.996 107.409C102.996 107.387 102.988 107.366 102.972 107.351L101.682 106.058ZM127.42 77.4836L128.491 76.4132L128.712 76.1925C128.727 76.1769 128.735 76.156 128.735 76.1342C128.735 76.1124 128.727 76.0915 128.712 76.0759L128.475 75.8397C128.46 75.8244 128.439 75.8159 128.417 75.8159C128.395 75.8159 128.374 75.8244 128.359 75.8397L127.068 77.1308L125.776 75.8385C125.76 75.8233 125.739 75.8147 125.717 75.8147C125.696 75.8147 125.675 75.8233 125.659 75.8385L125.423 76.0747C125.408 76.0903 125.399 76.1112 125.399 76.133C125.399 76.1548 125.408 76.1758 125.423 76.1913L126.714 77.4824L125.421 78.7747C125.406 78.7903 125.397 78.8112 125.397 78.833C125.397 78.8548 125.406 78.8758 125.421 78.8913L125.657 79.1275C125.673 79.1428 125.694 79.1513 125.716 79.1513C125.737 79.1513 125.758 79.1428 125.774 79.1275L127.065 77.8364L128.137 78.9082L128.358 79.129C128.374 79.1442 128.395 79.1527 128.416 79.1527C128.438 79.1527 128.459 79.1442 128.475 79.129L128.711 78.8928C128.726 78.8772 128.735 78.8563 128.735 78.8345C128.735 78.8127 128.726 78.7917 128.711 78.7762L127.42 77.4836ZM108.018 101.976L109.088 100.906L109.309 100.685C109.324 100.669 109.333 100.648 109.333 100.627C109.333 100.605 109.324 100.584 109.309 100.568L109.073 100.332C109.057 100.317 109.036 100.308 109.015 100.308C108.993 100.308 108.972 100.317 108.956 100.332L107.665 101.623L106.373 100.331C106.358 100.316 106.337 100.307 106.315 100.307C106.293 100.307 106.272 100.316 106.257 100.331L106.02 100.567C106.005 100.583 105.997 100.604 105.997 100.625C105.997 100.647 106.005 100.668 106.02 100.684L107.312 101.975L106.019 103.267C106.003 103.283 105.995 103.304 105.995 103.325C105.995 103.347 106.003 103.368 106.019 103.384L106.255 103.62C106.27 103.635 106.291 103.644 106.313 103.644C106.335 103.644 106.356 103.635 106.372 103.62L107.663 102.329L108.735 103.401L108.956 103.621C108.971 103.637 108.992 103.645 109.014 103.645C109.036 103.645 109.057 103.637 109.072 103.621L109.309 103.385C109.324 103.37 109.332 103.349 109.332 103.327C109.332 103.305 109.324 103.284 109.309 103.269L108.018 101.976ZM178.799 122.678L179.869 121.608L180.09 121.387C180.105 121.371 180.114 121.35 180.114 121.329C180.114 121.307 180.105 121.286 180.09 121.27L179.854 121.034C179.838 121.019 179.817 121.01 179.796 121.01C179.774 121.01 179.753 121.019 179.737 121.034L178.446 122.325L177.154 121.033C177.139 121.018 177.118 121.009 177.096 121.009C177.074 121.009 177.053 121.018 177.037 121.033L176.801 121.269C176.786 121.285 176.778 121.306 176.778 121.327C176.778 121.349 176.786 121.37 176.801 121.386L178.092 122.677L176.8 123.969C176.784 123.985 176.776 124.006 176.776 124.027C176.776 124.049 176.784 124.07 176.8 124.086L177.036 124.322C177.051 124.337 177.072 124.346 177.094 124.346C177.116 124.346 177.137 124.337 177.152 124.322L178.443 123.031L179.516 124.103L179.737 124.323C179.752 124.339 179.773 124.347 179.795 124.347C179.817 124.347 179.838 124.339 179.853 124.323L180.089 124.087C180.105 124.072 180.113 124.051 180.113 124.029C180.113 124.007 180.105 123.986 180.089 123.971L178.799 122.678ZM148.122 101.976L149.193 100.906L149.414 100.685C149.429 100.669 149.437 100.648 149.437 100.627C149.437 100.605 149.429 100.584 149.414 100.568L149.177 100.332C149.162 100.317 149.141 100.308 149.119 100.308C149.097 100.308 149.076 100.317 149.061 100.332L147.77 101.623L146.478 100.331C146.462 100.316 146.441 100.307 146.419 100.307C146.398 100.307 146.377 100.316 146.361 100.331L146.125 100.567C146.11 100.583 146.101 100.604 146.101 100.625C146.101 100.647 146.11 100.668 146.125 100.684L147.416 101.975L146.123 103.267C146.108 103.283 146.099 103.304 146.099 103.325C146.099 103.347 146.108 103.368 146.123 103.384L146.359 103.62C146.375 103.635 146.396 103.644 146.418 103.644C146.439 103.644 146.46 103.635 146.476 103.62L147.767 102.329L148.839 103.401L149.06 103.621C149.076 103.637 149.097 103.645 149.118 103.645C149.14 103.645 149.161 103.637 149.177 103.621L149.413 103.385C149.428 103.37 149.437 103.349 149.437 103.327C149.437 103.305 149.428 103.284 149.413 103.269L148.122 101.976ZM128.004 60.5722L129.074 59.5018L129.295 59.2811C129.31 59.2655 129.318 59.2445 129.318 59.2227C129.318 59.2009 129.31 59.18 129.295 59.1644L129.059 58.9282C129.043 58.913 129.022 58.9045 129 58.9045C128.978 58.9045 128.957 58.913 128.942 58.9282L127.651 60.2193L126.359 58.9271C126.343 58.9118 126.322 58.9033 126.301 58.9033C126.279 58.9033 126.258 58.9118 126.242 58.9271L126.006 59.1633C125.991 59.1788 125.982 59.1998 125.982 59.2216C125.982 59.2434 125.991 59.2643 126.006 59.2799L127.297 60.571L126.004 61.8633C125.989 61.8788 125.98 61.8998 125.98 61.9216C125.98 61.9434 125.989 61.9643 126.004 61.9799L126.24 62.2161C126.256 62.2313 126.277 62.2398 126.299 62.2398C126.321 62.2398 126.341 62.2313 126.357 62.2161L127.648 60.925L128.721 61.9968L128.941 62.2175C128.957 62.2328 128.978 62.2413 129 62.2413C129.021 62.2413 129.042 62.2328 129.058 62.2175L129.294 61.9813C129.309 61.9658 129.318 61.9448 129.318 61.923C129.318 61.9012 129.309 61.8803 129.294 61.8647L128.004 60.5722ZM128.004 45.3306L129.074 44.2602L129.295 44.0395C129.31 44.0239 129.318 44.0029 129.318 43.9811C129.318 43.9594 129.31 43.9384 129.295 43.9228L129.059 43.6867C129.043 43.6714 129.022 43.6629 129 43.6629C128.978 43.6629 128.957 43.6714 128.942 43.6867L127.651 44.9778L126.359 43.6855C126.343 43.6702 126.322 43.6617 126.301 43.6617C126.279 43.6617 126.258 43.6702 126.242 43.6855L126.006 43.9217C125.991 43.9373 125.982 43.9582 125.982 43.98C125.982 44.0018 125.991 44.0227 126.006 44.0383L127.297 45.3294L126.004 46.6217C125.989 46.6373 125.98 46.6582 125.98 46.68C125.98 46.7018 125.989 46.7227 126.004 46.7383L126.24 46.9745C126.256 46.9897 126.277 46.9983 126.299 46.9983C126.321 46.9983 126.341 46.9897 126.357 46.9745L127.648 45.6834L128.721 46.7552L128.941 46.9759C128.957 46.9912 128.978 46.9997 129 46.9997C129.021 46.9997 129.042 46.9912 129.058 46.9759L129.294 46.7398C129.309 46.7242 129.318 46.7032 129.318 46.6814C129.318 46.6596 129.309 46.6387 129.294 46.6231L128.004 45.3306Z" fill="#A7A7A7"/>
</svg>
