<svg width="250" height="160" viewBox="0 0 250 160" fill="none" xmlns="http://www.w3.org/2000/svg">
<path d="M123.789 82.4224C124.458 82.4225 125 82.9645 125 83.6334V88.4781C125 89.1468 124.458 89.6889 123.789 89.689H17.2109C16.5422 89.6889 16.0002 89.1468 16 88.4781V83.6334C16 82.9645 16.5421 82.4225 17.2109 82.4224H123.789ZM232.789 70.3111C233.458 70.3112 234 70.8533 234 71.522V76.3668C234 77.0355 233.458 77.5776 232.789 77.5777H17.2109C16.5422 77.5776 16.0001 77.0355 16 76.3668V71.522C16.0001 70.8533 16.5422 70.3112 17.2109 70.3111H232.789Z" fill="#989898"/>
<path d="M99.5664 103.011C100.235 103.011 100.777 103.553 100.777 104.222V109.067C100.777 109.736 100.235 110.278 99.5664 110.278H34.167C33.4982 110.278 32.9552 109.736 32.9551 109.067V104.222C32.9551 103.553 33.4981 103.011 34.167 103.011H99.5664ZM25.6885 105.433C26.0095 105.433 26.3178 105.561 26.5449 105.788C26.772 106.015 26.9003 106.323 26.9004 106.644C26.9004 106.965 26.772 107.273 26.5449 107.501C26.3178 107.728 26.0097 107.856 25.6885 107.856H18.4219C18.1008 107.856 17.7925 107.728 17.5654 107.501C17.3385 107.273 17.2109 106.965 17.2109 106.644C17.211 106.323 17.3384 106.015 17.5654 105.788C17.7925 105.561 18.1008 105.433 18.4219 105.433H25.6885ZM21.4502 49.7222C21.8115 49.7223 22.1576 49.8662 22.4131 50.1216C22.6686 50.3771 22.8124 50.7232 22.8125 51.0845V53.8101H25.5371C25.8984 53.8101 26.2455 53.9531 26.501 54.2086C26.7565 54.4641 26.9004 54.8111 26.9004 55.1724C26.9003 55.5336 26.7563 55.8799 26.501 56.1353C26.2455 56.3908 25.8985 56.5347 25.5371 56.5347L22.8125 56.4859V59.2593C22.8125 59.6207 22.6686 59.9677 22.4131 60.2232C22.1576 60.4786 21.8114 60.6226 21.4502 60.6226C21.0888 60.6226 20.7418 60.4787 20.4863 60.2232C20.2309 59.9677 20.0879 59.6206 20.0879 59.2593L20.1357 56.4859L17.3623 56.5347C17.001 56.5347 16.6549 56.3908 16.3994 56.1353C16.1439 55.8798 16.0001 55.5337 16 55.1724C16 54.8111 16.1439 54.4641 16.3994 54.2086C16.6549 53.9533 17.0012 53.8102 17.3623 53.8101H20.1357L20.0879 51.0845C20.0879 50.7234 20.231 50.3771 20.4863 50.1216C20.7418 49.8661 21.0888 49.7222 21.4502 49.7222ZM98.3555 51.5386C99.0242 51.5386 99.5662 52.0809 99.5664 52.7496V57.5943C99.5664 58.2632 99.0243 58.8052 98.3555 58.8052H32.9551C32.2864 58.805 31.7441 58.263 31.7441 57.5943V52.7496C31.7444 52.0811 32.2866 51.5389 32.9551 51.5386H98.3555Z" fill="#D5D5D5"/>
</svg>
