<svg width="250" height="160" viewBox="0 0 250 160" fill="none" xmlns="http://www.w3.org/2000/svg">
<path d="M232.815 48.011C233.47 48.0111 234 48.5414 234 49.1956V66.967C234 67.6213 233.47 68.1525 232.815 68.1526H17.1846C16.5303 68.1525 16 67.6213 16 66.967V49.1956C16.0001 48.5414 16.5304 48.0111 17.1846 48.011H232.815Z" fill="#F5F5F5"/>
<path d="M126.185 88.2932C126.839 88.2932 127.369 88.8244 127.369 89.4788V94.217C127.369 94.8714 126.839 95.4026 126.185 95.4026H21.9238C21.2696 95.4025 20.7393 94.8713 20.7393 94.217V89.4788C20.7393 88.8245 21.2695 88.2933 21.9238 88.2932H126.185ZM232.815 76.4456C233.47 76.4457 234 76.976 234 77.6301V82.3694C234 83.0237 233.47 83.5539 232.815 83.554H21.9238C21.2696 83.5539 20.7393 83.0237 20.7393 82.3694V77.6301C20.7394 76.976 21.2696 76.4456 21.9238 76.4456H232.815ZM69.3154 48.011C69.9696 48.0111 70.4999 48.5414 70.5 49.1956V66.967C70.5 67.6213 69.9697 68.1525 69.3154 68.1526H17.1846C16.5303 68.1525 16 67.6213 16 66.967V49.1956C16.0001 48.5414 16.5304 48.0111 17.1846 48.011H69.3154Z" fill="#989898"/>
<path d="M102.489 104.881C103.144 104.881 103.674 105.411 103.674 106.065V110.805C103.674 111.459 103.143 111.989 102.489 111.989H38.5107C37.8567 111.989 37.3264 111.459 37.3262 110.805V106.065C37.3262 105.411 37.8565 104.881 38.5107 104.881H102.489ZM30.2168 107.25C30.5309 107.25 30.8325 107.375 31.0547 107.597C31.2768 107.819 31.4023 108.12 31.4023 108.435C31.4023 108.749 31.2769 109.05 31.0547 109.272C30.8325 109.495 30.531 109.619 30.2168 109.619H23.1084C22.7942 109.619 22.4927 109.495 22.2705 109.272C22.0484 109.05 21.9238 108.749 21.9238 108.435C21.9239 108.12 22.0484 107.819 22.2705 107.597C22.4927 107.375 22.7942 107.25 23.1084 107.25H30.2168ZM26.0703 52.75C26.4238 52.75 26.7637 52.8907 27.0137 53.1406C27.2634 53.3906 27.4033 53.7297 27.4033 54.083V56.749H30.0693C30.4227 56.749 30.7618 56.8889 31.0117 57.1387C31.2616 57.3885 31.4022 57.7277 31.4023 58.0811C31.4023 58.4346 31.2617 58.7745 31.0117 59.0244C30.7618 59.2742 30.4227 59.4141 30.0693 59.4141L27.4033 59.3672V62.0801C27.4033 62.4334 27.2634 62.7725 27.0137 63.0225C26.7637 63.2724 26.4238 63.4131 26.0703 63.4131C25.717 63.413 25.3778 63.2723 25.1279 63.0225C24.8781 62.7725 24.7383 62.4334 24.7383 62.0801L24.7852 59.3672L22.0723 59.4141C21.7189 59.4141 21.3798 59.2742 21.1299 59.0244C20.8799 58.7745 20.7393 58.4346 20.7393 58.0811C20.7394 57.7277 20.88 57.3885 21.1299 57.1387C21.3798 56.8889 21.7189 56.749 22.0723 56.749H24.7852L24.7383 54.083C24.7383 53.7296 24.8782 53.3906 25.1279 53.1406C25.3778 52.8908 25.717 52.7501 26.0703 52.75ZM101.305 54.5273C101.959 54.5276 102.489 55.0577 102.489 55.7119V60.4512C102.489 61.1053 101.959 61.6355 101.305 61.6357H37.3262C36.6719 61.6357 36.1416 61.1055 36.1416 60.4512V55.7119C36.1416 55.0576 36.6719 54.5273 37.3262 54.5273H101.305Z" fill="#D5D5D5"/>
</svg>
