<svg width="250" height="160" viewBox="0 0 250 160" fill="none" xmlns="http://www.w3.org/2000/svg">
<path d="M232.794 47.424C233.46 47.4242 234 47.964 234 48.63V66.7286C234 67.3947 233.46 67.9344 232.794 67.9347H13.2061C12.54 67.9344 12.0002 67.3947 12 66.7286V48.63C12.0003 47.964 12.5401 47.4242 13.2061 47.424H232.794Z" fill="#F5F5F5"/>
<path d="M124.206 84.826C124.872 84.826 125.413 85.3667 125.413 86.0331V90.8583C125.413 91.5246 124.872 92.0653 124.206 92.0653H18.0322C17.3661 92.0651 16.8262 91.5245 16.8262 90.8583V86.0331C16.8262 85.3669 17.3661 84.8263 18.0322 84.826H124.206ZM232.794 72.7606C233.46 72.7609 234 73.3015 234 73.9677V78.7938C234 79.4599 233.46 79.9996 232.794 79.9999H18.0322C17.3662 79.9997 16.8264 79.4599 16.8262 78.7938V73.9677C16.8262 73.3014 17.3661 72.7608 18.0322 72.7606H232.794ZM234 66.7284C234 67.3945 233.46 67.9342 232.794 67.9344H13.2061C12.54 67.9342 12.0001 67.3945 12 66.7284V57.076H234V66.7284Z" fill="#989898"/>
<path d="M102.489 105.337C103.155 105.337 103.696 105.878 103.696 106.544V111.369C103.696 112.035 103.155 112.576 102.489 112.576H37.3367C36.6705 112.576 36.1306 112.035 36.1306 111.369V106.544C36.1306 105.878 36.6705 105.337 37.3367 105.337H102.489ZM28.8914 107.75C29.2113 107.75 29.5186 107.877 29.7449 108.104C29.9709 108.33 30.0973 108.636 30.0974 108.956C30.0974 109.276 29.971 109.583 29.7449 109.81C29.5186 110.036 29.2113 110.163 28.8914 110.163H21.6521C21.3321 110.163 21.0248 110.036 20.7986 109.81C20.5725 109.583 20.446 109.276 20.446 108.956C20.4462 108.636 20.5726 108.33 20.7986 108.104C21.0248 107.877 21.3321 107.75 21.6521 107.75H28.8914ZM24.6687 52.25C25.0284 52.2501 25.3732 52.3932 25.6277 52.6475C25.8822 52.902 26.0261 53.2474 26.0261 53.6074V56.3223H28.74C29.1 56.3223 29.4454 56.4652 29.7 56.7197C29.9545 56.9743 30.0974 57.3197 30.0974 57.6797C30.0973 58.0395 29.9543 58.3842 29.7 58.6387C29.4454 58.8932 29.1 59.0371 28.74 59.0371L26.0261 58.9883V61.751C26.0261 62.111 25.8822 62.4564 25.6277 62.7109C25.3732 62.9653 25.0285 63.1083 24.6687 63.1084C24.3087 63.1084 23.9633 62.9655 23.7087 62.7109C23.4542 62.4564 23.3113 62.111 23.3113 61.751L23.3591 58.9883L20.5964 59.0371C20.2364 59.0371 19.891 58.8932 19.6365 58.6387C19.3822 58.3842 19.2391 58.0394 19.239 57.6797C19.239 57.3198 19.382 56.9743 19.6365 56.7197C19.891 56.4652 20.2364 56.3223 20.5964 56.3223H23.3591L23.3113 53.6074C23.3113 53.2474 23.4542 52.902 23.7087 52.6475C23.9633 52.393 24.3088 52.25 24.6687 52.25ZM101.283 54.0596C101.949 54.0598 102.489 54.6004 102.489 55.2666V60.0928C102.489 60.7588 101.949 61.2986 101.283 61.2988H36.1306C35.4644 61.2988 34.9238 60.7589 34.9236 60.0928V55.2666C34.9236 54.6003 35.4643 54.0596 36.1306 54.0596H101.283Z" fill="#D5D5D5"/>
<path d="M29.7361 57.076C29.936 57.076 30.0974 57.2385 30.0974 57.4384V57.6796C30.0974 58.0395 29.9544 58.385 29.7 58.6395C29.4455 58.8937 29.1006 59.0369 28.741 59.037H26.0261V61.7518C26.026 62.1115 25.8829 62.4564 25.6287 62.7108C25.3742 62.9653 25.0286 63.1082 24.6687 63.1083C24.3087 63.1083 23.9633 62.9654 23.7087 62.7108C23.4544 62.4564 23.3114 62.1116 23.3113 61.7518L23.3591 59.037H20.5964C20.2365 59.037 19.891 58.894 19.6365 58.6395C19.382 58.385 19.2391 58.0395 19.239 57.6796V57.4384C19.239 57.2386 19.3977 57.0763 19.5974 57.076H29.7361ZM102.489 61.9022C102.489 62.5684 101.949 63.1081 101.283 63.1083H36.1306C35.4643 63.1083 34.9236 62.5685 34.9236 61.9022V57.076H102.489V61.9022Z" fill="#F3F3F3"/>
</svg>
