<svg width="250" height="160" viewBox="0 0 250 160" fill="none" xmlns="http://www.w3.org/2000/svg">
<g clip-path="url(#clip0_2850_4)">
<path d="M125 10C86.36 10 55 41.36 55 80C55 118.64 86.36 150 125 150C163.64 150 195 118.64 195 80C195 41.36 163.64 10 125 10ZM69 80C69 49.06 94.06 24 125 24C137.95 24 149.85 28.41 159.3 35.83L80.83 114.3C73.1414 104.522 68.9736 92.4384 69 80ZM125 136C112.05 136 100.15 131.59 90.7 124.17L169.17 45.7C176.859 55.4775 181.026 67.5616 181 80C181 110.94 155.94 136 125 136Z" fill="#989898"/>
</g>
<defs>
<clipPath id="clip0_2850_4">
<rect width="140" height="140" fill="white" transform="translate(55 10)"/>
</clipPath>
</defs>
</svg>
